<?xml version="1.0" encoding="UTF-8"?>
<mxfile host="app.diagrams.net" agent="Mozilla/5.0 (Windows NT 10.0; Win64; x64) AppleWebKit/537.36 (KHTML, like Gecko) Chrome/136.0.0.0 Safari/537.36" version="27.0.9">
  <diagram name="Sentiment Analysis Architecture" id="OC1fRa53r0hiuFojoLRx">
    <mxGraphModel dx="1303" dy="668" grid="1" gridSize="10" guides="1" tooltips="1" connect="1" arrows="1" fold="1" page="1" pageScale="1" pageWidth="850" pageHeight="1100" math="0" shadow="0">
      <root>
        <mxCell id="0" />
        <mxCell id="1" parent="0" />
        <mxCell id="ZYCGAZ8yHAl8d9Dci6E2-1" value="User Layer" style="rounded=1;whiteSpace=wrap;html=1;fillColor=#dae8fc;strokeColor=#6c8ebf;fontSize=14;fontStyle=1" parent="1" vertex="1">
          <mxGeometry x="40" y="10" width="1200" height="60" as="geometry" />
        </mxCell>
        <mxCell id="ZYCGAZ8yHAl8d9Dci6E2-2" value="Web Browser&#xa;(User Interface)" style="rounded=1;whiteSpace=wrap;html=1;fillColor=#e1d5e7;strokeColor=#9673a6;" parent="1" vertex="1">
          <mxGeometry x="580" y="120" width="120" height="60" as="geometry" />
        </mxCell>
        <mxCell id="ZYCGAZ8yHAl8d9Dci6E2-3" value="API Gateway Layer" style="rounded=1;whiteSpace=wrap;html=1;fillColor=#fff2cc;strokeColor=#d6b656;fontSize=14;fontStyle=1" parent="1" vertex="1">
          <mxGeometry x="40" y="220" width="1200" height="60" as="geometry" />
        </mxCell>
        <mxCell id="ZYCGAZ8yHAl8d9Dci6E2-4" value="Spring Cloud Gateway&#xa;(API Gateway &amp; Load Balancer)" style="rounded=1;whiteSpace=wrap;html=1;fillColor=#d5e8d4;strokeColor=#82b366;" parent="1" vertex="1">
          <mxGeometry x="480" y="298" width="320" height="60" as="geometry" />
        </mxCell>
        <mxCell id="ZYCGAZ8yHAl8d9Dci6E2-5" value="Frontend Layer" style="rounded=1;whiteSpace=wrap;html=1;fillColor=#f8cecc;strokeColor=#b85450;fontSize=14;fontStyle=1" parent="1" vertex="1">
          <mxGeometry x="40" y="400" width="280" height="60" as="geometry" />
        </mxCell>
        <mxCell id="ZYCGAZ8yHAl8d9Dci6E2-6" value="Next.js Frontend&#xa;(React SSR/SSG)" style="rounded=1;whiteSpace=wrap;html=1;fillColor=#ffe6cc;strokeColor=#d79b00;" parent="1" vertex="1">
          <mxGeometry x="40" y="477.5" width="210" height="80" as="geometry" />
        </mxCell>
        <mxCell id="ZYCGAZ8yHAl8d9Dci6E2-7" value="Authentication Layer" style="rounded=1;whiteSpace=wrap;html=1;fillColor=#e1d5e7;strokeColor=#9673a6;fontSize=14;fontStyle=1" parent="1" vertex="1">
          <mxGeometry x="380" y="400" width="190" height="60" as="geometry" />
        </mxCell>
        <mxCell id="ZYCGAZ8yHAl8d9Dci6E2-8" value="Keycloak&#xa;(Identity &amp; Access Management)" style="rounded=1;whiteSpace=wrap;html=1;fillColor=#f5f5f5;strokeColor=#666666;" parent="1" vertex="1">
          <mxGeometry x="380" y="480" width="190" height="80" as="geometry" />
        </mxCell>
        <mxCell id="ZYCGAZ8yHAl8d9Dci6E2-9" value="Backend Services Layer" style="rounded=1;whiteSpace=wrap;html=1;fillColor=#d5e8d4;strokeColor=#82b366;fontSize=14;fontStyle=1" parent="1" vertex="1">
          <mxGeometry x="600" y="400" width="640" height="60" as="geometry" />
        </mxCell>
        <mxCell id="ZYCGAZ8yHAl8d9Dci6E2-10" value="FastAPI Backend&#xa;(REST API &amp; Business Logic)" style="rounded=1;whiteSpace=wrap;html=1;fillColor=#d5e8d4;strokeColor=#82b366;" parent="1" vertex="1">
          <mxGeometry x="610" y="480" width="190" height="80" as="geometry" />
        </mxCell>
        <mxCell id="ZYCGAZ8yHAl8d9Dci6E2-11" value="ML Sentiment Service&#xa;(cardiffnlp/twitter-xlm-roberta)" style="rounded=1;whiteSpace=wrap;html=1;fillColor=#fff2cc;strokeColor=#d6b656;" parent="1" vertex="1">
          <mxGeometry x="820" y="480" width="200" height="80" as="geometry" />
        </mxCell>
        <mxCell id="ZYCGAZ8yHAl8d9Dci6E2-12" value="Web Scraping Service&#xa;(Selenium - Hespress)" style="rounded=1;whiteSpace=wrap;html=1;fillColor=#fce5cd;strokeColor=#d6b656;" parent="1" vertex="1">
          <mxGeometry x="1040" y="480" width="200" height="80" as="geometry" />
        </mxCell>
        <mxCell id="ZYCGAZ8yHAl8d9Dci6E2-13" value="Data Storage &amp; Cache Layer" style="rounded=1;whiteSpace=wrap;html=1;fillColor=#f8cecc;strokeColor=#b85450;fontSize=14;fontStyle=1" parent="1" vertex="1">
          <mxGeometry x="40" y="620" width="1120" height="60" as="geometry" />
        </mxCell>
        <mxCell id="ZYCGAZ8yHAl8d9Dci6E2-14" value="PostgreSQL&#xa;(Primary Database)" style="rounded=1;whiteSpace=wrap;html=1;fillColor=#dae8fc;strokeColor=#6c8ebf;" parent="1" vertex="1">
          <mxGeometry x="310" y="751" width="230" height="73" as="geometry" />
        </mxCell>
        <mxCell id="ZYCGAZ8yHAl8d9Dci6E2-15" value="Redis&#xa;(Cache &amp; Session Store)" style="rounded=1;whiteSpace=wrap;html=1;fillColor=#ffe6cc;strokeColor=#d79b00;" parent="1" vertex="1">
          <mxGeometry x="570" y="747.5" width="250" height="80" as="geometry" />
        </mxCell>
        <mxCell id="ZYCGAZ8yHAl8d9Dci6E2-16" value="External Services" style="rounded=1;whiteSpace=wrap;html=1;fillColor=#e6f7ff;strokeColor=#6f7780;fontSize=14;fontStyle=1" parent="1" vertex="1">
          <mxGeometry x="820" y="620" width="420" height="60" as="geometry" />
        </mxCell>
        <mxCell id="ZYCGAZ8yHAl8d9Dci6E2-17" value="Hespress.com&#xa;(Data Source)" style="rounded=1;whiteSpace=wrap;html=1;fillColor=#e6f7ff;strokeColor=#6f7780;" parent="1" vertex="1">
          <mxGeometry x="860" y="750" width="180" height="80" as="geometry" />
        </mxCell>
        <mxCell id="ZYCGAZ8yHAl8d9Dci6E2-18" value="Hugging Face&#xa;(ML Model Repository)" style="rounded=1;whiteSpace=wrap;html=1;fillColor=#e6f7ff;strokeColor=#6f7780;" parent="1" vertex="1">
          <mxGeometry x="1060" y="751" width="180" height="80" as="geometry" />
        </mxCell>
        <mxCell id="ZYCGAZ8yHAl8d9Dci6E2-19" style="edgeStyle=orthogonalEdgeStyle;rounded=0;orthogonalLoop=1;jettySize=auto;html=1;entryX=0.5;entryY=0;entryDx=0;entryDy=0;" parent="1" source="ZYCGAZ8yHAl8d9Dci6E2-1" target="ZYCGAZ8yHAl8d9Dci6E2-2" edge="1">
          <mxGeometry relative="1" as="geometry" />
        </mxCell>
        <mxCell id="ZYCGAZ8yHAl8d9Dci6E2-20" style="edgeStyle=orthogonalEdgeStyle;rounded=0;orthogonalLoop=1;jettySize=auto;html=1;entryX=0.5;entryY=0;entryDx=0;entryDy=0;" parent="1" source="ZYCGAZ8yHAl8d9Dci6E2-2" target="ZYCGAZ8yHAl8d9Dci6E2-4" edge="1">
          <mxGeometry relative="1" as="geometry" />
        </mxCell>
        <mxCell id="ZYCGAZ8yHAl8d9Dci6E2-21" style="edgeStyle=orthogonalEdgeStyle;rounded=0;orthogonalLoop=1;jettySize=auto;html=1;entryX=0.5;entryY=0;entryDx=0;entryDy=0;" parent="1" source="ZYCGAZ8yHAl8d9Dci6E2-4" target="ZYCGAZ8yHAl8d9Dci6E2-6" edge="1">
          <mxGeometry relative="1" as="geometry" />
        </mxCell>
        <mxCell id="ZYCGAZ8yHAl8d9Dci6E2-22" style="edgeStyle=orthogonalEdgeStyle;rounded=0;orthogonalLoop=1;jettySize=auto;html=1;entryX=0.5;entryY=0;entryDx=0;entryDy=0;" parent="1" source="ZYCGAZ8yHAl8d9Dci6E2-4" target="ZYCGAZ8yHAl8d9Dci6E2-8" edge="1">
          <mxGeometry relative="1" as="geometry" />
        </mxCell>
        <mxCell id="ZYCGAZ8yHAl8d9Dci6E2-23" style="edgeStyle=orthogonalEdgeStyle;rounded=0;orthogonalLoop=1;jettySize=auto;html=1;entryX=0.5;entryY=0;entryDx=0;entryDy=0;" parent="1" source="ZYCGAZ8yHAl8d9Dci6E2-4" target="ZYCGAZ8yHAl8d9Dci6E2-10" edge="1">
          <mxGeometry relative="1" as="geometry" />
        </mxCell>
        <mxCell id="ZYCGAZ8yHAl8d9Dci6E2-24" style="edgeStyle=orthogonalEdgeStyle;rounded=0;orthogonalLoop=1;jettySize=auto;html=1;entryX=0;entryY=0.5;entryDx=0;entryDy=0;" parent="1" source="ZYCGAZ8yHAl8d9Dci6E2-10" target="ZYCGAZ8yHAl8d9Dci6E2-11" edge="1">
          <mxGeometry relative="1" as="geometry" />
        </mxCell>
        <mxCell id="ZYCGAZ8yHAl8d9Dci6E2-25" style="edgeStyle=orthogonalEdgeStyle;rounded=0;orthogonalLoop=1;jettySize=auto;html=1;entryX=0;entryY=0.5;entryDx=0;entryDy=0;" parent="1" source="ZYCGAZ8yHAl8d9Dci6E2-11" target="ZYCGAZ8yHAl8d9Dci6E2-12" edge="1">
          <mxGeometry relative="1" as="geometry" />
        </mxCell>
        <mxCell id="ZYCGAZ8yHAl8d9Dci6E2-26" style="edgeStyle=orthogonalEdgeStyle;rounded=0;orthogonalLoop=1;jettySize=auto;html=1;entryX=0.5;entryY=0;entryDx=0;entryDy=0;" parent="1" source="ZYCGAZ8yHAl8d9Dci6E2-10" target="ZYCGAZ8yHAl8d9Dci6E2-14" edge="1">
          <mxGeometry relative="1" as="geometry" />
        </mxCell>
        <mxCell id="ZYCGAZ8yHAl8d9Dci6E2-27" style="edgeStyle=orthogonalEdgeStyle;rounded=0;orthogonalLoop=1;jettySize=auto;html=1;entryX=0.5;entryY=0;entryDx=0;entryDy=0;" parent="1" source="ZYCGAZ8yHAl8d9Dci6E2-10" target="ZYCGAZ8yHAl8d9Dci6E2-15" edge="1">
          <mxGeometry relative="1" as="geometry">
            <Array as="points">
              <mxPoint x="695" y="590" />
              <mxPoint x="695" y="590" />
            </Array>
          </mxGeometry>
        </mxCell>
        <mxCell id="ZYCGAZ8yHAl8d9Dci6E2-28" style="edgeStyle=orthogonalEdgeStyle;rounded=0;orthogonalLoop=1;jettySize=auto;html=1;entryX=0.5;entryY=0;entryDx=0;entryDy=0;" parent="1" source="ZYCGAZ8yHAl8d9Dci6E2-12" target="ZYCGAZ8yHAl8d9Dci6E2-17" edge="1">
          <mxGeometry relative="1" as="geometry" />
        </mxCell>
        <mxCell id="ZYCGAZ8yHAl8d9Dci6E2-29" style="edgeStyle=orthogonalEdgeStyle;rounded=0;orthogonalLoop=1;jettySize=auto;html=1;entryX=0.5;entryY=0;entryDx=0;entryDy=0;" parent="1" source="ZYCGAZ8yHAl8d9Dci6E2-11" target="ZYCGAZ8yHAl8d9Dci6E2-18" edge="1">
          <mxGeometry relative="1" as="geometry">
            <Array as="points">
              <mxPoint x="1150" y="520" />
            </Array>
          </mxGeometry>
        </mxCell>
        <mxCell id="ZYCGAZ8yHAl8d9Dci6E2-30" style="edgeStyle=orthogonalEdgeStyle;rounded=0;orthogonalLoop=1;jettySize=auto;html=1;entryX=0;entryY=0.5;entryDx=0;entryDy=0;dashed=1;" parent="1" source="ZYCGAZ8yHAl8d9Dci6E2-8" target="ZYCGAZ8yHAl8d9Dci6E2-14" edge="1">
          <mxGeometry relative="1" as="geometry" />
        </mxCell>
        <mxCell id="ZYCGAZ8yHAl8d9Dci6E2-31" value="HTTP Requests" style="text;html=1;strokeColor=none;fillColor=none;align=center;verticalAlign=middle;whiteSpace=wrap;rounded=0;fontSize=10;" parent="1" vertex="1">
          <mxGeometry x="547" y="200" width="80" height="20" as="geometry" />
        </mxCell>
        <mxCell id="ZYCGAZ8yHAl8d9Dci6E2-32" value="Auth &amp; Authorization" style="text;html=1;strokeColor=none;fillColor=none;align=center;verticalAlign=middle;whiteSpace=wrap;rounded=0;fontSize=10;" parent="1" vertex="1">
          <mxGeometry x="380" y="440" width="100" height="20" as="geometry" />
        </mxCell>
        <mxCell id="ZYCGAZ8yHAl8d9Dci6E2-33" value="Sentiment Analysis" style="text;html=1;strokeColor=none;fillColor=none;align=center;verticalAlign=middle;whiteSpace=wrap;rounded=0;fontSize=10;" parent="1" vertex="1">
          <mxGeometry x="780" y="440" width="100" height="20" as="geometry" />
        </mxCell>
        <mxCell id="ZYCGAZ8yHAl8d9Dci6E2-34" value="Web Scraping" style="text;html=1;strokeColor=none;fillColor=none;align=center;verticalAlign=middle;whiteSpace=wrap;rounded=0;fontSize=10;" parent="1" vertex="1">
          <mxGeometry x="970" y="440" width="80" height="20" as="geometry" />
        </mxCell>
        <mxCell id="ZYCGAZ8yHAl8d9Dci6E2-35" value="Data Persistence" style="text;html=1;strokeColor=none;fillColor=none;align=center;verticalAlign=middle;whiteSpace=wrap;rounded=0;fontSize=10;" parent="1" vertex="1">
          <mxGeometry x="320" y="730" width="100" height="20" as="geometry" />
        </mxCell>
        <mxCell id="ZYCGAZ8yHAl8d9Dci6E2-36" value="Caching" style="text;html=1;strokeColor=none;fillColor=none;align=center;verticalAlign=middle;whiteSpace=wrap;rounded=0;fontSize=10;" parent="1" vertex="1">
          <mxGeometry x="575" y="727.5" width="60" height="20" as="geometry" />
        </mxCell>
        <mxCell id="ZYCGAZ8yHAl8d9Dci6E2-39" value="" style="image;aspect=fixed;html=1;points=[];align=center;fontSize=12;image=img/lib/azure2/databases/Azure_Database_PostgreSQL_Server.svg;" parent="1" vertex="1">
          <mxGeometry x="320" y="755.5" width="48" height="64" as="geometry" />
        </mxCell>
        <mxCell id="ZYCGAZ8yHAl8d9Dci6E2-40" value="" style="image;sketch=0;aspect=fixed;html=1;points=[];align=center;fontSize=12;image=img/lib/mscae/Cache_Redis_Product.svg;" parent="1" vertex="1">
          <mxGeometry x="575" y="766.5" width="50" height="42" as="geometry" />
        </mxCell>
        <mxCell id="ZYCGAZ8yHAl8d9Dci6E2-41" value="" style="image;aspect=fixed;html=1;points=[];align=center;fontSize=12;image=img/lib/azure2/compute/Azure_Spring_Cloud.svg;" parent="1" vertex="1">
          <mxGeometry x="489" y="300" width="58" height="58" as="geometry" />
        </mxCell>
        <mxCell id="UT0VLJzFDOpIuryW0pFi-2" value="" style="shape=image;verticalLabelPosition=bottom;labelBackgroundColor=default;verticalAlign=top;aspect=fixed;imageAspect=0;image=data:image/png,iVBORw0KGgoAAAANSUhEUgAABVUAAAVVCAYAAAAbmiu/AAAACXBIWXMAAAsTAAALEwEAmpwYAAAgAElEQVR4nOzdedTnZUH38ffMMOwIEgqSsqm4kuIuGrjnhkv6uGtW5lappfY8abY8ZsujmVZaVpqmlZqauAsqoLiguOESWpp7ginmBsr2/PEdYkCWWe77vn7L63XO79yD53jOmxkYZj5zfa/vugAAWDY7V7tu+uyy6evO1YZqXbV+02fdFXytuqA6rzp/s6/nr9H/dv6Kfq8AAMAWWjc6AACA7bKu2rvar9p3s88l/3rf6spNI+oi/RrwwqH1vOqc6kebPivx7W39//2wOrs6a9PnB5u+nrdK3wcAAKyxRfoFNQDAIvmJLj6MXtZoepVq46BGts45XTSwnnUp3/5e9e3L+JxZnV59qWm4BQBgIKMqAMDa2qX6yU2f/Tf79uZ/fbVqp1GBzLTzq/+svlh94RKfL276/HBIGQDAEjGqAgCsnH2qA7v0ofTCz17D6lgGF1Rf7+JD6xcu8ddnjwgDAFgkRlUAgC23Y3Vwdchmn4M3+3qlcWmwRS6ozqg+X/1b9dlLfP3+uDQAgPlhVAUAuLh9u/houvln/y566z0soq/140PrZ6vP5S5XAID/YVQFAJbRLtV1q+tt9rlO02nT3QZ2waw6r+klWZccWz/bdK3A+cPKAAAGMKoCAItsr+r6XXw8vV7TvadOnMLKOKs6rfrkps+nNn394sgoAIDVZFQFABbB1bpoMN18RN1vZBQsue9Un+6ikfXCz9dHRgEArASjKgAwTzY2jaaHb/rcuPqpphOpwHz4ZhcfWj9VfaI6c2QUAMDWMKoCALNqj+pGXTSeHl7doNpxZBSwar5afbT6cPWRTZ+vDC0CALgMRlUAYBbs18VPnx5eXTO/VoFld0bT0PqRzT6fH1oEAJDfqAAAa2/f6tbVzaubNA2o+w4tAubJmf340PrZ6oKRUQDAcjGqAgCracem4fRWm30OHFoELKLvVh9vGlg/WL0/J1oBgFVkVAUAVtJBXXxAvXG108ggYGmd0TSuXvg5pfrB0CIAYGEYVQGAbbVbdYum8fSWmz77DS0CuGznNp1m3Xxo/Y+hRQDA3DKqAgBb6mrVUdWR1W2qG1QbhhYBbJ/T+/HTrGcNLQIA5oJRFQC4LD9Z3a5pSD2qOnRoDcDqO6fpNOv7qndXJ1TfHBkEAMwmoyoAcKFrdNGIervqmiNjAGbABdUnm8bV46sTq2+NDAIAZoNRFQCW10Fd/CTqwSNjAObABdUnmgbWE5pG1jNHBgEAYxhVAWB5HFDdqYtG1APH5gDMvfOrU5sG1hOaRtZvD+wBANaIURUAFtduTSdR71L9THWdoTUAi+/8pjtZT2g6zXp89b2RQQDA6jCqAsDiWFfdqGlAvUt122rHoUUAy+2cppdeva16e/WxpisEAIA5Z1QFgPl21S46iXrnat+xOQBcjtOrY5tG1mOr/xqbAwBsK6MqAMyXHavbdNFp1Bvnv+cA8+j86iNNJ1jfVn2gOndoEQCwxfwmDABm3wHV0dXdmu5I3W1oDQCr4b+rd3bRyPqlsTkAwOUxqgLAbLppde/qXk33pAKwXE6r3lq9oXpPdd7YHABgc0ZVAJgNO1Z3aBpRj66uPjYHgBnyzerN1TFNJ1m/PzYHADCqAsA4e1f3aBpSf6baY2wOAHPg7KZrAo5pOsV6+tgcAFhORlUAWFuHND3Wf++mF07tMDYHgDl2QXVy08D6+qYrAwCANWBUBYDVta66RRfdj3qDsTkALLDPNg2sx1Tvr84fmwMAi8uoCgArb111y+oB1f2ra4zNAWAJnVG9qXptdVx1ztgcAFgsRlUAWDmbD6kHDG4BgAt9s3pd9arqhOq8oTUAsACMqgCwfW7eRUPqQWNTAOAKnV69pnpl9d6me1kBgK1kVAWArXfTpiH1f1UHD24BgG31lerVTSdYPzi4BQDmilEVALbMTbpoSD1kcAsArLTPNw2sr6w+PrgFAGaeURUALtsNqwc3janXGtwCAGvltKbTq6/c9G0A4BKMqgBwcftWD6keUd14cAsAjHZq07j6qqbTrABARlUAqNq5uk/18Oou1Q5jcwBgJn2oaVx9VdN9rACwtIyqACyrddWRTUPq/as9x+YAwNy4oHpv9Yrqn6rvjM0BgLVnVAVg2Vy76dH+h1UHjU0BgLn3g+p11YurE5sGVwBYeEZVAJbB3tWDmsbUWw5uAYBF9bnqpZs+rgcAYKEZVQFYVBurezYNqXevdhybAwBL4/zquOol1eurH43NAYCVZ1QFYNFcu/ql6ueqqw5uAYBl983qH5uuB/j44BYAWDFGVQAWwU7V/ZrG1NuNTQEALsNHm06v/kN15uAWANguRlUA5tn1m4bUh1c/MbgFANgyP2y6FuDF1TubrgsAgLliVAVg3uxSPbBpTD1icAsAsH2+WL2s+rvqC2NTAGDLGVUBmBc3qh5dPbTac3ALALCyLqiOb7oe4LXV2WNzAODyGVUBmGW7Vw9uOpV688EtAMDaOLPp5OoLqs8PbgGAS2VUBWAW3bh6fNOguvvgFgBgjPOrt1R/UR3bdJoVAGaCURWAWbFDdd/qCdVtB7cAALPlM9ULq5dW3xmbAgBGVQDG26fprtTHVVcf3AIAzLbvVn/fdHr1tMEtACwxoyoAo9yk6VTqg6qdBrcAAPPnHdWfV29quioAANaMURWAtbRDdb+mMfWIwS0AwGL4QtPVAC+uvjU2BYBlYVQFYC1ctXpM9dhq/8EtAMBiOqv6x6bTqx8f3ALAgjOqArCabtZ0KvUBecQfAFg7JzWNq6+rzh3cAsACMqoCsNJ2qO5fPbG61eAWAGC5fa36q+qvq9MHtwCwQIyqAKyU3apHVb9WHTi4BQBgcz+qXl09J1cDALACjKoAbK+rNj3i/7hq78EtAABX5G3VH1cnDO4AYI4ZVQHYVteunlI9otp5cAsAwNY6uWlcfX11weAWAOaMURWArXXL6n9X967WD24BANhen6meXb286ZoAALhCRlUAtsS66p7VU6ufHtwCALAavlo9r3pR9d3BLQDMOKMqAJdnx+qhTY/5X39wCwDAWvh29cLq+dUZg1sAmFFGVQAuzZ7VY6onVvsPbgEAGOHs6u+q51SfH9wCwIwxqgKwuX2qJ1ePr640uAUAYBacV72m+qPqY4NbAJgRRlUAqvZtui/1sdVug1sAAGbVsU3j6vGjQwAYy6gKsNz2r36jenS1y+AWAIB58aHqj6t/qc4f3ALAAEZVgOV0jer/VL9Y7TS4BQBgXn22aVz9++rcwS0ArCGjKsByOaj6zeqR1Y5DSwAAFsfnqmdWr2i6gxWABWdUBVgO16yeXj282mFwCwDAovpM9XvVq3ItAMBCM6oCLLZDq9+qHlJtGNwCALAsPlX9bvXa6oKxKQCsBqMqwGK6ftOY+sBq/eAWAIBl9bGmcfWYwR0ArDCjKsBiObT6v9UD8nM8AMCsOKX6neoto0MAWBl+ww2wGK7RdAri5/KYPwDArHp/07h63OgQALaPURVgvl2l6QVUj612GtwCAMCWeXf129WJo0MA2DZGVYD5tGf1lOpJ1e6DWwAA2DbvrJ7RdIIVgDliVAWYL7tUT6h+o9p7cAsAACvjbU0nVz80OgSALWNUBZgPG6tfqn6rutrgFgAAVscbm8bVj40OAeDyGVUBZtv66qFNL6E6ZGwKAABr4ILqddXTqs8ObgHgMhhVAWbXfatnVjcYHQIAwJo7t3pR9XvVNwa3AHAJRlWA2XOH6g+rW4wOAQBguO9Uf1T9aXX24BYANjGqAsyO61bPru45OgQAgJnzpab79V/RdEUAAAMZVQHG26fpsa5HVzsMbgEAYLZ9uHpKdcLgDoClZlQFGGen6olNLyHYc3ALAADz5U3VU6vTRocALCOjKsAYD2y6G+ugwR0AAMyvc6u/rX6nOmNwC8BSMaoCrK1bV3+y6SsAAKyE71Z/XD23OmtwC8BSMKoCrI2Dmn6h+4DBHQAALK6vVM+o/r46f3ALwEIzqgKsrj2rp1dPaLpDFQAAVtvHml5m9c7RIQCLyqgKsDp2qB5T/W61z9gUAACW1FubXmb1qdEhAIvGqAqw8u7WdJ/VdUeHAACw9M6rXlL9dvX1wS0AC8OoCrByDqmeX91zdAgAAFzC96rfq55XnTu4BWDuGVUBtt8u1dOa7q3aeXALAABcnk9Vv1ydODoEYJ4ZVQG2z882Pep/4OgQAADYCv9YPTlXAgBsk/WjAwDm1HWqt1evzaAKAMD8eUj1mepJ1YbBLQBzx0lVgK2ze9Ml/0+qNg5uAQCAlXBq05UAJ40OAZgXRlWALfeQ6tnV/qNDAABgFby8emp1+ugQgFlnVAW4YodVf1EdOToEAABW2X9Xz6heWJ03uAVgZhlVAS7bntUzq8fnnikAAJbLx5t+Hfy+0SEAs8hIAPDj1lU/Xx1T3SEv9QMAYPnsV/1CdVDTsPqDoTUAM8ZJVYCLu27119VPjw4BAIAZ8e3qt6q/rM4f3AIwE4yqAJOdqqdV/6facXALAADMoo9Uv1x9YHQIwGhGVYA6qnpRdZ3RIQAAMOMuqF7SdBjhvwa3AAzjnkBgme1dvbg6PoMqAABsiXXVL1afabpzFWApOakKLKuHVH9aXXV0CAAAzLHjqkdXXxjcAbCmnFQFls0h1duqf8igCgAA2+vO1SerJ2RjAJaIk6rAstihenL1O9Uug1sAAGARva/paoDTRocArLYNowMA1sAtqjdWD6s2Dm4BAIBFdY3ql5peZvX+6vyxOQCrx0lVYJHtUf1B9fg8igQAAGvpY00vsvro6BCA1eCkKrCojq7eUt0pf4AEAABrbb+mqwB2rd5bnTs2B2BlGRqARXPl6s+aHvUHAADG+0z1qOqk0SEAK8VJVWCRHF29tbrN6BAAAOB/7FP9fHWV6t3Vj8bmAGw/J1WBRXDl6vnVw0eHAAAAl+uL1aOrY0eHAGwPJ1WBeXfPptOptx0dAgAAXKG9mg5DHFydWJ09Ngdg23gbNjCv9qpeVr2x2n9wCwAAsHV+rvrX6n6jQwC2hcf/gXl0j+qvM6YCAMAieF31y9XXR4cAbCknVYF5slf10upNGVQBAGBR/Gz16epBo0MAtpQ7VYF5cffqbdVPjw4BAABW3C7V/atDq3flrlVgxnn8H5h1e1V/Wj1ycAcAALA2vlw9ojphcAfAZXJSFZhld206nXrk6BAAAGDN7Nk0qu5RnVidNzYH4Mc5qQrMop2r5zRdVg8AACyvU6uHVp8cHQKwOSdVgVlzo+rY6h6jQwAAgOH2rX6x+kH1gcEtAP9j/egAgE3WVU+pPlhdf3ALAAAwO3aq/qR6R3X1wS0Alcf/gdnwk9XLqjuODgEAAGbamdXjq1eODgGWm8f/gdHuX72lusHoEAAAYObt0vR7iEOrd1Vnj80BlpWTqsAoe1R/Vj1ycAcAADCfvlz9XHX86BBg+TipCoxw66aXUd1+dAgAADC39qwe0XRg44TqvKE1wFJxUhVYSxuqZ1S/lT/UAQAAVs6p1UOrT44OAZaDUQNYK4dUb6oeVq0f3AIAACyWfatfrH5QfWBwC7AEnFQF1sIjm+5P3WNwBwAAsPje1XTX6ldGhwCLy6gKrKY9qr+pHjg6BAAAWCrfbLpv9S2jQ4DF5PF/YLXcpHpHdeToEAAAYOnsWj2k2qXpJVbnD60BFo6TqsBq+JXqOdVOo0MAAICld1L1oOqro0OAxWFUBVbSntWLq/uNDgEAANjMN6qHV28fHQIsBo//Ayvl5k2P+x8xOgQAAOASdqseWm2sTqwuGJsDzDsnVYGV8GvVHzf9AgUAAGCWndB03+p/Du4A5phRFdgeV65eWt1rcAcAAMDWOKPp5Oo7RocA88nj/8C2unXTL0BuMToEAABgK+1WPaxpF3l3rgMAtpKTqsDWWlc9tXpWtcPgFgAAgO31rqbrAE4fHQLMD6MqsDX2qV5W3X10CAAAwAr6etOwevzoEGA+ePwf2FK3bXrc/6ajQwAAAFbY7k3XAVxQnZTrAIAr4KQqsCWeXP1RHvcHAAAW33FNL7H6xugQYHYZVYHLs1v14uqBo0MAAADW0NeqBze9xArgx3j8H7gs12p63P8Oo0MAAADW2B7VI6pzqvcObgFmkJOqwKW5Z/WKas/RIQAAAIO9qek6gO+MDgFmx/rRAcBMWVf9XvWGDKoAAAA1HTo5uTp0dAgwO5xUBS60V9Pp1HuMDgEAAJhB/109pHrL6BBgPHeqAlWHVe+qbjk6BAAAYEbt3PTyqnOqkwa3AIMZVYEHNz3uv+/oEAAAgBm3rrpjdf2mE6vnjM0BRvH4PyyvHapnV08aHQIAADCHPl7dp/rC4A5gAKMqLKerVq+ujhodAgAAMMf+q3pAdfzoEGBtefwfls8tm+5PPWx0CAAAwJzbtXpo00usTh7cAqwhoyosl1+oXltdeXQIAADAglhf3a06qHpbdd7QGmBNePwflsP6pvtTf310CAAAwAI7ufrZ6mujQ4DVZVSFxXel6p+qu48OAQAAWAL/Wd2vev/oEGD1ePwfFtsh1TurI0aHAAAALIk9qoc3jasfHdwCrBKjKiyuI6vjqgNHhwAAACyZDdW9qqtUx1bnj80BVprH/2Ex/WL1l9XG0SEAAABL7sTqf1XfGB0CrJz1owOAFbW+em71txlUAQAAZsFR1SnV4aNDgJXjpCosjitVr6zuNjoEAACAH/P96sHVG0eHANvPnaqwGLyQCgAAYLbtWD2w+lb1wcEtwHYyqsL8O7J6R15IBQAAMOvWVXev9mp6sfAFY3OAbWVUhfn2qOpV1e6jQwAAANhit6p+qnpDde7gFmAbuFMV5tOG6jnVk0aHAAAAsM0+WB1dnTE6BNg6RlWYP7s2vZDq6NEhAAAAbLf/aLoS4LTRIcCWM6rCfLlq9abq5qNDAAAAWDFnVj9bnTC4A9hC7lSF+XFodXx1w9EhAAAArKhdqodUX6hOHZsCbAmjKsyHI6p3VD85OgQAAIBVsaHptOoF1YmDW4ArYFSF2fez1THVlUaHAAAAsOpuXx1UvaU6f2wKcFnWjw4ALtcTq3+udh4dAgAAwJp5ZPXWas/BHcBl8KIqmE3rqj+pfm10CAAAAMN8qrp79aXRIcDFGVVh9uxcvby6/+gQAAAAhvt6dc/qw6NDgIsYVWG27F29obrN6BAAAABmxverB1VvGh0CTLyoCmbHwdXx1eGjQwAAAJgpO1YPrL5VfXBwC5BRFWbFzap3VQeODgEAAGAmrW+6X3WP6rjBLbD0jKow3j2qN1dXHh0CAADAzDuiOqDpKoALBrfA0jKqwliPrP6p2mlwBwAAAPPj8Oqw6vXVeYNbYCmtHx0AS+zXq5fkDzcAAADYevdteupx99EhsIzWjQ6AJfWs6mmjIwAAAJh7H6zu1vQSK2CNGFVhba2vXlA9dnQIAAAAC+NT1V2qr40OgWVhVIW1s7F6efXA0SEAAAAsnC9Ud6o+N7gDloJRFdbGrtVrq7uODgEAAGBhfb36merU0SGw6IyqsPr2aro8/IjRIQAAACy8b1f3qN43OgQW2frRAbDg9qvenUEVAACAtbFXdVzTiVVglRhVYfUcUr23Omx0CAAAAEtl1+qN1QNGh8Ci2jA6ABbUDavjqwNGhwAAALCUNlT3a7pn9cODW2DhGFVh5d26ekd1ldEhAAAALLV11dHVD6uTBrfAQjGqwsq6S9NLqa40OgQAAAA2uVPTlQDvGB0Ci8KoCivn/tVrql1GhwAAAMAl3Ka6etNBoAsGt8DcM6rCynhI9Q/VxtEhAAAAcBluUt2gOqY6b3ALzLV1owNgATyi+rtq/egQAAAA2ALHVvepzhodAvPKCATb51EZVAEAAJgvd6nekOvrYJsZgmDbPa766/x7BAAAwPy5U/XGDKuwTYxBsG2eWL0wV2gAAAAwv+5YvanadXQIzBujKmy9p1TPGx0BAAAAK+AOGVZhqxlVYes8rXr26AgAAABYQbev3lLtNjoE5oVRFbbc71bPGh0BAAAAq+CoDKuwxdwHCVvmWU2nVAEAAGCRvbu6e/X90SEwy4yqcMWe3XSPKgAAACyD9zQNq98bHQKzyqgKl+/51RNGRwAAAMAaO6m6W4ZVuFRGVbh066oXVI8bHQIAAACDvLdpWP3u6BCYNUZV+HHrqr+qHj06BAAAAAZ7X3XXDKtwMetHB8AM+rMMqgAAAFB1RPX26kqjQ2CWGFXh4p5T/croCAAAAJght86wChdjVIWL/H715NERAAAAMINuVR1b7Tk6BGaBURUmz6iePjoCAAAAZtgtM6xC5UVVUPXU6v+NjgAAAIA58aHqLtW3R4fAKEZVlt0TquePjgAAAIA5c3J1p+p7o0NgBKMqy+wx1V+NjgAAAIA59c7qHtUPR4fAWnOnKsvqkdVfjo4AAACAOXbH6pXVDqNDYK1tGB0AAzy4eln+UAEAAAC213Wrg6vXjw6BtWRUZdncr/qH/LMPAAAAK+VG1T7VW0aHwFoxLLFMjq5eXW0cHQIAAAAL5hbVjtW7RofAWjCqsix+pnpd00/wAAAAwMr76eoH1ftGh8BqM6qyDI6q3ljtPDoEAAAAFtydq69VHxkdAqvJqMqiO7x6e7X76BAAAABYEveoPlN9anQIrJZ1owNgFV27Oqm66ugQAAAAWDLnVPfJy6tYUEZVFtX+TXe4HDg6BAAAAJbUWdXdqhNHh8BKM6qyiK5cvae6wegQAAAAWHLfre5QnTI6BFbS+tEBsMJ2rd6cQRUAAABmwR7V26rrjw6BlWRUZZFsrF5b3Xp0CAAAAPA/fqI6rjp4dAisFKMqi2Jd9dLqroM7AAAAgB+3f9OwerXRIbASjKosiudXDxkdAQAAAFyma1bHVnuPDoHtZVRlEfx29aujIwAAAIArdMOmO1b3GB0C22Pd6ADYTo+rXjg6AgAAANgq76zuVp0zOgS2xYbRAbAdHli9OH84AAAAAPPmkOrA6vWjQ2BbGFWZV3ep/rnaYXQIAAAAsE1u1PT7+uNHh8DWMqoyj25ZvaXaZXQIAAAAsF2OrL5afWR0CGwNj00zb65Vvb/aZ3QIAAAAsCLOrY5ueoEVzAWjKvNkn6ZB9VqjQwAAAIAV9b2mU6sfHR0CW2L96ADYQjtXb8igCgAAAIto9+rNTS+vgplnVGUerKteXt16dAgAAACwaq7W9A6VvUaHwBUxqjIP/l91/9ERAAAAwKq7fvUv1Y6jQ+DybBgdAFfg8dWzRkcAAAAAa+agpuv/Xje4Ay6TUZVZds/qZTlRDQAAAMvmsKb3q7xjdAhcGqMqs+qmTRdU7zQ6BAAAABjittXp1SmjQ+CS1o0OgEtxYPWBar/RIQAAAMBQ51X3qd40OgQ2Z1Rl1uxVvbfpYmoAAACA71e3y4lVZoi7KpklOzZdQm1QBQAAAC60W9NJ1YNHh8CFjKrMkr+tbj86AgAAAJg5+1ZvrfYeHQJlVGV2/N/q4aMjAAAAgJl1neqYvNSaGbBhdABUP189d3QEAAAAMPMOaBpXXzM6hOVmVGW0o6pX559FAAAAYMvcoGlHOH50CMvLkMVIB1fHVXuMDgEAAADmypHVpzd9YM2tGx3A0tq9el912OgQAAAAYC79oLpN9bHRISwfL6pihHXVKzKoAgAAANtu16YXV11ldAjLx6jKCL9f3Xt0BAAAADD3DqheW20cHcJycacqa+3B1fNGRwAAAAAL48Bq3+pNo0NYHkZV1tLNqtfnT48AAACAlXXT6hvVh0aHsBy8qIq1crWmn9h+cnQIAAAAsJDOre5cnTC4gyVgVGUt7Nz0E9otB3cAAAAAi+2/qltU/zE6hMXmRVWshb/JoAoAAACsvn2qY6rdR4ew2IyqrLbfqB42OgIAAABYGodVf58ntFlFXlTFarpn9bf5SQwAAABYW9fb9PWEkREsLqMqq+X61Vub7lMFAAAAWGtHVZ+o/nV0CIvHCUJWw97VB6trjg4BAAAAltr3qyOqU0eHsFjcqcpKW1+9KoMqAAAAMN5uTS+u2md0CIvFqMpK+/3qTqMjAAAAADY5qHpNtXFwBwvEnaqspHtVf5FrJQAAAIDZclDTadU3D+5gQRhVWSnXyoupAAAAgNl18+r06pTRIcw/JwpZCbtW769+anQIAAAAwOU4pzqqaceAbeZOVVbCizKoAgAAALNvY9MLtr24iu1iVGV7/XL1sNERAAAAAFvoGtUrsouxHdypyva4VfXK/HMEAAAAzJdrVedV7x4dwnxypyrb6irVR6qrjw4BAAAA2AbnV3ep3jk6hPljVGVbbKiOre4wOgQAAABgO5xRHV59bXQI88XdEWyLZ2VQBQAAAObfVZteXLXD6BDmi7sw2Vr3rf58dAQAAADACjmg2qU6bnQI88Pj/2yNQ6sPVVcaHQIAAACwgi6o7lO9YXQI88GoypbarfpAdcPRIQAAAACr4NvVTar/GB3C7HOnKlvqrzOoAgAAAItrr+o11U6jQ5h97lRlSzyqevroCAAAAIBVdrVqn+rNo0OYbUZVrsj1q3+pNo4OAQAAAFgDN6v+vfrE6BBmlztVuTy7VB/MY/8AAADAcvl+dYvq06NDmE3uVOXyPC+DKgAAALB8dmu6X3W30SHMJqMql+UB1aNHRwAAAAAMcr3qRaMjmE3uVOXSHNx0IfPOo0MAAAAABvqp6vTqlNEhzBZ3qnJJG6uTmu4NAQAAAFh2P6xuU314dAizw+P/XNIfZFAFAAAAuNBO1T9Xe40OYXZ4/J/N3bV6QU4wAwAAAGzuyk3XJb5mdAizwajKha5WHZu32gEAAABcmhtW/1F9fHQI4zmRSE3XQBxX3WF0CAAAAMAM+251o6ZxlSXmTlWqnpZBFQAAAOCK7FG9Ik9/Lz3/AHDb6qUZ2AEAAAC2xDWq86sTR4cwjsf/l9ve1ceafjIAAAAAYMuc13RQ7QOjQzPK/z0AACAASURBVBjD6cTl9pIMqgAAAABba0P1D03XAbCEjKrL61HVvUdHAAAAAMypQ6o/Hx3BGO5UXU6HVK+vdhwdAgAAADDHblx9etOHJeJO1eWzoXp3dcToEAAAAIAFcGb1U9VXRoewdjz+v3z+dwZVAAAAgJVy5erl2dmWisf/l8vhTZco+3EHAAAAWDkHVT+o3ju4gzXi8f/lsXN1SnWD0SEAAAAAC+hH1a2rj4wOYfU5lrw8/jCDKgAAAMBq2bHpCeFdRoew+jwGvhzuUL0wJ5MBAAAAVtM+1U9Ubx4dwuoyqi6+PatjN30FAAAAYHXdrOkKgM+ODmH1ePx/8b2gusboCAAAAIAl8uJq39ERrB6j6mJ7QPXQ0REAAAAAS+Yq1UtzFePC8vj/4tq/6f4OlyMDAAAArL1rVd+qTh4dwsqzli+mddXbqruMDgEAAABYYmdXN8r9qgvH4/+L6fEZVAEAAABG27l6STa4hePx/8Vzneo11cbRIQAAAAB0QK4BWDge/18sO1Tvq24+OgQAAACA//GD6rDq86NDWBmOHi+Wp2dQBQAAAJg1u1Z/mwOOC8Pj/4vjsOoV+TEFAAAAmEUHV1+vThkdwvazji+GDdX7c0oVAAAAYJZ9t7ph9aXRIWwfj/8vhl/LoAoAAAAw6/ao/mZ0BNvPo+Lz79rVq6uNo0MAAAAAuELXrL5cfXR0CNvO4//zbV11QnXk4A4AAAAAttx/Vzeovjo6hG3j8f/59tgMqgAAAADzZs/qRaMj2HYe/59f16j+pdppdAgAAAAAW+3Q6vPVqaND2Hoe/59fb6nuNjoCAAAAgG32raZrAL4+OoSt4/H/+fTwDKoAAAAA827v6oWjI9h6Hv+fP/tWb6x2GR0CAAAAwHa7XnVa9anRIWw5j//Pn3+u7j86AgAAAIAV842mawC+MTqELePx//ly3wyqAAAAAIvmKtWfj45gy3n8f35cuenlVLuPDgEAAABgxd2wOrXpKgBmnJOq8+O51X6jIwAAAABYNS9senkVM86oOh/uUj1ydAQAAAAAq2q/6nmjI7hiXlQ1+3avPlkdODoEAAAAgDVxh+r40RFcNidVZ98fZFAFAAAAWCYvrDaOjuCyeVHVbLtp9Tc5UQwAAACwTPapzqpOGh3CpTPWza711cnVzUaHAAAAALDmzqquX31hcAeXwuP/s+uxGVQBAAAAltUu1Z+NjuDSOak6m/atTqv2Gh0CAAAAwFD3qY4ZHcHFOak6m56TQRUAAACAen616+gILs6LqmbPUdVzR0cAAAAAMBP2atrw3jk6hIt4/H+2bKw+1nQJMQAAAABUnVPdqPrX0SFMPP4/W56cQRUAAACAi9tYvXB0BBfx+P/sOKB6ddO/JAAAAACwuYOqz1WnDu4gj//PktdX9x4dAQAAAMDMOr26bvXt0SHLzuP/s+HoDKoAAAAAXL59q2eNjsBJ1VmwS/XppiPcAAAAAHB5zq9uWZ0yOmSZOak63m9lUAUAAABgy6yv/jK73lBeVDXWdauX58cBAAAAgC23f3VG9aHRIcvK4/9jvbO6w+gIAAAAAObOt5sO7J0+OmQZOSY8zkMyqAIAAACwbfaqnjM6Ylk5qTrGntVp1X6jQwAAAACYa7erThwdsWycVB3jdzKoAgAAALD9/rLaODpi2XhB0to7tHppvu8BAAAA2H5Xqb5ZnTw6ZJl4/H/tvbG65+gIAAAAABbGmdW1qm+NDlkWTkuurTtXzxwdAQAAAMBC2aXauXrb6JBl4aTq2tlQfay64egQAAAAABbOOU2702dHhywDL6paO4/OoAoAAADA6thYPXt0xLJwUnVt7Fn9e7XP6BAAAAAAFtodq3eNjlh0Tqqujd/OoAoAAADA6ntuNr9V50VVq+/a1cvyfQ0AAADA6tuv+nL10dEhi8zj/6vvmOpeoyMAAAAAWBpfbzro973RIYvK6cnVdcfqWaMjAAAAAFgqu1cX5G7VVeOk6urZ0HTM+rDRIQAAAAAsnbOr61RfGh2yiFxau3oelUEVAAAAgDF2rv5wdMSiclJ1dVyp+vfqKqNDAAAAAFhaF1S3rk4eHbJonFRdHc/IoAoAAADAWOuq546OWEReVLXyrln9fb5vAQAAABjvGtVp1adGhywSj/+vvH+p7jM6AgAAAAA2+WJ13aaXV7ECnKZcWber/mh0BAAAAABsZq/q+9VJo0MWhZOqK+uD1c1HRwAAAADAJXy3ulZ1xuiQReBFVSvnfhlUAQAAAJhNe1TPHB2xKJxUXRkbqk823U0BAAAAALPovOrw6hOjQ+adk6or45EZVAEAAACYbRuqZ4+OWAROqm6/nat/q64+OgQAAAAAtsCR1XtGR8wzJ1W3369kUAUAAABgfjxrdMC8c1J1++xZfb7ae3QIAAAAAGyFu1ZvHx0xr5xU3T5PzaAKAAAAwPz5/dEB82zD6IA5tm/1T9WOo0MAAAAAYCvtX51anTY6ZB45qbrtnlHtNjoCAAAAALbRM7MPbhMnVbfNwdVL8/0HAAAAwPy6avVv1SdGh8wbS/S2eWa1cXQEAAAAAGyn36t2GB0xb5y03Ho3ql5QrRsdAgAAAADbae/qq9WHR4fME8Pg1ntzdffREQAAAACwQr5SXav64eiQeeHx/63z0xlUAQAAAFgsV68eNzpinjipunVOqm4zOgIAAAAAVtgZ1SHV90eHzAMnVbfc0RlUAQAAAFhMV62eODpiXjipumXWVR+vDhsdAgAAAACr5NvVwZu+cjmcVN0y98+gCgAAAMBi26t6yuiIeeCk6hVzShUAAACAZfG9prtVvzE6ZJY5qXrF7ptBFQAAAIDlsHv1m6MjZp2Tqlfso9WNR0cAAAAAwBo5u7pW9dXRIbPKSdXLd68MqgAAAAAsl52rZ4yOmGVOql6+U6qbjo4AAAAAgDV2TnXd6vOjQ2aRk6qX7R4ZVAEAAABYThtzWvUyOal62U6ubjE6AgAAAAAGObfpbtUvjg6ZNU6qXrq7ZlAFAAAAYLntUD11dMQsclL10r2vuvXoCAAAAAAY7OzqoOr0wR0zxUnVH3enDKoAAAAAULVz9eujI2aNk6o/7j3VbUdHAAAAAMCM+G51QPXt0SGzwknVi7t9BlUAAAAA2Nwe1a+OjpglTqpe3PHV7UZHAAAAAMCM+WZ1YPX90SGzwEnVixyZQRUAAAAALs1PVI8ZHTErnFS9yDuqO46OAAAAAIAZ9bXq4OpHo0NGc1J1ckQGVQAAAAC4PPtXjxwdMQucVJ28rfqZ0REAAAAAMOM+V12nOm90yEhOqtbhGVQBAAAAYEtcs3rg6IjRjKr11NEBAAAAADBHfrMlfwJ+qf/mqwOrf692GB0CAAAAAHPkPtUxoyNGWfaTqr+WQRUAAAAAttZvjg4YaZlPqu5dfanabXQIAAAAAMyhO1XvHB0xwjKfVH1cBlUAAAAA2FZPGx0wyrKeVN2p+mK17+gQAAAAAJhjt6pOHh2x1pb1pOojMqgCAAAAwPZ6+uiAEZbxpOr66l+rQ0eHAAAAAMCcu6C6UfWJ0SFraRlPqt4rgyoAAAAArIR11f8ZHbHWlvGk6nurI0ZHAAAAAMCCOLc6qPrq4I41s2wnVY/IoAoAAAAAK2mH6vGjI9bSsp1UfX1179ERAAAAALBg/qs6oDprdMhaWKaTqtdpuk8VAAAAAFhZ+1QPHR2xVpZpVH1yy3cyFwAAAADWyhNHB6yVZRkZ962+WO00OgQAAAAAFtgdq3eNjlhty3JS9VczqAIAAADAanvS6IC1sAwnVXervlxdeXQIAAAAACy486tDq8+NDllNy3BS9ZEZVAEAAABgLaxvemp8oS3DSdV/ra47OgIAAGAbndt06mdLPhds+rqu6Te1F369vG+vz3VpAKys71RXr747OmS17DA6YJXdKYMqAAAwe75afbD6bPXv1ZlNv/H8zqavm3/7vDXo2VDtfonPHpu+7lMdVB1S3bS6XstxQAeAbXel6heq548OWS2L/h/C11f3Hh0BAABQnVH9VfVP1WmDW7bH3tVDq19pujMPAC7N55r+O3H+6JDVsMij6oFNP3gbRocAAABL7WPV86pXVj8c3LKS1lV3rp5WHTW4BYDZdK/qjaMjVsMiv6jqcRlUAQCAcc6oHlEdXr2sxRpUa7q/9djqdtV9W/C3PAOwTZ44OmC1LOpJ1Z2rLzfd/QMAALDW/rHp8fgzR4esoV2qP60eMzoEgJlyWPXJ0RErbVFPqj4ogyoAALD2flg9tunO0WUaVKvOavp7v9+mbwNALehp1UU9qXpK01spAQAA1sp/V0dX7xkdMgNu33SH3m6jQwAY7qzqGtU3R4espEU8qfr/2bvz+E3rul78L4YBBEFEJNFwQXGJcqks+1G5lfrLskxbjtkvZRMUjRQ1zFQERYEMzY1AUMzTqdPptJzqtJx2U4/7vqJi4c6SyCLDMr8/bgZnhpm57+/3vu7rfV3X5/l8PObhMPP9XveLW53PfF73+/pcPxSFKgAA0K+vZ3a2qEJ15h+TPCbJldVBACi3d5KnVYfo2hRL1WdWBwAAAJpyTZLHJvlgdZCB+bckP572jkEA4NZOSLKxOkSXplaqfkeSn68OAQAANOOmJE/K7Agybu09mU2sXlcdBIBS35nk56pDdGlqpeqxSfasDgEAADTjzCR/Xh1i4N6TiT6kBIA1mdRaMKUHVe2e5OIkhxTnAAAA2vDeJEckub46yEj8YZJfqA4BQKkfyETu7pjSpOrjo1AFAAD6cWOSo6JQXYsTk3yjOgQApY6tDtCVKZWqHlAFAAD05U1JPlIdYmS+kuSF1SEAKPWkJLetDtGFqdz+/91JPlodAgAAaMI1SQ5N8rXqICO0Z5KLkty1OggAZY5OckF1iGVNZVLVlCoAANCXN0ehul6bkpxRHQKAUpM4AmAKk6q3S/LFJPtWBwEAACbvpiT3SfLZ6iAjtm+SrybZpzoIAGXun5HfdT6FSdVfikIVAADoxz9Eobqsq5L8WXUIAEodUx1gWVOYVH1PkgdXhwBgtDYnuTqzDd5V2/38qiTXZjaVtPnmHzct+J/J7MPLDZmttxt28M8bk+yV5DZb/eeWn++d5A43/9h9Nf/qAKzDcUnOrQ4xAU9O8rbqEACUuTzJXZJcVx1kvTZWB1jSA6JQBWBxn0jyL0neleQzmU0afTXfLkGHaLckByS5480/Dk7yXUkOz+xBjffLrIQFYPU2J/mT6hAT4UxagLbdIckTk/x+dZD1GnupenR1AAAG7+rMFuo3JvlAcZb12JzZp7iXJ/n0Dn5/9yQ/mOSnb/5xeH/RAJpzRZKvV4eYiEurAwBQ7piMuFQd8+3/eyX5UmbNNgBs74okp2b2hOZvFGfp032T/EaSX840zk4HGJJPZ/bnLMu7a5J/rw4BQKnNmT388aLqIOsx5s3Wz0ahCsCO/V5mm95Xp61CNUk+leQpSb4nHgIC0LXLqgNMiIlfAHbLiB9YNeZS1a3/AGzvsiSPS/IrsVn7RJLHJzkhyabiLABTcXl1gAn5VmYPdwSgbU/JSI8nHWupeo8kP1YdAoBBeUeS703yF9VBBuYNSX4kySXVQQAm4JrqABMz2ic+A9CZgzMbjBmdsZaqR2bc58EC0K3zkzwsyX9UBxmo92T2/ihWAZajBOyW9xOAJDm2OsB6jLFU3ZBZqQoASfLSzM7huaE6yMB9LskjknyxOgjAiCkBu+V4GgCS5DGZPcBwVMZYqj4qI3yjAViJZyY5pTrEiFyU5MeTXF0dBGCklIDdUlIDkMz6yaOqQ6zVGEtVD6gCIJmVqa+vDjFCn0zy/OoQACOlBOyWkhqALY7KyHrKUYVNcsckP1MdAoBy52V22z/r88Ykf1cdAmCElKrd8n4CsMXdkjy6OsRajK1U/eUke1aHAKDU25OcUB1i5DZn9knwN6qDAIyMErBb3k8AtjaqB1aNrVR16z9A276U5OeTXF8dZAIuSXJidQiAkXG7ere8nwBs7XFJ7lQdYlFjKlV/MMn3VIcAoMymJD+X5CvVQSbkwiR/Vh0CYERMVnbL+wnA1vZI8pTqEIsaU6lqShWgbb+W5J3VISbouCSXVocAGAmTld3yfgKwvdH0f2MpVW+b5EnVIQAo89bMHq5E976a5OnVIQBG4sbqABNjUhWA7d0nyQ9Uh1jEWErVn0uyX3UIAMr8bXWAifsfSf5bdQiAEVCqduum6gAADNKTqwMsYiyl6i9XBwCAiTshyZerQwAMnFK1W0pVAHbkF5PsXh1injGUqgcneUR1CABKba4O0IArkhxTHQJg4JSq3VKqArAjByd5ZHWIecZQqv6XjKCdBoAJ+Ksk51eHABgwpWq3lKoA7MwvVQeYZwyl6uDfRABWzqRqf56d5OLqEAADpVTtllIVgJ15QpLbVIfYlaGXqodlJE/8AoCJ+GaSI6PIBtiRG6oDTIxSFYCduV2Sx1WH2JWhl6qmVAGgf/+U5LXVIQAGyKRqt7yfAOzKoHvBoZeqT6oOAMAgmJrs38lJPl0dAmBglIDdMqkKwK48NskB1SF2Zsil6vcluV91CABo1LVJnhIFAsDW/JnYLaUqALuyZ5Kfqw6xM0MuVZ9cHQAAGveuJGdWhwAYEKVqt5SqAMwz2CMAhlqqbkjyi9UhABgMt//XOSXJh6tDAAyEUrVbSlUA5nlokkOqQ+zIUEvVhyX5zuoQAEA2JfmVJNdXBwEYAKVqt5SqAMyzIcl/qQ6xI0MtVQc72gtACZOqtT6U5NTqEAADoFTtllIVgEUM8ojQIZaqeyZ5YnUIAGAbr0jy3uoQAMWUqt3yfgKwiAclObw6xPaGWKr+RJIDqkMAANu4MclTMzsOAKBVSsBumVQFYFGDu6t9iKXqIEd6ASjl9v9h+FiSl1aHACikVO2WUhWARSlV59gvyU9VhwAAduqMOAYAaJdStVtKVQAWdWiSI6pDbG1operPJtm7OgQAg2NSdThuTHJkHAMAtOmG6gATo1QFYC0GNa06tFJ1UG8OALBDH01yanUIgAImVbulVAVgLX4hycbqEFsMqVQ9KMmPVYcAABZyRpL3VYcA6JlStVtKVQDW4qAkj6oOscWQStXHZ0BtMwCD4vb/4bkhyVPjGACgLUrVbnk/AVirwTzgfkil6hOqAwAAa/LRJKdVhwDokRKwWyZVAVirxyXZszpEMpxSdf8kj6wOAcBgmVQdrlcmeX91CICeKFW7pVQFYK1ul4EcHzqUUvUnM5CWGQBYE8cAAC1RqnZLqQrAejy+OkAynFLVrf8AMF4fSfKy6hAAPVCqdkupCsB6/HQG0GmWB0hymyT/b3UIAAbN7f/D94o4BgCYPqVqt5SqAKzHwUl+qDrEEErVxyS5bXUIAGApW44BuL44B8AqKVW7pVQFYL3KjwAYQqnq1n8AmAbHAABTp1TtlvcTgPX62eoA1aXqxiSPK84AwPC5/X88Tk/ygeoQACuiBOyWSVUA1uuwJN9dGaC6VH14kgOKMwAA3XEMADBlN1QHmBilKgDLKJ1WrS5V3foPwCJMqo7Lh+MYAGCaTKp2S6kKwDJKz1WtLFV3S/Izha8PAKyOYwCAKVKqdkupCsAyvj/JXatevLJU/aEkdyl8fQBgdW5IcmQcAwBMi1K1W0pVAJZVNq1aWaq69R+ARbn9f5w+lOTl1SEAOqQE7Jb3E4BllZ2rWlmqlh4mCwD04vQkH6wOAdARH/J1y+QvAMv60SR3qHjhqlL1AUnuVfTaAIyPTex4XZ/kqXEMADANJiu75f0EYFkbkzyu4oWrSlW3/gNAOz6U2cQqAGxNqQpAF0rOVa0qVd36DwBteXlm5SrAWLlrontKVQC68Jgk+/T9ohWl6r0yu/0fABZlIzt+jgEAxs5a1D2lKgBd2DvJo/t+0YpS9acKXhMAqPfBJK+oDgGwTgrA7nlPAehK73fFV5SqP1HwmgCMm+mg6XhZHAMAjJO1qHtKVQC68lOZPbSqN32XqnsneVjPrwkADMeWYwBuKM4BsFZK1e7dWB0AgMm4Q5KH9vmCfZeqj0hym55fEwAYFscAAGOkVO2eSVUAuvT4Pl+s71L1sT2/HgDTYCM7Pacl+XB1CIA1UAB2z3sKQJd+ps8X67tUdZ4qAJA4BgAYHx/wdU+pCkCX7pbk8L5erM9S9T5J7tnj6wEAw/aBOAYAGA+lKgAM32P6eqE+S1VTqgCsl43sdDkGABgLa1H3vKcAdO3Rfb2QUhUAqHR9kiPjGABg+BSAADB8D0uyVx8v1Fepuk9m/1IAsB42stP2/iSvrA4BMIfzP7tnfQega3sn+dE+XqivUvURSW7T02sBAONzWpKPVIcA2AUFIACMQy/nqvZVqrr1HwDYlU1xDAAwbEpVABgHpSoA3MxGtg3vS3JGdQiAnbAWdc97CsAq3D/JnVf9In2UqvdJcs8eXgcAGL9Tk3y0OgTADjhTFQDG49GrfoE+SlVTqgAsyyRLOzYleWocAwAMj7Woe95TAFZlEqXqY3t4DQBgOt6X5MzqEADbUQACwHg8Ksluq3yBVZeq+yR52IpfAwCYnpcm+Vh1CICtKFUBYDwOSvJ9q3yBVZeqj0iy14pfA4Dps5Ftj2MAgKGxFnXPewrAKq30CIBVl6rOUwUA1uu9Sc6qDgFwMw+qAoBxecwqL77qUnWl4QFohkmWdp0SxwAAw2At6p73FIBVOiLJvqu6+CpL1UOSHLbC6wMA07flGIAbi3MAKAABYFz2yOxo0pVYZam6stAAQFMcAwAMgVK1e95TAFZtZXfRK1UBGAObLk6JYwCAWs5UBYDxWdnDqpSqAMAYXJfkyDgGAKjjAz4AGJ97Jzl0FRdeVal6j5t/AAB05T1xDABQR6naPe8pAH1YybTqqkpVU6oAdMmmiy1OSfLx6hBAk6xFADBOKzlXVakKAIyJYwCAKkrV7nlPAejDI5Ns7PqiSlUAxsCmi629O8lvVYcAmuNBVQAwTvsn+cGuL7qKUvWwJIes4LoAAFu8JMknqkMATfEBX/e8pwD05WFdX3AVpaopVQBg1a5LclRMjgH9UQACwHj9aNcXVKoCMAY2suzIu5KcXR0CaIa1CADG64h03IMqVQGAMXtRkk9XhwCaYDK+e4pqAPqyf5IHdHnBrkvV+yU5uONrAoBNFztzbRwDAPTDWgQA49bpEQBdl6qmVAGAvv1bktdWhwAmT6naPe8pAH1SqgIAbOc3kny2OgQwaQpAABi3H+nyYl2WqrsleXiH1wOALWxkmeeaJEfH/1aA1fHnS/e8pwD06c5J7tXVxbosVb87yUEdXg8AYC3+OckbqkMAk+XsZgAYv86OAOiyVHXrPwCrYpKFRZ2c5OLqEMAkWYsAYPwGWao+vMNrAQCsx1VJjqkOAUySUrV73lMA+jbIUrXTw14BANbp75OcWx0CmBwFIACM372T3KmLC3VVqt4zyXd0dC0A2J6NLGv13CT/Xh0CmBRnqnbP+g5AhU4GQ7sqVf+fjq4DANCFbyY5tjoEMCkKQACYhk6OAOiqVP2hjq4DANCVv01yQXUIYDKUqt3zngJQYVClqklVAFbJpov1ek6SL1aHACbBWgQA0/DAJPste5EuStV9MgsDADA030jytOoQwCQoVQFgGnZPcsSyF+miVH1wko0dXAcAdsZGlmX8VZK3VocARs+DqrpnfQegytJHAHRRqjpPFQAYul9L8uXqEMCoKQABYDp+ZNkLdFGqOk8VABi6K5IcXx0CGDWlave8pwBUeUiSPZe5gElVAMbAposu/HmS368OAYyWtQgApuM2mR1pum7Llqr3SHLwktcAAOjLryb5anUIYJScqQoA07LUuarLlqpu/QegD6aD6MplSZ5RHQKAJNZ3AGopVQEA1uB/Jvnv1SEAAIBSSx1pqlQFAFr0zCSXVocARsVUZfe8pwBUOjDJ3df7zcuUqnsneeAS3w8Ai7Lpomtfz6xYBQAA2rXuh1UtU6p+f5I9lvh+AIBKf5jZUQAA1PChKQDVvn+937hMqerWfwD6YtPFqjwjs4dXAcxjLQKA6SkpVZc6zBUAYAC+muTE6hAAAEAJk6oAAOv0X5P8eXUIYPBMqnbPewpAtQOT3GM937jeUvVuSe68zu8FgLWy6WLVjk9yRXUIAACgd+uaVl1vqfp96/w+AIAh+nKSZ1eHAGiMD00BGIJeS9XvXef3AQAM1YVJ/qo6BDBYCkAAmCalKgCTZSNLX56W5BvVIQAaYX0HYAiUqgAAS/pikpOqQwAAAL1Z18Oq1lOq3jHJIev4PgBYL5Ms9On8JH9bHQIYHGsRAEzXmqdV11OqmlIFAKbu2CTfrA4BMHGKagCGQqkKANCBf0/yvOoQwKAoAAFguh681m9YT6n6oHV8DwAsw0aWCucm+YfqEAATZn0HYChMqgIAdGRzkmOSXF0dBAAAWKk7ZI0Pq1prqXrbJPdZ4/cAwLJMslDl80lOrg4BDIK1qHveUwCGZE1HAKy1VH3AOr4HAGDMXp/kn6tDAAAAK7WmIwDWWpC69R8AaM3mJEcnuaY6CAAAsDJKVQAmx+2BVPtskhdWhwBKWYu65z0FYEiUqgAAK/A7Sf6tOgQAALASd0hy6KJfvJZSdWOS71lzHABYnkkWhuCmJEclubY6CFDCWtQ97ykAQ7PwtOpaStXvSrLX2rMAAEzGp5O8uDoEAACwEispVd36DwCQnJ3kXdUhAACAzj1g0S9UqgIwBm4PZEhuzOwYgOuqgwC9shZ1z3sKwNAsfPSpUhUAYO0+keSU6hAAAECn7pbkdot84VpK1QeuLwsAwCSdleS91SEARsykKgBDtNC06qKl6l2S3H79WQBgKTZdDNGNSZ6aZFNxDqAf1iIAaEOnper9lggCADBVH0tyWnUIgJFSVAMwRJ2Wqt+1RBAAWJZNF0P2yiQfqA4BrJy1qHu7VQcAHBG+BQAAIABJREFUgB24/yJfpFQFAFjODUmOTHJ9dRAAAGBpJlUBAHryoSSnV4cAAACWdsckB8/7IqUqAGPglkvG4OVJPlwdAlgZaxEAtGPutOoiper+Se68fBYAgEm7PrNjAG6oDgIAACylk1LVlCoA1UwHMRbvT3JmdQiAkfCgKgCGSqkKANCzlyb5WHUIoHM+4AOAdtxv3hcsUqrOvQgAALfYlNkxADdWBwEAANalk1LVpCoA1UwHMTbvSfKq6hBAp6xFANCOA2/+sVNKVQCA1Xhxkk9WhwAYMGeqAjBk993Vb84rVfdKcmh3WQBgXUwHMUbXJTkqyU3VQQAAgDXb5REA80rV+yTZvbssAABNeWeSV1eHADrhAz4AaMtSk6pu/QcAWM5vJvlMdQgAAGBNlKoAjJ7pIMbs2jgGAAAAxmap2/+VqgAAy3t7ktdVhwCW4gO+7nlQFQBDds8kG3f2m/NK1V02sgDAKO1THaBRL0jyueoQAADAQvZIcq+d/eauStUNmXN2AAD0xHRQtx6R5InVIRp0TZKj43/PMFb+vwsA7dlpN7qrUvXuSW7TfRYAoNh+SX43yZ2rgzTon5K8sToEAACwkHWVqoetIAgArIfpoG7tl+TAJG+uDtKoX09ycXUIgAFwpioAQ7eu2/93+k0AwKjte/N/PibJCZVBGnVVkmOqQwBr5gM+AGjPukrVe64gCABQb6+tfn5WPJiywt8nObc6BAAAsEs77UeVqgCMgemgbm3c6ud7J3lbZk+2pF/PS/If1SEAAICdulu23T/dwu3/ANCe7f9S8P1JXlIRpHFXJjm2OgSwMB/wAUB7NmZWrN6KSVUAxsBGtls7+qT15CRH9B2E/E08MAxolwdVATAGO+xId1aq3jHJ7VaXBQAotKNSdfckv5dvP8SK/jw7yRerQwAAADu0w7v5d1aqmlIFgOna4ZlAma3/r+4zCEmSbyQ5rjoEMJe7JgCgTWuaVFWqAjAkNrLd2lmpmiRHJ/mZvoJwi7/MbFIYAAAYljWVqh5SBQDTtcec3z8vyZ36CMI2TkzyleoQwE75gK97zlQFYAzc/g/AaNnIdmtXk6pJclCS8/sIwjauSHJ8dQgAAGAbJlUBgCTzS9Uk+ck457PCnyX5b9UhAACAW+yf5MDtf9GkKgC0Z5FSNUleleTeqwzCDj0rydeqQwC34q4JAGjXrbrSHZWqeyX5ztVnAYCF2ch2a/cFv+62Sd62hq+nG5cleUZ1CAAA4Ba3uqt/R6XqPXby6wDANKylJP3BJC9YVRB26o+T/FF1CIAV86AqAMZioUlVt/4DwLSt9cPTFyf53lUEYZdOSHJpdQjgFu6aAIB2LVSqekgVAENjI9uttZaqeyR5a2ZHBNGfr2d2vioAAFBrodv/TaoCwLSt54zU70lyatdBmOsPkvxJdQggiQ/4AKBlJlUBGCUb2W6t9+z05yb54S6DsJCnJ7m8OgTACjhTFYCxOCTJnlv/gklVAGjPekvVDUkuTHLbDrMw31eTnFgdAgAAGrYhyT22/4XtHdpLFACgynpL1WR2R8tZXQVhYW9L8r+qQ0Dj3DUBAG3b5u7+7TdVB8f0CQDDYyPbrfWcqbq145M8qosgrMnxSf6zOgQAADRqm7v7ty9V3foPANO3zKRqMjsD74Ikt+8gC4v7UpJnV4cAAIBGKVUBGB2Tqt1atlRNZge1/04H12Ft3pLkf1eHgEZZi7rnQVUAjMkub/+/a49BAIAaXZSqSfL/JfnZjq7F4p6W5MrqEAAA0JhDtv6H7TdV39ljEACgxrJnqm7td5N8R4fXY75LkpxUHQIAABqzTW+6fal6SABgeNxy2a2uJlWT5KDMilX69aYkf1cdAgAAGvIdSTZu+QeTqgDQni5L1SR5fJJf6fiazHdskm9WhwBYgjNVARiTDUkO3voftqZUBWCITKp2q+tSNZk9tMrZ7P36QpLnV4cAAICG3NKdbr2p2pjkTv1nAQB61uWZqlvsn+SCmDrq2+8m+cfqEAAA0IgdlqoHZzWTKwDAsKxqvf/xJM9Y0bXZsc1Jjk5ydXUQAABowA5LVbf+AzBUbv/v1io/RD0zyWErvD639vkkJ1eHAACABtxly0+UqgDQnlWWqvskuXDFr8GtvT7Jv1SHAFgjR8YAMDY7nFQ9pCAIANC/VZypurUjkjxvxa/BtrYcA3BtdRAAAJiwHZaqHlIFwFC5/b9bfUyRnprk/j28Dt92UZIXVocAAIAJO3jLT7beVB1YEAQA6F8fpeqeSd6aZI8eXotve02Sd1SHAACAibqlP916U3XHgiAAsAiTqt3q67zTByV5SU+vxcxNSY5K8q3qIAALcKYqAGOzw1LVpCoAtKHPh0idnOQhPb4eyaeSvLg6BAAATNDGJLdPlKoA0KJVP6hq+9e6MMnePb4myW8n+b/VIQAAYIIOTNz+D8A4uP2/W31OqibJfZO8sufXbN2NSY5Mcl11EAAAmJg7JiZVAaBFfZeqSfKsJI8seN2WfSLJS6tDAADAxGxTqu6b2VN6AWCITKp2q6JU3S3JBUluV/DaLTszyXurQwDshAdVATBG29z+b0oVANrR55mqW7t7krOLXrtVW44B2FQdBAAAJmKbSVXnqQJAOyomVbc4KslPFb5+iz6a5GXVIQAAYCK2KVVvXxgEAOZx+3+3KkvVJDkv7pLp2yuSfLA6BAAATMABybc3VfsVBgEA+lVdqh6c5I3FGVpzQ2bHAFxfHQRgK85UBWCM9k22fVAVAAyVSdVuVZ2purWfT/Kk6hCN+WBmE6sAAMD6bVOqmlQFgHZUT6pu8fokd6kO0ZiXJflIdQgAABix/RKTqgDQoqGUqgckeVN1iMZcn9kxADdUBwEAgJFy+z8Ao+H2/24NpVRNkp9I8rTqEI15X5Izq0MAAMBIKVUBoFFDOFN1a69Kcs/qEI05NcnHq0MAzfOgKgDGyJmqANCoIU2qJrO/lLwlw8s1ZddldgzAjdVBAABgZJypCsBouP2/W0MsL380ybOrQzTm3Ul+uzoEAACMjNv/AaBRQyxVk9mT6Q+vDtGYFyf5VHUIAAAYkT2T7KFUBWAMTKp2Z7cM9wy72yR5a5KN1UEa8q3MjgG4qToI0KShrkcAMM++W0rVvUtjAAB9GeqU6hbfn+SF1SEa884kr6kOAQAAI7LPlo3VXqUxAIC+jGEq6DczK1fpzwuTXFQdAgAARmJPpSoAY+D2/+6MoVTdmNkxAP5+0p9rkxwV/18DAIBF7LWlVN2zNAYA0JcxlKrJ7IFVp1WHaMy/JnlddQgAABgBk6oAjILpue6MpVRNkpOSHFEdojEvSPK56hBAM8a0JgHA1kyqAkBjxrSB3ZDkwiT7VAdpyNVJjo4PMgAAYFdMqgJAY8ZUqibJYUnOqA7RmH9Kck51CAAAGDCTqgCMgqm57oytVE2SE5I8sjpEY56f5AvVIQAAYKBMqgJAY8ZYqu6W5IIk+1UHachVSY6pDgFM3hjXJABIbp5U3f3mHwAwVCZVuzPWDezdk5xdHaIx/yfJedUhAABggPbaELf+A0BLNsz/ksE6Osljq0M05rlJ/qM6BAAADMyeG+LWfwBoyVgnVbc4L8kB1SEacmWSp1WHAACAgdlrQ5KN1SkAYA63/3dn7KXqXZK8tjpEY/46yVuqQwAAwIDssSHjvg0QAFibsZeqSfLkJE+oDtGYZyf5UnUIYHKmsCYB0KbdlKoA0JapbGDPSXJQdYiG/GeS46pDAADAQGzYkOlsrgCYLrf/d2cq6/5BSd5YHaIxf5HkbdUhAABgAEyqAkBjplKqJskTMzsKgP78apKvVIcAAIBiJlUBGAWTqt2Z2rr/2sweXkU/rkjy9OoQwGRMbU0CoB0mVQGgMVPbwB6Q5LzqEI350yR/UB0CAAAKmVQFgMZMcd1/bJKjq0M05llJvlYdAgAAiphUBWAU3P7fnSmWqklydpK7V4doyKVJTqgOAQAARUyqAkBjprru75fkgkz332+I/sfNPwAAoDUmVQEYBZOq3Zly6fjImJ7s2wmZTa0CrMeU1yQAps2kKgA0Zurr/hlJDqsO0ZCvZXa+KgAAtMSkKgA0Zuql6j5J3hJ/v+nTHyT50+oQAADQI5OqAIyC2/+708K6/8NJTqoO0ZinJ7m8OgQAAPTEpCoANKaFUjVJTktyeHWIhnwlya9VhwBGp5U1CYDpMakKwCiYVO1OK+v+XkkuTLKxOkhDfi/JX1SHAACAHphUBYDGtFKqJsmDk7ygOkRjjkvyn9UhAABgxUyqAkBjWlv3X5TkQdUhGvKlJM+pDgEAACtmUhWAUXD7f3daK1X3SPLWJHtWB2nIm5P8dXUIAABYoQ1KVQBoS2ulapLcP8kp1SEac2ySK6tDAIPX4poEwDS4/R8AGtPquv/8JA+pDtGQS5I8tzoEAACsiNv/ARgFt/93p9VSdfckFybZuzpIQ85L8nfVIQAAYAVMqgJAY1pe9++b5PTqEI05NslV1SEAAKBjJlUBGAWTqt1puVRNkhOTPLQ6REO+kNnRCwA70vqaBMB4mVQFgMa0vu7vltnT6fetDtKQc5L8Y3UIAADokElVAGhM66VqktwzyVnVIRqyOckxSa6uDgIAAB0xqQrAKLj9vzvW/Znjkzy6OkRDPpfkBdUhgMGxJgEwViZVAaAxNrDfdn6S/atDNOR1Sf61OgQAAHTApCoAo2BStTvW/W87JMlrqkM0ZHOSo5JcWx0EGAxrEgBjZVIVABpjA7utpyT56eoQDbkoyW9WhwAAgCWZVAWAxlj3b+3cJAdWh2jIq5O8ozoEAAAsYTelKgC0xbp/a3dK8obqEA25KbNjAL5VHQQoZ00CYKw2uPUfANpiA7tjv3DzD/rxqSQvqQ4BAADrtHlDPPwDgGGzTnVLqbpzb8hsapV+vCrJu6tDAKWsSQCM1eYNmd2CBQC0wQZ25w7M7HxV+nFjkiOTXFcdBAAA1ugmk6oA0Bal6q79dJKnVIdoyMeTnFodAihjTQJgrEyqAjB4Pvzrlg3sfK9Jckh1iIacmeT91SEAAGANTKoCQGOUqvPtn+T86hANuSGzYwCurw4CAAALMqkKAI1Rqi7m0UmOrw7RkA8neXl1CKB31iQAxsqkKgCDZ53qlg3s4s5Kcmh1iIacnuRD1SEAAGABJlUBoDFK1cXtm+Qt8Z715frMjgG4oToI0Bt/vgIwViZVARg861S3bGDX5qFJTqwO0ZAPJDmjOgQAAMxhUhUAGqNUXbvTk9y3OkRDTk3yseoQAACwCyZVAaAxStW12zvJhUl2rw7SiE2ZHQNwY3UQYOWsSQCMlUlVAAbPh3/d2lAdYKQekuT51SEa8p4kr6oOAQAAO2FSFQAaYypo/U5Jcv/qEA15SZJPVYcAVsqaBMBYmVQFYPB8+NctG9j12zPJW5PsUR2kEd/K7BgAf1cFAGBoTKoCQGOUqst5UJIXVYdoyDuTvKY6BLAy1iQAxsqkKgA0xgZ2eS9I8uDqEA15YZKLqkMAAMBWTKoCMHjWqW4pVZe3McmFSfaqDtKIa5McHX8WAAAwHCZVAaAxStVuHJ7ktOoQDfmXJK+vDgF0zpoEwFiZVAVg8KxT3bKB7c5JSY6oDtGQk5N8vjoEAADEpCoANEep2p0NmR0DsE91kEZcneSY+KAFpsSaBMBY3aRUBYC22MB267AkZ1SHaMg/JDm3OgQAAM1z+z8Ag2ed6pZStXsnJHlkdYiGPC/Jv1eHAACgaW7/B4DGKFW7t1uSC5LsVx2kEd9Mcmx1CKAT1iQAxsqkKgA0xgZ2Ne6e5OzqEA3528yKbAAAqGBSFYDB8+Fft5Sqq3N0ksdWh2jIc5J8sToEsBRrEgBjZVIVABpjA7ta5yU5oDpEI76R5LjqEAAANMmkKgCD58O/bilVV+suSV5bHaIhf5nk96pDAOtmTQJgrEyqAkBjbGBX78lJnlAdoiEnJvlKdQgAAJpiUhUAGqNU7cc5SQ6qDtGIK5I8vToEAABNMakKwOBZp7qlVO3HQZkVq/TjT5P8QXUIYM2sSQCM1eYNSW6sTgEA9MYGtj9PyOwoAPrxrCRfqw4BAEATbtqQ5PrqFABAb5Sq/XptZg+vYvUuTfLM6hDAmliTABirTRuSXFedAgDojQ1svw5Icl51iIb8UZI/rg4BAMDkXbchyabqFACwC85U7ZZStX+PTXJ0dYiGPCPJZdUhAACYtE1bHlTlCAAAaINStcbZSe5eHaIRX0vyq9UhgIVYkwAYq+s23PwT06oA0AYb2Br7Jbkg3v++/H6SP68OAQDAZG3aUqo6VxUA2qDUq/PIJCdUh2jI8UmuqA4B7JI1CYCxMqkKwOA5U7VbNrC1zkhyWHWIRnw5ybOrQwAAMEkmVQGgMUrVWvskuTDJhnlfSCcuTPJX1SGAnbImATBW1ylVAaAtNrD1jkhyUnWIhhyX5MrqEAAATIrb/wGgMUrVYTgtyeHVIRpxSZTYAAB0y+3/AAyeM1W7pVQdhr0yuzV9Y3WQRrwpyd9VhwBuxZoEwFi5/R8AGmMDOxwPTvKC6hANOTbJVdUhAACYhFtK1WtKYwAAfVGqDsuLkjyoOkQjvpDk+dUhgG1YkwAYq2u2lKo+tQdgqNz+3y0b2GHZI8lbk+xZHaQR5yT5x+oQAACM3lVKVQBoi1J1eO6f5JTqEI3YnOSYJFdXBwEAYLSuTXLTllL1m5VJAIDeKFWH6flJHlIdohGfS/Ib1SGAJNYkAMbpm0liUhUA2mIDO0y7J7kwyd7VQRrx2iRvrw4BAMAoXZUoVQEYPmeqdkupOlz3TXJ6dYhGbE5yVGa3bgF1rEkAjJFSFQAaZAM7bCcmeWh1iEZ8JsmLqkMAADA625SqzlQFgDYoVYdttyRvTrJvdZBGnJ3kXdUhoGHWJADGyJmqANAgG9jhu2eSs6pDNOKmzI4BuK46CAAAo+H2fwBGwZmq3VKqjsPxSR5dHaIRn0hySnUIAABGY5tS9crCIABAf5Sq43F+kv2rQzTirCTvrQ4BDbImATBG29z+f3lhEACgPzaw43FIktdUh2jEjUmOTLKpOggAAIN3WfLtUvWywiAAQH+UquPylCQ/XR2iER9N8rLqENAYaxIAY6RUBWAUnKnaLRvY8Tk3yYHVIRrxiiQfrA4BAMCgXZp8u1S9LsnVdVkAgJ5smP8lDMydkryhOkQjbsjsGIDrq4MAADBY25Sqt/wCADBpJlXH6Rdu/sHqfTDJK6tDQCOsSQCM0Ta3/9/yCwDApNnAjtcbMptaZfVeltkZqwAAsL1bTaoqVQEYImeqdkupOl4HJjmvOkQjNmV2DMCN1UFg4qxJAIyR2/8BoEE2sOP2uCRPqQ7RiPcmOas6BAAAg3JtkmsSk6oA0Bql6vi9Jskh1SEacUqST1SHgAmzJgEwNrf0pyZVAaAtNrDjt3+S86tDNOK6JEcluak6CAAAg3BLf7p1qfrlgiAAMI8zVbulVJ2GRyc5vjpEI96V5OzqEAAADMKXtvxk61L1iwVBAIB+KVWn46wkh1aHaMSLknymOgRMkDUJgLFRqgJAo2xgp2PfJG+J/077cG0cAwAAwFb9qVIVANqigJuWhyY5sTpEI96e5HXVIWBirEkAjM0OS9WvZ3YYPwAMiTNVu2UDOz2nJ7lvdYhGvCDJ56pDAABQZoelarLVuQAAwCQpVadn7yQXJtm9OkgDrklydHzYAwDQqh2eqZo4AgAApk6pOk0PSfL86hCN+Kck51SHgImwJgEwNjudVFWqAsC02cBO1ylJ7l8dohHPT/KF6hAAAPRqU5JLt/yDUhWAoXObbbeUqtO1Z5K3JtmjOkgDrkpybHUImABrEgBj8qVstT9VqgJAW2xgp+1BSV5UHaIRf5fkTdUhAADozTbPotq+VHUbEwBMm1J1+l6Q5MHVIRpxUpJLqkPAiFmTABiTbXrT7UvVz/UYBADonw3s9G1McmGSvaqDNODKJE+rDgEAQC+26U23L1U/22MQAFiEM1W7pVRtw+FJXlYdohH/O7MSGwCAadumN92+VL0yyWX9ZQEAeqZUbcdzkvxwdYhGPDvJl6tDwAhZkwAYk11Oqt7qCwCASbGBbceGJG9Jsk9xjhZckeT46hAAAKzU3FLVEQAAMF1K1bYcluSM6hCN+PMkv18dAkbGmgTAWFyX5Itb/4JJVQCGzpmq3bKBbc8JSR5ZHaIRv5rkq9UhAADo3MVJbtr6F0yqAkBblKrt2S3JBUn2qw7SgMsyK7EBAJiWW/WlJlUBoC1K1TbdPcnZ1SEa8cdJ/qg6BIyENQmAsbhVX6pUBYC22MC26+gkj60O0YgTklxaHQIAgM4sVKpekmTT6rMAwEKcqdotpWrbzktyQHWIBnw9ybOqQ8AIWJMAGIuFbv+/KbPDVwGA6bGBbdtdkryuOkQj/iDJn1aHAACgEwtNqiYeVgUAU6VU5ZeSPKE6RCOenuTy6hAwYNYkAMZi4VLVuaoAME02sCTJOUkOqg7RgK8k+bXqEAAALOUrSa7Z/heVqgAMnTNVu6VUJZkVqudUh2jE7yX5y+oQAACs2w57Urf/A0BblKps8YQkT64O0YjjknyjOgQMkDUJgDHYYU9qUhUA2mIDy9Zem9nDq1itLyZ5TnUIAADWZU2TqkpVAJgmpSpbOyDJedUhGnFBkr+pDgEDY00CYAzWNKl6dZKvri4LACzMmardsoFle49Nckx1iEYcm+Sb1SEAAFiTNU2q7vQbAIBRU6qyI7+d5O7VIRrwH0meVx0CAIA1WXOp6mFVADA9SlV2ZL/Mbk/3v4/VOzfJP1SHgIHwZw4AQ3dNki/v6DdMqgJAW2xg2ZlHJjmhOkQDNmd23MLV1UEAAJjr8zv7DZOqAAydM1W7pVRlV85Iclh1iAZ8PsnJ1SFgAKxJAAzdTvtRk6oA0BYbWHZlnyQXZtd/R6Qbr0/yL9UhAADYpZ32o7v6C/NnVhAEAKilVGWeI5KcVB2iAZuTHJ3k2uogUMiaBMDQXbSz39hVqfrVJN/oPgsAUMgGlkWcluTw6hANuCjJC6tDAACwU5/c2W/Mu7XrUx0HAYC1cqYq9G+vzI4B2FgdpAGvSfKO6hAs5KFJ9qsOAQD0aqfdqFIVANpiUpVFPTgeptSHm5IcleRb1UGY665JzqwOMTHWJACG7Kokl+zsN+eVqjsdcQUARskGlrV4cZIHVodowKeSvKQ6BAs5LsnDqkMAAL349K5+06QqAEPn9n+os0dmxwDsUR2kAa9K8u7qEMy1W5Lzk+xTHWQifNAHwJDtctjUpCoAtMUGlrV6YGYTq6zWjZkdA7CpOghz3Suzh7kBANO2y2HTeaXqRZn9BQ8AmAalKutxcmZnrLJaH0tyanUIFvJrSR5SHWICrEkADNlSk6rXJbm4sygAQDUbWNZjY2bHAOxVHaQBZyR5f3UI5tqQ5IIke1YHAQBWZqlJ1bkXAIAVc6YqDMPhcctzH25IcmSS66uDMNfhcTQGAEzV5iz5oKpEqQoAU2JSlWWclOSI6hAN+HCS06tDsJBfT/Kg6hAjZk0CYKj+Pcm1u/qCRUpVD6sCgOmwgWUZG5K8JZ583oeXZ1auMmwbMzsGYGN1EACgU3P70EVK1Y93EAQAgGm4d5JXVIdowPWZHQNwQ3UQ5vrezCZWWTsf9AEwVJ2Uqh/rIAgArJczVbtlA0sXnpXk4dUhGvD+JGdWh2AhL0ryXdUhAIDOfGTeFyxSql6R5EvLZwEABkCpShd2y+yW532rgzTg1LhzbAz2yuz/E4vsrwCA4fvovC9YdNGf284CANCUQ5P8VnWIBlyX2TEAN1YHYa4fSnJidYiR8UEfAEO0OQvcub9oqTq3nQUARsEGli4dl+TR1SEa8O4kv10dgoW8LMm9qkMAAEu5OMlV875IqQrA0DlTtVtKVbp2fpL9q0M04MVJPlUdgrn2SfKm+LN2Ud4nAIZooR7U7f8AACzjkCSvrg7RgG8lOSrJTdVBmOvhmU1xAwDj1Gmp+vH4CxwATIGpIFbhqUkeVx2iAe9I8jvVIVjImUnuWh1iBKxJAAzRQsOli5aq1yb53PqzAAADYQPLqpyb5A7VIRrwwiSfrQ7BXPsl+d3qEADAunQ6qbrwBQGgY85UhXE4OMnrqkM04JokR8efjWPwE0l+pToEALAm1yf55CJfuJZS1bmqADB+JlVZpScleWJ1iAb8c5I3VIdgIa/O7AMHdsyaBMDQfDqzYnUuk6oA0BYbWFbtjUkOqg7RgJOTXFwdgrkOiAIcAMZk4f5zLaXqB9cRBACAthyU5JzqEA24Kskx1SFYyM8m+fnqEAPlgz4AhuZDi37hWkrVzyS5cu1ZAGApzg3slg0sfXhCkl+qDtGAv8/sAWEM3+uSHFgdAgCY632LfuFaStXNST6w9iwAwIAoVenL65LcuTpEA56X5D+qQzDXdyR5TXUIAGCulZSqa7owAABNOyDJedUhGnBlkmOrQ7CQJyf5qeoQA+ODPgCG5AtJLlv0i9daqr53jV8PAAyLDSx9+skkR1aHaMDfJHlzdQgWck6S/atDAAA7tKbe06QqAEPnTNVuKVXp26uT3LU6RAOek+RL1SGY6zuT/FZ1iAGxJgEwJGvqPddaqnpYFQAAa3G7JOdXh2jAfyY5rjoECzkmyY9VhwAAbmWlpermJO9f4/cAAMNhKogKj0pyfHWIBvxFkrdVh2Ah5yW5bXWIAbAmATAkK739P3EEAACMmQ0sVc5Kcmh1iAacmOQr1SGY69Akp1eHAABucXGSy9fyDUpVAIbOmaowDftm9jAlxf5qXZ7kGdUhWMgzk/xwdQgAIMk6+s71lKprGoUFAAZFoUWlhyX51eoQDfiTJH9YHYK5NmR23vBtqoMUsiYBMBRr7jvXU6peFA+rAoCxsoGl2ulJ7l0dogHPTPL16hDMdd8kp1SHAADZHB2FAAAgAElEQVT6mVT1sCoAANZrnyRvyfr+HsriLs2sWGX4npvkwdUhivigD4Ch6KVUXdcLAcA6OVO1WzawDMERSU6qDtGA/57kf1aHYK7dMzsGYI/qIADQqM9njQ+pStZfqjpXFQDGSanKUJyW5PDqEA14RpLLqkMw1wOS/EZ1CABo1LqGR02qAgBQYa8kFybZWB1k4r6a5MTqECzkhUm+pzpEz3zQB8AQ9FqqXpTkG+v8XgCgjg0sQ/LgJCdXh2jAf03yv6pDMNceSS7I7DgAAKA/67ojf72lqodVAdAXZ6p2S6nK0Lw4yQOrQzTg+CT/WR2CuX4gyXOqQ/TImgTAEKyr41zmqauOAACA8bGBZWj2yOwYAA/pWa0vJXl2dQgWcmqS+1SHAIBGrOshVYlSFQCAeg/MbGKV1XpLkr+uDsFct0nyprTxIVgL/44ADNu6bv1PlitV1/2iAEAZG1iG6uTMzlhltY5NcmV1COb60SQnVIcAgAase2h0mVL1s/GwKgBWz5mq3VKqMlQbMzsGYK/qIBN3SZLnVodgIa9IcvfqEAAwcSWlqodVAQDQpcOTnFYdogHnJfk/1SGYa9/M/ruaMh/0AVCtpFRNHAEAAGNjA8vQnZTkiOoQDTgmyVXVIZjrUUmOqg4BABP1uSRXrPebly1V37Hk9wMA/VKqMnQbMnug0j7FOabuC0l+vToEC3lVkrtUh1gRaxIAld61zDcvW6q+Pc66A2C1rDPQnntndp4kq/XGJP9UHYK5bp/knOoQADBB/7rMNy9bql6a5JNLXgMA6I+pIMbiWUkeXh1i4jZndgzANdVBmOtxSZ5UHQIAJqa0VF06AADQK6UqY7Fbkgsye1gPq/PZJL9RHYKF/E6Sg6pDdMyaBECVy5N8fJkLdFGqvr2DawAAwPYOTfJb1SEa8Nok/1YdgrnumNl/VwDA8pY+0tSkKgBD50zVbpkKYmyOS/Lo6hATd1NmT5i/tjoIc/1iksdXh+iQNQmAKkv3mV2UqhcnuaSD6wAAq2cDyxidn2T/6hAT9+kkL64OwULekNnDqwCA9RtEqZqYVgUAYHUOSfLq6hANODvJ/60OwVx3zuy/qynwQR8AFa5O8r5lL6JUBYC22MAyVk/N7AnorM6NSY5Mcl11EOZ6apLHVIcAgJF6V5Iblr1IV6Wqh1UBsCrOVO2WUpUxOzfJHapDTNwnkry0OgQLOTfJftUhAGCEOhkO7apU/WiSKzq6FgAA7MjBSV5XHaIBZ6WDW+JYubsleWV1iCX5oA+ACoMqVTcn+beOrgUArI4NLGP3pCRPrA4xcTdkdgzApuogzPX0JA+tDgEAI3J9Zrf/L62rUjVxrioAq+H2/24pVZmCNyY5qDrExH0kycurQzDXbknOT7J3dZB1siYB0Lf3J7mmiwspVQEAGJuDkpxTHaIBr0jyoeoQzHVYktOqQwDASHTWX3ZZqr4vybUdXg8A6J6pIKbiCUl+qTrExF2f2TEASz8dl5V7dpKHVIcAgBEYZKm6Kcm7O7weANA9pSpT8rokd64OMXEfyPgfhtSCDUkuSLJndZA1siYB0KfNSd7e1cW6LFUTRwAA0D1nqgI7c0CS86pDNOC0JB+tDsFchyd5UXUIABiwjyW5vKuLKVUBoC2mgpian8zsFnVWZ1Nm7/GN1UGY6+QkD6wOsQbWJAD61Glv2XWp+s74yxYADJkNLFP06iR3rQ4xce9N8lvVIZhrY2bHAGysDgIAAzToUvWb8YRQAAD6dbsk51eHaMBLknyyOgRzfV+S51WHWJAP+gDo06BL1cQRAAB0y5mq3bKBZaoeleT46hATd12So5LcVB2EuV6S5H7VIQBgQC5OckmXF1SqAkBblKpM2VlJDq0OMXHvzOy4BYZtr8ymt1ex3wOAMeq8r1SqAgAwFfsmeXN8eLBqv5n8/+zdedyd45348U8iESSxU7tGS1EVW7WhLUUpqhtadENQXRgdnZb+Wq0aTEsHZaqaUktVqVpqqVoaYt8JYt9ijyWJLLI+z++PK5aQ5DzLOed7X9f9eb9eeel02pzPZMid+3uuhUejI9TQZsD3oyMa8J9VSVK7ZDFUHQeMacHPK0mSes8XWJVuC+DA6IjCvQEMx+NZcnAUrt6WJAlgVLN/wlZtB7myRT+vJKl+fGlvLoeqqoOjgTWjIwp3PXBSdIQaGgj8ITpiAXwmSZLa4Rng4Wb/pK0aqv6rRT+vJEmS1MiiwOl4nmSrHQo8ER2hhrYhXTAmSVJdtWTxZ6v+oHkd6XZQSZJULa4KUl1sBhwcHVG4KcA+uKMgB78BVoyOkCQpSEsWf7ZqqPoGXlglSVIVOVRVnRwBrBsdUbiRwCnREWpoSeDk6Ih58JkkSWq12cDVrfiJW7klyiMAJEnN4Aqo5vIFVnUyADgD6BcdUrgfAWOjI9TQF4CvRkdIktRmtwPjW/ETt3Ko6mVVkiRJirYJcEh0ROEmAftGR6hLTgSWjY54B7/okyS1WssWfbZyqDoaeKGFP78kSeo+X2BVR4cBQ6MjCnclcGp0hBpaDjghOkKSpDbKcqgKcFWLf35JktQ9DlVVR/1JxwD0jw4p3MHAc9ERamgP4HPREXP4TJIktdIE4LZW/eStHqp6rqokqbc8U1VSMwwlrVhV60wE9ouOUJf8HlgiOkKSpBa7mnRRVUu0Y6WqL8OSJFWHq4JUZ4eQzlhV61wOnBkdoYZWBo6JjpAkqcVaet9Tq4eqLwN3t/gzJElS1zlUVZ31Ix0DMCA6pHAH4d0KOdgX2Cq4wWeSJKmVWrqDvtVDVfAIAEmSJFXHusAR0RGFGw98JzpCXTICWCw6QpKkFngIGNvKD2jHULWlS20lScXzGJnmclWQlC5U2iw6onAXA+dER6ihNYAjAz/fZ5IkqVVavsizHUPVG4HJbfgcSZLUmC+wUvoz8Om4Qq/VDgDGRUeooQOBYdERkiQ1WRFD1ZnAyDZ8jiRJktRVawJHR0cU7lXge9ERaqgvcCqeNSxJKsd04LpWf0g7hqrgEQCSJFWFK1Wltx0AbBkdUbjz5/xQta0D/Czgc30mSZJa4Xpgaqs/pF1DVS+rkiT1lGeqNpcvsNLb+gCnAYOiQwr3PeCV6Ag19GNgg+gISZKaoC1zyHYNVR8FnmzTZ0mSJEldNQQ4NjqicONI53aq2vqRvmTo18bP9Is+SVIrFDVUBY8AkCSpCnyBld7r28C20RGFOwe4ODpCDW0I/Fd0hCRJvfACcF87PsihqiRJ9eJQVZq3U4EloiMKtz8wPjpCDf0cWLtNn+UzSZLUbG2bP7ZzqHoNMKuNnydJKoNnqkpqh1WA46MjCvcicFB0hBoaQPqSoZ3vipIkNUvb7nVq54NyInBrGz9PkiS9l6uCpPnbE9gpOqJwZwKXR0eooc2A70dHSJLUTR3AVe36sHZ/+3hZmz9PkiTNzaGqtGB/AJaOjijcfqQFF6q2o0gXubWSzyRJUjPdBbzSrg9r91DVw+klSZJUZSsAJ0VHFO454ODoCDU0kPQlgyRJuWjrYs52D1XHAI+0+TMlSXnzTNXmclWQ1NjuwM7REYU7FS+yzcE2wPAW/vw+kyRJzXRhOz8s4vDxtv4fKEmS5uILrNQ1JwPLRUcUbl9gUnSEGvoNsFJ0hCRJDTwB3NvOD4wYql4U8JmSJElSdywH/D46onBjgR9FR6ihJUhfMkiSVGVtX8QZMVS9FXg+4HMlSZIrVaXu+DKwR3RE4U4BRkZHqKHPA7u14Of1mSRJapZaDFU7gX8EfK4kKU+eqdpcvsBK3XMSsGJ0RME6SWd2TokOUUMnAstGR0iSNA8vATe3+0MjhqrguaqSJEnKw1LAiOiIwj0JHBodoYaWBX7b5J/TL/okSc1wMdDR7g+NGqqOBCYGfbYkSXXmC6zUfTsCe0VHFO4k4ProCDW0O7BTdIQkSe8Ssngzaqg6E7gs6LMlSaozh6pSzxwPrBodUbBOYG/gjegQNfR70uVVzeAzSZLUW68D/4744KihKsBFgZ8tScqHZ6pKqoLFgVOjIwr3GPDT6Ag1tBJwbHSEJElzXAbMiPjgyKHqP4FpgZ8vSVIduSpI6rnPAPtHRxTueAIumlC37QNsHR0hSRKB9zZFDlUnA9cEfr4kSXXkUFXqnWOAIdERBesgHQPg4ovqGwEM7OXP4TNJktQb00iLNkNEDlUhcJosSZIk9cAg4E84DGqlh4BfREeooSHAkdERkqRau5q0aDNE9FD1H6RvoyVJmh/PVG0uB0FS720BHBgdUbhjgdujI9TQAcBmvfjv+0ySJPVG6GLN6KHqy8CNwQ2SJNWJL7BScxwNrBUdUbDZwF4EXTyhLutLusBtQHSIJKl2ZpMWa4aJHqoCXBQdIElSjThUlZpjUeB0YKHgjpI9ABwRHaGG1gYOi46QJNXODcArkQFVGKp6rqokSZJyNAw4ODqicP8D3B0doYZ+BGzYg/+eX/RJknoqfJ5YhaHqk8Do6AhJUmV5pmpzVeHZL5Xkl8C60REFm0U6BmBmdIgWqB9w2py/SpLUDg5V5wj/hZAkqSaq8uyXSjEAOAOHSa10L+kMW1XbBqQVq93hSlVJUk/cCYyNjqjKi5VDVUmS2qMqz36pJJsAh0RHFO6/gfuiI9TQYcA60RGSpOJVYo5YlRere0nHAEiSpNaqyrNfKs1hwNDoiILNJB0DMCs6RAs0ADiVrj9rXKkqSeoJh6rvclF0gCSpkjxTtbl8gZVaoz/pGID+0SEFuxM4JjpCDQ0DDoiOkCQV6xFgTHQEVGuoel50gCRJNVClZ79UmqGkFatqncOpyIuUFuhIYEh0hCSpSJVYpQrVerG6BXg8OkKSpMJV6dkvlegQ0hmrao3pwN7A7OgQLdBAYEQX/nPunpAkddf50QFvqtqL1V+iAyRJleP2/+aq2rNfKk0/0jEAA6JDCnYrcFx0hBraGtgnOkKSVJRHgDuiI95UtRcrh6qSJLVW1Z79UonWBY6Ijijcz0gvVqq2Y4GVF/C/d6WqJKk7zo4OeKeqvVg9BNwVHSFJUsF8gZXa42Bgs+iIgk0jHQPQER2iBVoCODk6QpJUDIeqDbhaVZKk1qnis18qUV/gdGCx4I6S3QicGB2hhnYCdo+OkCRl71YqdhdTFV+szsFvnCVJb/NM1eaq4rNfKtWawNHREYX7CRV7wdI8/RZYbh7/vrsnJEldValVqlDNF6vngeuiIyRJKlQVn/1SyQ4AtoyOKNhUYDh+AVd1y5IGq5Ik9cQs4NzoiHer6otV5abPkiQVoqrPfqlUfYDTgEHRIQW7Ds/tzMFuwOff9e+5UlWS1BVXA+OiI96tqi9WfwemR0dIklQgX2Cl9htCugVdrfNj4KnoCDV0MunyKkmSuqOSiy+rOlSdAFweHSFJqgS3dDZXVZ/9Uum+DWwbHVGwycC+0RFqaCXgN+/4n/2iT5LUyFTgouiIeanyi1Ulp9CSJGWuys9+qXSn4iq9VroaGBEdoYaGA9tER0iSsnEx6cvTyqnyi9VlwMToCEmSCuKKICnWKsDx0RGF+yHwTHSEGhoBDIyOkCRlobKLLqs8VJ0GXBAdIUlSQar83JfqYk9gp+iIgr0O7BcdoYbeDxyFX/ZJkhbsFeBf0RHzU/WXq79EB0iSwnmmavP48ipVwx+ApaMjCnYFcHp0hBr6PjA0OkKSVGnnAbOiI+an6kPVfwMvREdIklSIqj/3pbpYATgpOqJwPwCej47QAvUlrViVJGl+Krv1H6r/ctUBnBsdIUlSIar+3JfqZHdg5+iIgk0A9o+OkCRJPfYkcFN0xILk8HJV6am0JEkZyeG5L9XJycBy0REFuwTfJSRJylXljwTN4eXqDuCR6AhJUhjPVG2eHJ77Up0sB/w+OqJwBwIvRUdIkqRuq/wXo7m8XFV+Oi1JUga8qEqqni8De0RHFOw14DvREZIkqVvuBh6Mjmgkl6Fq5afTkiRlIJfnvlQ3JwErRkcU7EK8p0GSpJxkMQfM5eXqMeD26AhJkjKXy3NfqpulgBHREYX7PvBydIQkSWqoAzgnOqIrcnq5OjM6QJIUwjNVmyen575UNzsCe0VHFOwV0mBVkiRV27XA89ERXZHTy9XZwLToCEmSMuaZqlK1HQ+sGh1RsPOAC6IjJEnSAmWx9R/yGqqOB/4eHSFJUsZyeu5LdbQ4cGp0ROG+C7waHSFJkuZpCvC36Iiuyu3lyrOmJEnqudye+1IdfQbYPzqiYC8B/xEdIUmS5umvwKToiK7K7eXqOuCR6AhJUlt5pmrz5Pbcl+rqGGBIdETBzgYuiY6QJEnv8YfogO7I8eXKLVGSJPVMjs99qY4GAX/Cc5BbaX9gQnSEJEl6y73AbdER3ZHjy9XpwMzoCEmSMuSARsrHFsCB0REFex74QXSEJEl6S3ZHfuY4VB0H/CM6QpKkDOX43Jfq7GhgreiIgp0OXBEdIUmSmAr8OTqiu3J9ucpuei1J6jHPVG2eXJ/7Ul0tShr8LRTcUbJ9gdejIyRJqrm/AROjI7or15erq4CnoyMkScpMrs99qc6GAQdHRxTsWeCH0RGSJNVcVhdUvSnXl6sO4LToCEmSMpPrc1+qu18C60ZHFGwEcHV0hCRJNfUAcFN0RE/k/HJ1GjA7OkKSpIx4UZWUpwHAGUC/6JCC7QNMjo6QJKmGsj3iM+eh6rN4sLwk1YFnqjZPzs99qe42AQ6JjijY08CPoyMkSaqZacCZ0RE9lfvL1R+jAyRJykjuz32p7g4DhkZHFOxk4NroCEmSauTvwPjoiJ7K/eXqUuDF6AhJkjKR+3Nfqrv+pGMA+keHFKqTdAzA1OgQSZJqIssLqt6U+8vVLOBP0RGSJGUi9+e+pLRS9bDoiII9DvwkOkKSpBp4CBgVHdEbJbxcnYrn7UlSyfw9vnm8qEoqwyGkM1bVGicCN0ZHSJJUuOyP9CxhqPo4MDI6QpKkDJTw3JcE/UjHAAyIDilUB7A38EZ0iCRJhZpO+rNM1kp5uRoRHSBJUgZKee5LgnWBI6IjCvYIHrMgSVKrXAi8Eh3RW6W8XF0IvBodIUlSxZXy3JeUHAxsFh1RsOOAW6MjJEkqUBGLI0t5uZoOnBUdIUlqCc9UbZ5SnvuSkr7A6cBiwR2lmg3sRXrXkCRJzfEYhRzjWdLLVRFTbkmSWsiLqqTyrAkcHR1RsAeBw6MjJEkqyB8pZOFMSUPVMcAN0RGSJFVYSc99SW87ANgyOqJgxwB3RkdIklSAmcCfoiOapbSXq99GB0iSVGGlPfclJX2A04BB0SGFmkU6BmBGdIgkSZm7GBgXHdEspb1cXQCMjY6QJDVVEVtDKqK0576ktw0Bjo2OKNh9wJHREZIkZe6U6IBmKu3lajbwf9ERkiRVVGnPfUlz+zawbXREwY4G7o2OkCQpUw8AV0dHNFOJL1cjgKnREZIkVZAXVUnlOxVYIjqiUDNJxwDMig6RJClDJ0QHNFuJQ9XxwFnREZIkVVCJz31Jc1sFOD46omB3A/8THSFJUmZeocBZXakvVyfgGXySVAp/P2+eUp/7kua2J7BTdETBjgDuj46QJCkjpwDToiOardSXqweBq6IjJEmqmFKf+5Le6w/A0tERhZpBOgZgdnSIJEkZmEmh9x+V/HJV3FkNkiT1UsnPfUlzWwE4KTqiYHcAx0ZHSJKUgXOBF6IjWqHkl6t/Ao9ER0iSVCFeVCXVy+7AztERBfs58FB0hCRJFXdcdECrlDxU7QROjI6QJPWaZ6o2T8nPfUnzdjKwXHREoaYDewMd0SGSJFXU9cBd0RGtUvrL1enAxOgISZIqon90gKS2Ww74fXREwW4Gjo+OkCSpoop+RpY+VJ0MnBodIUlSRSwcHSApxJeBPaIjCvZT4NHoCEmSKuZJ4KLoiFYqfagK6YB+t+RIUr7c/t88rlSV6uskYMXoiEK9AQzH55UkSe90IoXP4+owVH0S+Ed0hCRJFeBKVam+lgJGREcU7HrS4FqSJMEkarBzvA5DVSj8DAdJkrrIlapSve0I7BUdUbBDgSeiIyRJqoDTgNejI1qtLkPV64B7oyMkSQrmSlVJxwOrRkcUagqwDx4DIEmqtw7gt9ER7VCXoSrACdEBkqQe8eW0eVypKmlxarAdL9BI4JToCEmSAl1CTXZu1Gmo+hfg5egISZICuVJVEsBngP2jIwr2I2BsdIQkSUGOiw5olzoNVacDv4+OkCQpkCtVJb3pGGBIdEShJgH7RkdIkhTgbtIRnLVQp6EqwMnAzOgISZKCuFJV0psGAX8C+kSHFOpKPGZBklQ/tboovm5D1ReA86IjJEnd4pmqzeNQVdI7bQEcGB1RsIOB56IjJElqkxeBv0ZHtFPdhqoAv4kOkCQpiNv/Jb3b0cBa0RGFmgjsFx0hSVKbnAzMiI5opzoOVe8GroiOkCQpgCtVJb3bosDpwELBHaW6HDgzOkKSpBabRhqq1kodh6oAR0UHSJIUwJWqkuZlGGmrulrjINIxZJIkleps4OXoiHar61D1+jk/JEnV55mqzeNKVUnz80vgw9ERhRoPfCc6QpKkFukAfh0dEaGuQ1VwtaokqX4cqkqanwHAGUC/6JBCXQycEx0hSVIL/A14JDoiQp2HqlcAd0VHSJLURoOiAyRV2sbAodERBTsAGBcdIUlSE3UCR0ZHRKnzUBXSbaeSJNXF4OgASZX3M2BodEShXgW+Fx0hSVITXQLcFx0Rpe5D1QuAh6IjJEkL5JmqzeNQVVIj/UnHAHixXWucP+eHJEklqO0qVXCo2gH8KjpCkqQ2cagqqSuGAodFRxTse8Ar0RGSJPXSVcBt0RGR6j5UBfgz8HR0hCRJbeBQVVJXHQJsEh1RqHHAgdERkiT1Uq1XqYJDVYBZwLHREZIktcHi0QGSstGPdAzAgOiQQp0DXBwdIUlSD90AXBcdEc2havJH4KXoCEnSPHmmanP0AQZGR0jKyrrAEdERBdsfGB8dIUlSD9R+lSo4VH3TNOD46AhJklpoEGmwKkndcTCwWXREoV4EDoqOkCSpm+4EroiOqAKHqm/7HTAhOkKSpBZx67+knugLnA4sFtxRqjOBy6MjJEnqhqOiA6rCoerbXgdOio6QJKlFVo0OkJStNYGjoyMKth8wMTpCkqQuGANcGB1RFQ5V53Y8MCU6QpI0F88BbY41ogMkZe0AYMvoiEI9RzpmQZKkqjsK77x4i0PVub0KjIiOkCTN5dM4EGwGfw0l9UYf4DTS+cxqvlOBK6MjJElagMeBv0ZHVIlD1fc6FpgRHSFJestCwA+jIwowJDpAUvaGkP6srNbYF5gUHSFJ0nz8CpgdHVElDlXf6znSgfGSpOrYC1g+OiJzG0QHSCrCt4FtoyMKNRb4UXSEJEnz8CxwRnRE1ThUnTen75JULYsA/xEdkbG1gY2iIyQV41RgieiIQp0CjIyOkCTpXY7BXd3v4VB13h4D/hYdIUmay3eBwdERmRoeHSCpKKuQLnhV83WSfs/28lxJUlWMw/uH5mmh6IAKexj4DulQfklSvEWAicCN0SGZ+SBpq06/6BBJRdkAeAAYEx1SoAmks1W3jw6RJAk4Arg2OqKKHBgu2DnAbtERkqS3TCJtZX8+OiQjlwE7REdIKtJEYEPgyeiQAvUBrgM+GR0iSaq18cDqeJHiPLn9f8EOA2ZFR0iS3jIY+E10REZ2woGqpNZZAjgX6B8dUqBOYG/gjegQSVKtnYgD1fly+/+CvUaayHu5hyRVx3rAHcCj0SEVtyhwMbB0dIikoq0MDASujA4p0Gukoep20SGSpFp6Hdgdv+CbL7f/N7Ya6cV94egQSdJbxgObAE9Eh1TYn4GvRUdIqoVO0sr4y6JDCtQXuAEYFh0iSaqdnwO/jI6oMrf/NzYWOCU6QpI0l6WAC4HFokMq6gc4UJXUPn1IF+KtHB1SoA7SMQDTokMkSbXyMvC/0RFV51C1a44EpkZHSJLmsj5wKTAoOqRitgKOiY6QVDvLkC559Xix5nsI+EV0hCSpVo4CJkdHVJ1/6OmaKcDiwCeiQyRJcxkCfBo4H5ge3FIFXyD9WgyIDpFUS6uTFm2MjA4p0C3A9rgaWJLUemOBbwGzo0OqzjNVu25p0tl9S0SHSJLe4z5gV+Dh6JBAPwKOxl0okmJ1ANsC10SHFOjDwF1414MkqbWGA6dFR+TAlapd9wbQn7QiSpJULe8D9gJeAO4Jbmm3ZYE/AP+JX5ZKiteHNFQ9i7TbS83z8py/bhVaIUkq2UPAt0mXUKoBX766ZzBpteqy0SGSpPk6DzgQeCk6pMUWAvYHjiBd3CVJVXIl8Fl8KWu2fsBtwIbRIZKkIu1KOk5MXeBK1e6ZwdtbmiRJ1fRh0paVV4G7g1taoS9pUHEu6UboRWNzJGmePkA66/qG6JDCdJDOVx2O73KSpOa6E/hBdEROXKnafYsAjwMrRYdIkhoaRdq+8lB0SBN8gHRg/J7AqrEpktQls4AtgJuiQwp0OHBYdIQkqSjbkXaaqIscqvbMd4DfRUdIkrpkBukCp6Pm/OsqWQgYNI8fg4E1gXXn/FgHt/hLytNY0lb116JDCtOftKLoI9EhkqQiXIt3CHWbQ9We6U+6YXpIdIgkqcteoLUv9X1JQ9K+7/ix0Hz+dV/Stv0BLeyRpKq4GPhidESBNiYdBdAvOkSSlL1hpGeKusGhas99Czg9OkKSJEnKwEHACdERBToKODQ6QpKUtX8AX4iOyJFD1Z7rC9xP2pIpSZIkaf5mAJuRtqyreQYAd5GOipEkqbs6gKGk+Za6qW90QMY68HB4SZIkqSsWBs4FFo8OKcx0YG9gdnSIJClLf8GBao8tFB2QuQeBzwMrRodIkiRJFbc06U6Cv0eHFOY50gWHm0WHSJKyMhPYBRgfHZIrh6q99wzwtegISZIkKQPrAc+Ttqyrea4HvgIsEx0iScdLvbUAACAASURBVMrGKcDZ0RE580zV5rgRvxmWJEmSuuINYFPcbthsmwOj8Ig3SVJjU4EPAC9Gh+TMB25zeOOmJEmS1DWLks5XXSw6pDA3AidGR0iSsvBbHKj2mitVm+cC4EvREZIkSVImTgOGR0cUZjFgNGn1kSRJ8zIBWAPPUu01V6o2z4+AGdERkiRJUib2xrsJmm0qaVDdGR0iSaqsX+NAtSm8qKp5XgOWAoZFh0iSJEmZ2BY4n/RnaTXH08DywEejQyRJlfMisAcwMzqkBG7/b64lgcfw1k1JkiSpq+4mLUyYHh1SkEHAfcD7gzskSdWyHzAiOqIUrlRtrmmkLTc7RIdIkiRJmViRtDjhn9EhBZkBPAB8MzpEklQZ9wD74xExTeNQtfnuAr4CLBsdIkmSJGViU9IFSw9FhxTkCWBlYOPoEElSJewGPBUdURK3/7fG54BLoiMkSZKkjEwANiCdCarmWBy4H1g1OkSSFOrvwC7REaVxqNo6VwHbREdIkiRJGbkF+CQwKzqkIJ/FoxUkqc6mA+sAT0aHlMbt/61zD/BtHFxLkiRJXbUKsAhwdXRIQR4jXVi1QXCHJCnGscD50RElcuDXWn8A9o2OkCRJkjLSSbr49YrokIIsSbq4aqXoEElSW70IrAlMjg4pUd/ogML9DJgUHSFJkiRlpA9wJg4Am2kC6cZnSVK9/AQHqi3j9v/WmjLnr1uHVkiSJEl5GUi6tf4s0spV9d4jpNVK60eHSJLa4k7ge9ERJXP7f+stAjwErB4dIkmSJGXmF8Dh0REFWRoYA7wvOkSS1HKfBG6IjiiZ2/9bbxpwSHSEJEmSlKHDgC2jIwryGvDd6AhJUsudhwPVlnOlavvcDHw8OkKSJEnKzPOkm+tfjg4pyLnAV6IjJEktMQ1YG3g6OqR0rlRtnx9EB0iSJEkZWgk4AxeENNP3gVeiIyRJLXEsDlTbwouq2udZ0jcF60WHSJIkSZlZk3QJ7E3RIYWYCowFdokOkSQ11fPAV4GZ0SF14Le97bU66dKqRaJDJEmSpMzMBD4F3BIdUpALgC9FR0iSmuabwFnREXXh9v/2eho4LjpCkiRJylB/4K/AktEhBfkO6fIqSVL+bgP+HB1RJw5V2+9o4KXoCEmSJClDqwOnRkcU5CXgP6IjJElNcRDQGR1RJ56p2n4zSDeXfjE6RJIkScrQOqRLlm6PDinEaGATYK3oEElSj/0FOCE6om48UzXOdaQzoSRJkiR1z3Tg48A90SGFWAl4AI9WkKQcTQU+RLogXW3k9v8438Xb2CRJkqSeGACcBwyKDinE88B/RkdIknrk1zhQDeH2/zgvA4OBzaNDJEmSpAwtQzpj9YLokELcQ1r9+8HoEElSlz0D7A7Mig6pI7f/xxoIjAFWiw6RJEmSMrU38KfoiEKsCtwPLB4dIknqkl2B86Mj6srt/7GmkG5nkyRJktQzJ5Eur1LvPQP8V3SEJKlLLsOBaihXqlbDpcCO0RGSJElSpu4HNgXeiA4pxNXA1tERkqT5mgqsCzwdHVJnrlSthgPwD4CSJElST60HnBAdUZB9gMnREZKk+TocB6rhvKiqGiaQVg1vFR0iSZIkZWpj4GHSqlX1zgTgdWCH6BBJ0nvcB+wJdAR31J7b/6tjYdI/GGtFh0iSJEmZmgRsCDweHVKAPsBIYIvoEEnSWzqBzYGbo0Pk9v8qmQF8NzpCkiRJythg4FzSggX1TicwnHRunySpGkbgQLUy3P5fLU8Ca5POhJIkSZLUfSsBiwNXRIcUYDxpqPrZ6BBJEuOALwLTokOUuP2/elYEHiL9QVCSJElSz3wRuDg6ogB9geuBzaJDJKnmvg6cHR2ht7n9v3peAH4WHSFJkiRl7jRg1eiIAnQAe+PKKEmKdDUOVCvH7f/VdAewE2nVqiRJkqTuWxTYFDgTb0jurVdJd0B8JjpEkmpoOvA54LXoEM3NoWo1dQL3kA6G94gGSZIkqWdWA/oD10SHFOBW0tmqK0eHSFLNHAFcGB2h93JgV22nAPtFR0iSJEkZ6yQNA6+MDinAusBdwIDoEEmqiYeB9Um7BVQxnqlabYcCL0dHSJIkSRnrA5wFrBAdUoAxwC+jIySpRvbHgWplOVSttteAH0dHSJIkSZlbHvgzvv80w69Jq1UlSa11JnBtdITmzzNVq+9eYGvSeVCSJEmSemYNYBYwKjokcx3ALcA++D4pSa3yGvB5YGp0iObPh2Ae3vxDS7/oEEmSJCljWwAjgbHRIZl7ibTqd8vgDkkq1QHADdERWjAvqsrHT4AjoyMkSZKkzD0HDAVejQ7JXH/gdtKvpSSpea4nfQnYGR2iBXOomo9+wK3ARtEhkiRJUuYuJW2r9IW1dzYEbsMddZLULDOBDUgXA6ri3P6fD88ukiRJkppjLeB14ObokMy9CAwAPhUdIkmF+BVwbnSEusbhXF5eIv3/bMvgDkmSJCl3WwFXAM9Hh2TuBuDLwPLRIZKUuceB3UmXKioDbv/PT3/gDmD96BBJkiQpc0+StrBPjA7J3EdJq35dtCNJPdNJWkA3KrhD3dA3OkDdNhPYC7+5kCRJknprCDAiOqIAtwO/iY6QpIz9Fgeq2fGbxDy9ACwCfDI6RJIkScrch0nHbN0RHZK5G4BdgWWjQyQpM48Cu+Diuey4/T9fA4C7gHWjQyRJkqTMTQM+BoyODsncMNJw1R2RktQ1HaQFczdFh6j7fNjlazqwNzA7OkSSJEnK3CLAecDA6JDM3QycEB0hSRn5XxyoZsvt/3l7DhgMbBYdIkmSJGVuWWAV4KLokMyNAr4KLB0dIkkV9yCwG277z5bb//O3CHAvsFZ0iCRJklSAbwFnRkdk7lPAtfi+KUnzM5u0QO626BD1nNv/8zcNGE46h0OSJElS7/wO+FB0ROZGAf8XHSFJFfZrHKhmz28Oy3ECcGB0hCRJklSA0aSLq6ZFh2RsIHAfMCQ6RJIq5n5gY2BGdIh6x5Wq5TgUeCI6QpIkSSrA+sBx0RGZmwLsA3RGh0hShcwiHTPjQLUAXlRVjpmkb4K/iSuQJUmSpN7aBHgAGBMdkrEngRVJv5aSJPhv4JzoCDWHw7fynAzsHx0hSZIkFWAisCFpOKieGUza6rpadIgkBbsH2JS0KE4FcKhaHv/QIkmSJDXP7cDm+BLcG9sC/4qOkKRAM0mr9kdHh6h53P5fnhmkLUrfiA6RJEmSCrAy6dKlK6NDMvY4adHHhtEhkhTkcOBv0RFqLleqluuPwPDoCEmSJKkAncBOwGXRIRlbgnRG7crRIZLUZncAw0iXVKkgDlXLNZh0Xsca0SGSJElSAV4FhgLPRYdkbEfg0ugISWqj6cDGpC+VVJi+0QFqmUnA1/CbEEmSJKkZliHd2OwRaj13GXBWdIQktdEvcKBaLP9AULZnSYPzLYM7JEmSpBKsTvrz9cjokIxdC3wLGBTcIUmtdivpWMbO6BC1htv/y7cQMArYLDpEkiRJKkAH6Tb7a6JDMvZF4MLoCElqoWnABsDD0SFqHbf/l2828HXg9egQSZIkqQB9gT8Dy0eHZOwi4K/REZLUQv8PB6rFc6VqfXwDODM6QpIkSSrElcBncVtnTy1LOmfQ4bSk0lwDfAafD8XzTNX6GA2sDawXHSJJkiQV4AOkW51viA7J1FTgaWDX6BBJaqJXSEfETIoOUeu5UrVelgTuBVaLDpEkSZIKMAvYArgpOiRj5wM7R0dIUpPsBFwaHaH2cKhaP58i3VbqebqSJElS740FNgReiw7J1PLAGGCZ6BBJ6qUTgQOjI9Q+bv+vn6eBRYBPRodIkiRJBViCdMyWFy/1zBTgWVytKilv9wJfIV0WrppwqFpPo4DtgZWiQyRJkqQCrA1MAG6NDsnUfcBGwIeiQySpB6YC2wEvRoeovdz+X19rAXcBA6NDJEmSpALMADYD7owOydSKwAPAUtEhktRN+wEjoiPUfp6rWV+PAD+IjpAkSZIKsTBwLrB4dEimXsD3E0n5OR8HqrXl9v96uwsYCqwTHSJJkiQVYGlgCPD36JBM3QtsCqwZHSJJXTAW2AGYFh2iGG7/1zLAaDxfVZIkSWoWt4L23CqkYwBc8SupymYDWwI3BHcokNv/9SqwJ9AZ3CFJkiSV4gRgveiITD0LHBwdIUkNHIED1dpz+78AngCWAIZFh0iSJEkF6E9awXQ6MDO0JE93AZsDH4gOkaR5uB4YjovTas/t/3rTAOBW0hmrkiRJknrvNNKLt7pvdeB+YFB0iCS9w3jS3OSZ6BDFc6Wq3jQbGAXsTfpmXZIkSVLvbAg8BtwXHZKhicAEYMfoEEl6h28At0RHqBpcqap32wcP1ZckSZKaZTKwEfBodEiG+gDXAJ+ODpEk4A/At6MjVB0OVTUvZwDfjI6QJEmSCnE36f6C6dEhGVoDGA0MjA6RVGtjgE2AN6JDVB1u/9e8XAl8AVg+OkSSJEkqwIrAUsDl0SEZGk9a7bt9dIik2poOfBZ4LjpE1eJKVc3P2sDteDC8JEmS1Cw7AxdER2SoD+n+h09Eh0iqpQOBE6MjVD0OVbUguwHnREdIkiRJhZhAurzqqeCOHK0J3AssGh0iqVYuBXaKjlA1uf1fC3I/6QiAj0aHSJIkSQVYBPg46Q6DjuCW3LwGTAO2jQ6RVBvPk7b9T40OUTU5VFUjV5POL1opOkSSJEkqwCqk1ZZXRYdk6FZgO9KvoSS10kxgR+Dh6BBVl9v/1RXvB+4iHa4vSZIkqXc6gR2AK6JDMrQOcDcwIDpEUtE8R1UN9Y0OUBaeAr5J+sOfJEmSpN7pA5yJu8F64kHgF9ERkop2Ng5U1QVu/1dXPULapuSNm5IkSVLvDQQ2Bs7CxQvddTNppa9DaUnNdh/wBdL2f2mBHKqqO0YCWwKrB3dIkiRJJXj/nL9eG9iQo07SYHUffKeV1DwTga2Bl6JDlAcfQOqOTuBfwNeBQcEtkiRJUgk+BYwiHbmlrhtHOkbh09EhkorQCXyV9IWN1CVeVKWe2Ip0W6ln8kqSJEm99zywAfBydEhm+gG3k37tJKk3jgR+Gh2hvLhSVT3xJNBBGq5KkiRJ6p3BwEeAv0SHZKYDuBUYju+2knruStJxIp5vrW7xwaOeuh74GPDB6BBJkiSpAB8EpgI3Rodk5kWgP7BFdIikLD0NbEf6/VfqFrf/qzeWAe4GVo0OkSRJkgowC/gkcEt0SGYWBu4E1osOkZSV6cDmpN8/pG7zTEz1xqvAV4CZ0SGSJElSAfoBfwWWjA7JzAxgL2B2dIikrHwfB6rqBbf/q7eeBSYBn40OkSRJkgqwJPAh4NzokMw8DywKfCI6RFIWTgV+ER2hvDlUVTPcAnx4zg9JkiRJvbMOaVfYbdEhmbkB2AVYNjpEUqXdQfq9wtXt6hXPVFWzDARuAtaPDpEkSZIKMB0YRrrDQF03jDRc9ag7SfPyKrAx6YIqqVd80KhZpgBfAF6JDpEkSZIKMIB0BMCg6JDM3AwcHx0hqZI6gD1woKomcaiqZnqKtITei6skSZKk3lsT+H10RIZ+CjwaHSGpcn4OXBkdoXJ4pqqa7WnSatUdo0MkSZKkAqwPPIPHAHTHLOAeYE888k5Scgnw3egIlcWhqlrhDmBFYJPoEEmSJKkAnwEuAl6ODsnIWGAZ4GPRIZLCPQZsD0yLDlFZ/NZOrdIfuBr4VHSIJEmSVID7gU2BN6JDMjIQGA2sER0iKcxU0gV2o6NDVB7PVFWrzCSdr+oB0JIkSVLvrQecEB2RmSnAPkBndIikEJ2kY0AcqKol3P6vVpoKjAS+ASwc3CJJkiTlbmPgYdKqVXXNU8AKeDSZVEeH4WV/aiG3/6sddgHOw7/fJEmSpN6aBGwIPB4dkpHBpEH0atEhktrmbODr0REqmytV1Q5jSH+vbREdIkmSJGVuALA5cDowOzYlGzNI7yTfiA6R1BY3A1/G3yPVYg5V1S7XAkOBtYM7JEmSpNytBCwOXBEdkpHHgVWBjaJDJLXU08DWwOvRISqf27HVToNI3xitFx0iSZIkFeCLwMXRERlZAngAWDk6RFJLTCKt5L8vOkT10Dc6QLUyGfg88Gp0iCRJklSA00irL9U1E4H9oiMktUQHsDsOVNVGDlXVbk8CuwKzokMkSZKkzC0NnAP0iw7JyOXAmdERkpruh8Bl0RGqF89UVYSngPHADsEdkiRJUu5WA/oD10SHZOQ64JvA4OgQSU0xAvh/0RGqH4eqinIb6SyjjaNDJEmSpMx9gnR3wePRIZmYBjwG7BYdIqnXRpK2/XdEh6h+vKhKkfoD/yb9IVCSJElSz40DhgIvRodk5C+kYYykPD0KfIy0E1ZqO4eqirY8cDtp25IkSZKknrsG2BZXbHXVMsAY0juJpLyMBz4OPBIdovpy+7+iTQGuBr4GLBLcIkmSJOVsDdKFsKOiQzLxBum+h68Ed0jqnlnA54E7okNUbw5VVQXjSGes7o5/T0qSJEm9sQXpjMGx0SGZGAOsB6wbHSKpy74DnB8dIbn9X1XydeCs6AhJkiQpc8+Rzld9NTokE8sDDwDLRodIauh44AfRERK4KlDVMpq0jH+r6BBJkiQpY4uTVl7+NTokE1OAZ4Gdo0MkLdDlwJ5AZ3CHBDhUVfVcD6wMbBwdIkmSJGVsLeB14ObokEzcD2wIrB0dImme7ge2B6ZHh0hvcvu/qqgf8A/Sb5iSJEmSemYmsDlwe3RIJlYgnbG6VHSIpLmMAz5GulhOqoy+0QHSPMwi3cB5V3SIJEmSlLH+wLnAEtEhmXgROCg6QtJcpgNfwoGqKsihqqpqMrAj8HR0iCRJkpSxIcCI6IiMnEk6t1FSvA7ga8BN0SHSvDhUVZW9SDoCYHx0iCRJkpSxXYH9oyMysh8wMTpCEgcAf4+OkObHoaqq7kHSUv8Z0SGSJElSxo4D1o+OyMRzwMHREVLN/Tfwu+gIaUG8qEq52A34C/49K0mSJPXUw8DGwJTokEz8C9g2OkKqoT8C+0ZHSI0sFB0gddH9wDRgm+gQSZIkKVPLAqsCF0aHZGIUsA8wIDpEqpFLgG8AndEhUiMOVZWTG4HlgY9Gh0iSJEmZGkq6DPae6JAMTCTd7/C56BCpJm4CPo/H/ykTbqVWbhYifbO+U3SIJEmSlKmpwCak+wu0YH2Aa4BPR4dIhRsDfBJ4LTpE6iqHqsrRYsC1uGJVkiRJ6qn7gU2BN6JDMjAEuA8YGB0iFeo5YBjwTHSI1B1u/1eOZgIXAzsDSwW3SJIkSTlaHngf6fxCLdgEYBKwfXSIVKAJwNbAY9EhUne5UlU5W4t05soy0SGSJElSpvYAzomOyEAf4DrS9mRJzTEN2Ba4PjpE6gmHqsrd5sBVwKLRIZIkSVKGJgEb4SqxrvggMBrfPaRmmA3sAlwUHSL1VN/oAKmXbiQdAzAzOkSSJEnK0GDgPGBAdEgGHgN+Gh0hFeJ7OFBV5jxTVSV4DHiINFx19bUkSZLUPSsCSwL/jA7JwK2k7cqrRodIGTsc+E10hNRbDqBUkuHAH6MjJEmSpEx9GbgwOiIDawN3A4tEh0gZOgXYPzpCagZXqqokd5POhNouOkSSJEnK0HbAuaTbuDV/rwCzgG2iQ6TMXATsCXQGd0hN4VBVpbmZ9Pf1FtEhkiRJUmYWAYYBZwAdwS1VdwuwPbBydIiUiRuAL+B9KCqIQ1WVaCSwNPCx6BBJkiQpM6uQbre/Kjqk4jqBm4B98L1aauQB0lnEk6NDpGbyN3+V6l/A6sAG0SGSJElSZoYBtwOPRodU3Mtz/rpVaIVUbU8AWwPjokOkZvOiKpVsIeA80oH7kiRJkrruFdICheeiQyquH3AbsGF0iFRBzwCfBJ6ODpFaoW90gNRCs4HdgSujQyRJkqTMLAucg7sbG5kF7IXnRErv9gJpFbcDVRXLB6RKNxu4ANgSWC02RZIkScrK6qR3xn9Hh1TcS6QVq16WKyUvA58GHokOkVrJ7f+qiyWAa/GMVUmSJKk7OoDtgKujQyquP3An8JHoECnYa6SB6ujoEKnVHKqqTpYHRgEfig6RJEmSMvISMHTOXzV/GwO3kFatSnU0EdgGuCM6RGoHz1RVnYwDPgOMjQ6RJEmSMvI+4Gx8f2zkTuDY6AgpyGRgBxyoqkY8U1V18zpwGfBVYGBwiyRJkpSLNUiXMo2KDqm4G4CdgeWiQ6Q2egPYkfT3v1Qbbv9XXQ0lnbG6ZHCHJEmSlIvZpLMSr48OqbiPAzfiyl7Vw3Tg88CV0SFSu/mbvOrqXtLWhCnRIZIkSVImFgLOAZaNDqm4W4DjoiOkNpgJ7IoDVdWUK1VVd9sAlwIDokMkSZKkTFwOfA7ojA6psEVJCznWjA6RWmQ2sBtwfnSIFMUzVVV3TwC3A7vgLZ2SJElSV6xJupTmpuiQCpsF3A3siYuZVJ4O4FvAudEhUiSHqhI8Thqs7oqDVUmSJKkrPk3a8vtcdEiFjQWWAT4WHSI1USewH3BGdIgUzW/MpLdtC1wMLBIdIkmSJGXgKWBDYEJwR5UtBtwHrBEdIjXJ94DfRUdIVeBFVdLbriTdWvhGdIgkSZKUgfcDp0VHVNxUYDieP6sy/BAHqtJb3P4vze0J0m2duwL9g1skSZKkqlsHeA24LTqkwp4C3gd8NLhD6o2fAb+KjpCqxO3/0rxtDVxCurVTkiRJ0vxNBzYD7ooOqbBBwP3A6tEhUg8cCfw0OkKqGrf/S/N2DfA50nYdSZIkSfM3gHQL+ODokAqbDOwbHSH1wK9woCrNk9v/pfl7ErgZjwKQJEmSGlkaGAL8PTqkwp4AVgE2ig6RuuhwHKhK8+X2f6mxLYHLSDd3SpIkSZq//YAR0REVtjjwAGm4KlXZocD/REdIVeZQVeqaLUiD1YHRIZIkSVKFvQFsSjo/VPO2PXB5dIS0AAcBJ0RHSFXnmapS11wH7ABMiQ6RJEmSKmxR4Dzc5bUg/wTOiI6Q5qET+A4OVKUucaWq1D2fIn2r7IpVSZIkaf5OB/aKjqiwpUjHAKwYHSLN0QHsA/wpOkTKhRdVSd3zNHA96fKqhYNbJEmSpKragHQx0+jokIqaBjwK7B4dIgGzgG8AZ0WHSDlxparUM58gbdsZFB0iSZIkVdRkYBPg4eiQCjsb2CM6QrU2E9gNuCA6RMqNQ1Wp5zYnDVYHR4dIkiRJFXUv8HHSyky91zKkYwDeFx2iWpoO7AJcGh0i5ciLqqSeuxH4LDApOkSSJEmqqKHAcdERFfYq8L3oCNXSVGAnHKhKPeaZqlLvPAOMBHYm3XQqSZIkaW6bAGPm/NB7PQh8eM4PqR0mAzsC/44OkXLm9n+pOT4CXAmsEB0iSZIkVdDrwIaky6v0XsuRhs7LRoeoeBOB7YGbo0Ok3Ln9X2qO+0iXVz0ZHSJJkiRV0OLAucDC0SEV9TJwQHSEivcasDUOVKWmcPu/1Dzjgb8B2wHLB7dIkiRJVbMSabh6RXRIRd0PbACsHR2iIr1MGqjeEx0ilcLt/1LzLQVcTrrlVJIkSdLcvghcHB1RUSsADwBLR4eoKC+QBqoPRodIJXH7v9R844FtgKuiQyRJkqQK+hOwWnRERb0IHBQdoaI8A3wKB6pS0zlUlVpjCvA54PzoEEmSJKlilgLOAfpFh1TUWcBl0REqwpOkgepj0SFSiTxTVWqd2cAFpLOjNgpukSRJkqpkVWAAcHV0SEVdBwwHFokOUbZGA1sBz0aHSKVyqCq1VidwCbAYsHlwiyRJklQlmwO3AI9Hh1TQJGAc8IXoEGVpFLAt8Ep0iFQyh6pSe1wNTCOdtSpJkiQpXZy8HfBnYHJwSxXdDQwDPhgdoqxcCHyJdCSdpBbqEx0g1cx+wMl4nrEkSZL0pmtJN5N3BHdU0arAA8Dg6BBl4RTgu/jPktQWrlSV2utO4CHSNh7/+ZMkSZLg/XP+em1gQ1W9DrxGugRXWpBfAj8kHUEnqQ1cqSrF2JZ0idXA6BBJkiSpAjpIR2WNjA6poD6k48S2ig5RJXUA3yftiJTURg5VpTjDgMuApf5/e3cebvtV13f8nQFIAmEmEDAhAqImQCGMiSDBVASZtSqoaEVtH+tQhz5K7ehYLLZVW6XIJDKEeVBQBNIwhiEEJCBBpoiUQBIIkITMubd/rJve3JDk5t57zll7eL2e5/ecfe6w9+eP5J7f/uy1vmt2EAAAWABfqO7bOKCJXX1z9ZEsymBXl1U/Ur16dhBYR+Y6wjzvqR5efXF2EAAAWACHVy/K4p/rclb19NkhWChfqx6VQhWmMdMR5jq3cTrj47JiFQAA7t5Yffeu2UEW0GnVI6q7zg7CdF9sjMt43+wgsM58AgiL4fDqrxrbnQAAYJ1dWZ1QvXtyjkV0j+qM6uDZQZjmk9X3NFYvAxPZ/g+L4QvVw6q/nh0EAAAmO7A6qbrt7CAL6FPVv5sdgmk+UH1HClVYCLb/w+K4vHpZdVj1gMlZAABgpltVRzfKVXb1/uq7qyNmB2FLvaX63uqrs4MAg1IVFsv26o3VxY0ZOUZ0AACwrr61uqB67+wgC2Z7YzTCTzVW9bL6Tqp+oLp0dhBgJ6UqLKZTq481DrByowQAwLr6rupN1dmzgyyYL1dXNFasstr+oPqX1VWzgwC7sgoOFttx1V9Ut58dBAAAJvlMdWz1tdlBFswBjcUYD5odhE3z9Or3ZocArpuDqmCxvad6SOOERwAAWEd3q54zO8QCuqp6WuNsBlbLldVPpFCFhWb7Pyy+r1QvrY6vjpycBQAAZjimOrdx+jk7ndeYsfpds4OwYb5WPal69ewgwA2z/R+Wx82qP6uePDkHAADMcGljF9eHZwdZMAdW72uMSGC5nVU9tnG+BrDgbP+H5XFZ9cPVM2YHAQCACQ6qXl7dYnaQBXP1VvErZgdhn5xaPTiFKiwN2/9h+Zxcfb763nwwAgDAiA0gtQAAGGtJREFUerl9YyTWa2cHWTDnNN7fnzA5B3vnpdX3VRfMDgLceEpVWE4fbGzxeWJjLAAAAKyL+1Sfqz40O8iCeXf1hOqOs4OwR/5z9QuNg8eAJWKmKiy3+1RvrL5pdhAAANhCF1cPzFbpazu2sfjiwNlB2K3LGmMbTpodBNg7tg7DcjujMaz/b2cHAQCALXRI9Yrq4NlBFswHq2fODsFunVd9VwpVWGpWqsJquEXjpvLRs4MAAMAWel71U7NDLJibNcrVo2cH4Tp9rHpsddbsIMC+MVMVVsPl1cuqw6oHTM4CAABb5djqk9VHZgdZIFdVpze2ltuduljeXD2q+uLsIMC+U6rC6tjemK96XvXI/P8NAMB6eGT1qur82UEWyOerQ6vjZwfh/3tW9dTqktlBgI1h+z+spodXr6zuMDsIAABsgQ9VxzUO/2E4qPpwdc/ZQdbctuqXqz+cHQTYWLYCwGp6e2MMwIdmBwEAgC1wv+q/zQ6xYC6tntYo9ZjjourxKVRhJdkeDKvra9WfV3ev7jU5CwAAbLYHNWarnjk7yAL5XHXb6iGzg6yhz1X/tHrX7CDA5rD9H9bDr1b/JavTAQBYbV9trFr9h8k5Fskh1RmNxRZsjdMaK1QdSAUrTMEC6+G/Vo9p3GQCAMCqunX1suoms4MskIurn2wcbMvme1XjjAuFKqw42/9hfXyqek1jC4oDrAAAWFXf1Fid+ebZQRbIZ6vDqgfODrLCtle/Xf1sdcXkLMAWsP0f1s+h1Ysb21EAAGAVba8eV71xdpAFcovGzNmjJudYRRdUP1a9fnYQYOvY/g/r58LqidVvZQsQAACrab/qhY1VqwwXVT89O8QKOrNxSJpCFdaM7f+wvk6pPlp9b3XTyVkAAGCjHdIou/48iwmu9pnqLtX9ZwdZEa9unF3xhdlBgK2nVIX1dmb1l9WjqttMzgIAABvtyOrA6v/MDrJA3l79aHWr2UGW2Lbq16tfqC6fnAWYxExVoOq21SuqE2cHAQCADbatsYjgLbODLJBHVX89O8SSOr96Sg5Cg7VnpSpQdUn1ksYhVsdNzgIAABtpv+qRjcNaL5qcZVF8qnFg1X0n51g2f9tYiHL67CDAfFaqAtf21OpPq4NmBwEAgA10cqNc3TY7yIK4dfV31Z1nB1kSL2kc9HXJ7CDAYrBSFbi2MxpbWR6VOUsAAKyOu1VXVe+YHWRBXFp9srGVnet3ZfXL1a/teAxQKVWB63Z245TUe1ffMjkLAABslO+s3lZ9dnKORfGJxv3+fWYHWVDnVo+rXj47CLB4bP8Hbsh+jU9kf6txaioAACy7zzdmiX5pdpAFcdvqY9UdZwdZMO+rvr/x3wvAN9h/dgBgoW2vnlE9IjcTAACshrtUL8wio6udX/2r2SEWzHOqh+c9EHADbP8Hbox/rF7U2BZ0j8lZAABgX31L9fXq1NlBFsSZ1dHVMbODTHZ59TPVbzTm7wJcL5/MAXtiv+rXGzcZPpQBAGCZXdGYsfre2UEWxB0aYwBuPzvIJJ9vbPd/3+wgwHJQqgJ744TqpdXhk3MAAMC++Gx1v+ors4MsiB+qXjY7xATvqH6wOmd2EGB5mKkK7I23NYb7nzw5BwAA7Iu7Vs+fHWKBvLx67ewQW2hb9TvVd6VQBfaQ7bvA3vp69eLGYVbfmZXvAAAsp29rrFS17Xt4W/W06uDJOTbbF6onVc9rvKcB2CNKEGAjnFi9pLrj7CAAALAXLq+Or06fHWRB/GjjoNpV9abqx6tzZwcBlpft/8BGOLkxDuCU2UEAAGAv3LSx9f2Ws4MsiBdXb5gdYhNcUf1q9b0pVIF9ZPs/sFEuatx87V89NCvhAQBYLret7la9anaQBfH26ierg2YH2SBnVY+pXjE7CLAalKrARtreWK363upR1c3nxgEAgD1yr8asTWMA6sLGas4nzA6yAV7VKFQ/PTsIsDqsJAM2y52rkxqHWAEAwLK4pHpw9ZHZQRbEXzcWTCyjS6tfrJ49OwiwepSqwGY6oPqt6un59wYAgOVxZvXA6uuzgyyAI6qPtnzzZs+sfijlOLBJbP8HNtP2xiFW76xObPluxAAAWE93qO5SvW52kAVwQXV+9bjZQfbA86snVZ+fHQRYXUpVYCucVb2gumt178lZAADgxrhv4z72w7ODLIDTq4c1DvJaZBdWP1H9TnXF5CzAirMdF9hqT6n+pLr17CAAALAbX68eUH18dpAFcFRjK/0tJue4Pqc3tvs7jArYEvvPDgCsnZOq+1SnzA4CAAC7cfPqldXBs4MsgH9onJWwiP6gOj6FKrCFbP8HZrig+vPG9pyHVwfOjQMAANfrsOpO1V/MDrIAPlCd0Fi1ugi+3Fid+j+rqyZnAdaM7f/AbPepXpxZqwAALLanNu5b193dqzOqQybneEtjfqrDqIAprFQFZjuncTrnwdVx+bAHAIDF9MjqNY3VkevsK9XF1aMmvf7Xq1/ccV0wKQOA8gJYKI+oXlgdMTsIAABch49UD64umR1ksv2rdzbmmG6ldzZWp5qdCkznoCpgkZzSGAdw0uwgAABwHe5d/eHsEAtgW/W06tIter1Lq3/TmOeqUAUWgu3/wKK5tHp19YnqxOqguXEAAGAX968+2Vi1us6+XF1effcmv85p1aMbB4Vt3+TXArjRbP8HFtkRjXEAj5gdBAAAruGiRrn6idlBJjugOrV60CY89xXVb1bPqK7chOcH2CdKVWDR7Vf9UvW71c0mZwEAgKud0ZivulVb4BfV0dUH29h79TOqH6/+dgOfE2BD2f4PLIP3VK+vHlrdcXIWAACocV96WPWG2UEmO68xY/XEDXiuq6rfq36k+vwGPB/AplGqAsvi3Or5jU/AH5KD9gAAmO/+1d9XH50dZLL3VI+tDt+H5/j76nHVnzfKVYCFZvs/sIweWD2vcfoqAADMdGE7D69aZ/epPlDdZA//3vbqD6tfry7Z6FAAm8VKVWAZnV09t/EJ9vH5twwAgHluVj2s+rPWe4XlOY3dZCfswd85q3pS9ewcRgUsGUUEsKy2VW+vXls9oLrL3DgAAKyxO1W3r944O8hkp1ZP6Madg/DsRqG67it8gSWlVAWW3XmNWasXNFYI7Ol2IwAA2AgPqM6s/m52kIm2Ve+vfrLrPwPh/1Y/2Njyf/kW5QLYcEpVYBVsbwzHf3ljzuo3z40DAMCa+p7qVdX5s4NM9IXqoMaCh2t7bmMl68e2NBHAJnBQFbBq9qt+unpmdcvJWQAAWD8fqo6rLpsdZKKbVR+sjt7x/Wcb9+hvmZYIYINd33J8gGW1vfrTxg3cGyZnAQBg/dyv+u+zQ0x2WfUTjcOnntXYTaZQBVaKlarAqntK9UeNgwMAAGCr/GD1ytkhJji0UaKe2hjLddbcOACbQ6kKrIPbN4rVp8wOAgDA2rigOrb69OwgW+TA6l9XJ1b/vDp3ahqATWb7P7AOvlT9cPX46vOTswAAsB5uWb2iMV901T20MUv2n1Tfl0IVWANKVWCd/GV1TPWcxuxVAADYTMdWvz87xCa6RfXs6jXVb1Q/Vl06NRHAFjlgdgCALXZZo1x9R/Ww6jZz4wAAsOIeVH20OnN2kA12fPXm6pLq0dVpc+MAbC0rVYF1dUpjgP4zqysmZwEAYLU9r7rb7BAb6JerN1S/3Rixdc7cOABbz0FVAHV09b+qR8wOAgDAyjq9sbrz8tlB9tFTqyOrP6m+MjkLwDS2/wPUedULq09Ux1WHzo0DAMAKunN16+qvZwfZC/et/kf16uqM6p2ZnQqsOdv/AXY6qfq26r9XV07OAgDA6vn56vtmh9gD+1W/Ur2ueu7kLAALxfZ/gOt2TPXH1cNnBwEAYKV8tTq2Omt2kN04tHpB9enG7NQL58YBWCxKVYAb9iPV71d3mh0EAICVcVr10BZ3vuoB1YnVB6rzJ2cBWEhmqgLcsI9Uz6kOrh6QsSkAAOy7u1S3rN40O8g13LJxeOtnqy82VqheMjURwAJTDgDs3gXVLzW2ab1zchYAAFbDv66eODvEDsc3VqWe3TiICoDdsP0fYM89tXpmdcfZQQAAWGpfre5ffWZihl9qnCPw9OrjE3MALBWlKsDeuVX1m9XPZpQKAAB770ONlaKXTnjt+1Tbqo9OeG2ApaYIANg7lzVmYL2ucTN65Nw4AAAsqcMbO6D+cote719UD6veW51TnbtFrwuwUpSqAPvmnOoF1VmNFQY3nxsHAIAldP/G/eSHN/E1bl+9tHH46n+oLt7E1wJYeQ6qAth326sXVves/md15dw4AAAsoWdV996k535A9dpGqfqI6kub9DoAa8NMVYCN963Vf60ePzsIAABL5RONAvTCDXzO21XHVic35qcCsAGUqgCb5+HVf2ts5wIAgBvjVdUPzA4BwA0zUxVg83y2ek71qcaKg1vNjQMAwBI4uvpa4yCpPfXAxmiqizY0EQDfwEpVgK1xUPWL1b+tbjk5CwAAi+2Kxq6n99zIP3+v6neqw6rHZWYqwKZzUBXA1ri0ekZ1j+qPc5gVAADX7ybVK6o77ObPHVm9qLGq9UM5hApgyyhVAbbWedXPVcdUr5+cBQCAxfVN1Uu67vftB1X/sfrYjsfHVP+58UE+AFvATFWAOb5cvaw6pbp3dee5cQAAWEB3b4zte9s1fu2o6q3V+dXTqv/dmMEKwBYyUxVgvv2qp1S/W911chYAABbLtsac1L/a8f1RjQ/oL5wVCADb/wEWwfbqpdW3VU/PSgMAAHbavzr8Gt//QwpVgOls/wdYHFdW766eWx1S3S//TgMArLPt1b+v/mh2EAB2Zfs/wOK6Z/V71RNnBwEAYMt9uPqZ6j2zgwDwjWz/B1hcn6ieVD2sevvkLAAAbI0Lq1+q7p9CFWBhWakKsDxOrH6zOn52EAAANty26sXVv63OnpwFgN1QqgIsn0c1ytUHzg4CAMCGeG1jdurHZgcB4MZRqgIsr8c1ytX7zg4CAMBeeWv169Vps4MAsGeUqgDLbb/G3NXfqO41OQsAADfOextl6imzgwCwdxxUBbDctlevqe5TPbn6+Nw4AADcgA9Uj6+OS6EKsNSsVAVYLQdUP1z9p+ruk7MAADC8v7Gz6K9mBwFgYyhVAVbTgdWPVf+hOmpuFACAtfXeRpn6ptlBANhYSlWA1XaT6mmN02S/aXIWAIB1cWqjTH3z7CAAbA6lKsB6uFn1040DEQ6fnAUAYFW9s1Gmnjw7CACbS6kKsF4Orn6m+rXqsMlZAABWxdsbZarDpwDWhFIVYD3dvLFy9ZerIyZnAQBYVqc0ytS3zw4CwNZSqgKst5tUP1z9anX05CwAAMviTdXvNrb7A7CGlKoA1Ph58NjGWIDvmJwFAGARXVW9snpG9eHJWQCYTKkKwLU9tFGuPiY/JwAALqv+rHpm9em5UQBYFN4sA3B97tUYC/CU6sDJWQAAttoF1bOqP6i+ODkLAAtGqQrA7hxZ/Ur1U9Uhk7MAAGy2c6o/rP6k+trkLAAsKKUqADfW7aqfq35+x2MAgFXymer3qxdUl07OAsCCU6oCsKcOaaxa/ZXGKlYAgGV2RvV71csbh1EBwG4pVQHYWwc25q3+amP+KgDAsthe/U1jXurfTM4CwBJSqgKwr/arHlP9WvXQyVkAAG7IJdWLGmXqmZOzALDElKoAbKTjq1+ovr+xkhUAYBGcXf1x9ezqy5OzALAClKoAbIY7V/9yx3XHyVkAgPX1wep/NOalXjE5CwArRKkKwGa6afXPqp+vHjI5CwCwHrZVr29s8X/H5CwArCilKgBb5QHVz1VPrm42OQsAsHourJ5f/VH1mclZAFhxSlUAttrtq5+ufqY6YnIWAGD5fbJ6VvW86oLJWQBYE0pVAGY5oHpiY/XqCXOjAABL5qrqDdWfVG+pts+NA8C6UaoCsAju3ShXf7Q6ZHIWAGBxnVM9t3p29bnJWQBYY0pVABbJraunVf+quvvkLADA4nhHY1Xqa6orJmcBAKUqAAtp/+rR1c9Xj8zPKwBYRxdWL2qUqX83OQsA7MKbVAAW3T2rn62eWt1mchYAYPN9pFGkvri6aHIWALhOSlUAlsXNqic1xgOc2FjNCgCshkuqVzdmpb5rchYA2C2lKgDL6Mjqn++4vnlqEgBgX3ygel51UvW1yVkA4EZTqgKwzParHlH9RPX91cFz4wAAN8L5ja39z6vOmJwFAPaKUhWAVXGr6smN8QAPmpwFANjVtuqt1fOr11WXzY0DAPtGqQrAKjqmUa7+aHXY5CwAsM4+W71gx/WPk7MAwIZRqgKwym5SPbZRsD66OmBuHABYC5dVr22sSj25sUoVAFaKUhWAdXF49dRGwfqtk7MAwKrZXp3amJX6isbcVABYWUpVANbR8Y1y9QerQydnAYBl9vFGkfrS6qzJWQBgyyhVAVhnN6++r3pK9U8b4wIAgBv2xeqk6iXV6ZOzAMAUSlUAGG7XKFifXJ1Q7T81DQAslosac1Jf3JiTetXcOAAwl1IVAL7RnaofqH6oMSrAz0sA1tGV1ZsbRerrq4vnxgGAxeFNIgDcsCMa5eqTq/tPzgIAm21b9a7qldXLq/PmxgGAxaRUBYAb7+6NcvXJ1b0mZwGAjbKtemejSH1N9YW5cQBg8SlVAWDvHNPOFazfMjkLAOypq6p3tLNIPWduHABYLkpVANh3xzYK1h+q7jo5CwBcn6uqtzWK1NdW505NAwBLTKkKABvruEa5+gPVnSdnAYAr27VINSMVADaAUhUANsf+1UOrJ+y47j43DgBr5JLq5Or11euqL82NAwCrR6kKAFvj6HYWrA/Kz2AANta51Ruqv6jeUl08Nw4ArDZv6ABg692pelyjYD2xOmhuHACW1Mcbq1H/onpvtW1uHABYH0pVAJjr5tX3VI+vHlvdbm4cABbYVdWpjRL19dUn58YBgPWlVAWAxXFA9R2NgvUJ1T3mxgFgAVxUvblRpL4x81EBYCEoVQFgcR1dPaaxkvVh1U3nxgFgi3ykelP1N9U7q8vnxgEArk2pCgDL4ZDqEY2C9Xuqe86NA8AGOr96azuL1LPnxgEAdkepCgDL6ah2FqwnVrecmgaAPbGten+jQH3TjscOmQKAJaJUBYDld2B1XDtL1vvnZzzAojm7nSXqWxurUwGAJeUNFwCsnttX390oWB9ZHT43DsBa+mr1juqU6uTGnFQAYEUoVQFg9R1TnbDjenh1h5lhAFbUhY1DpU7ZcX0oW/oBYGUpVQFg/RzdriXrYTPDACypi6t3tbNEPb26cmoiAGDLKFUBgKMb5eoJO77ecWoagMV0aXVqO0vU91dXTE0EAEyjVAUAru3b27VkvdPUNABznN8oUd+943p/ddnURADAwlCqAgC7823Vd1bH7bjumXsIYPV8op0F6rurv6+2T00EACwsb4gAgD112+rB1UMaJeuDq1tOTQSwZy6rPtDOAvXU6ktTEwEAS0WpCgDsq/0bIwOOa2fR+u25zwAWxxeq97WzRD29unxqIgBgqXmzAwBshls1VrBeXbQ+uLrN1ETAuji/sQr1tB3XB6rPT00EAKwcpSoAsBX2q761elB17I7rvtWhM0MBS++i6oPtLE9Pqz49NREAsBaUqgDALPtV92hnyXpsdb/qdjNDAQvr8urD7VyBelp1ZrVtZigAYD0pVQGARXNk31i03nlqImCrfalRoF7zOjNzUAGABaFUBQCWwR3btWT9J9XdGodkAcvrquqT7Vqe/m119sxQAAC7o1QFAJbVwdW3V8dc6zoq9ziwiL5WndGuBepHq0tmhgIA2BvecAAAq+bmjbL1Xu1ath45MxSskS83tup/7FpfPzczFADARlKqAgDr4tDq6HaWrFeXrneZGQqW2Nl9Y3F6ZnXuzFAAAFtBqQoArLubV/eovuUaX6++7jQxFyyCy6qzGnNPP96uBeoFE3MBAEylVAUAuH6H9o1F69XXHSbmgo10cfXp6lPXcf3fatu8aAAAi0mpCgCwd27VzoL16uL1m6u7NkYK7D8vGnyDC7r+4vTsibkAAJaSUhUAYOMdWB3RKFivvo66xuMjqpvOCsdKOq/67I7rH6/x+OrvvzwvGgDA6lGqAgBsvf0b81qPatfi9Zrl6yGTsrF4rmpsw792WXp1YfqPjS38AABsEaUqAMBiuk11u+q2N+I6tDr4GtdBOy73eovh8uqS6tIdXy+pvl59pTr/RlznNYpVAAAWhBttAIDVdVA7S9Zrl67XfHyTHdeB17hucj2Pb+j7AxqrcPe7xtfre3xjf3/7jmvbdTy+rl/b3e9fVV15jeuK63m8u++vqC5rZ0l67dL0mt876AkAYMX8Pxy+L1RKrvlTAAAAAElFTkSuQmCC;" vertex="1" parent="1">
          <mxGeometry x="41" y="493.75" width="47.5" height="47.5" as="geometry" />
        </mxCell>
        <mxCell id="UT0VLJzFDOpIuryW0pFi-3" value="" style="shape=image;verticalLabelPosition=bottom;labelBackgroundColor=default;verticalAlign=top;aspect=fixed;imageAspect=0;image=data:image/png,iVBORw0KGgoAAAANSUhEUgAAAQAAAAEACAMAAABrrFhUAAAABGdBTUEAALGPC/xhBQAAAAFzUkdCAK7OHOkAAACTUExURUxpcU5OTnFycmtra1FRUU1NTU5OTlFRUZ2dnU5PUHF0dZubm09PT6ysrI+PkJCQkU1NTaurrLa2tgG446amprCwsJ6enqSkpAKKqjPG6ZmZmbq6ur6+vqKiomZnZ4WGhgmdwAWv1yC94k9YWhG54UFhaYq2wW24yk+71Ke4vDW105uxty+Tq1KesXupsx95jzp1g0GQmuIAAAAQdFJOUwDVEyx+6sBNS/38dqDDn9qq5ej0AAALxklEQVR42u1dCXviOAydCQUaKJRchCbDGQhnaf//r9tcjmVbOSi0O97V69A2QPuN5KcnWXbcX78IBAKBQCAQCAQCgUAgEAgEAoFAIBAIBAKBQCAQCAQCgUAgEAgEAoFAIBAIBAKBQCAQCAQCgUAgEAgEAoFAIBAI/20Y/ad70NHeAf2X33egp70HjKfu5A6Yv/uG5gToTe7Di+YUeDHvdED3ydBaAX/f6wDzpa+xAzq97uRe/NaYAp2nrnm3A8xeX2MFvN/+RAVedKWA8fQI+ydmV9dUeHcKLHVQz1TYeek+yAF6UsB4ehAB0mpIQx00Og9RQKaDHQ0J0H2Y/TqmQqP/QALomAofUgPBelAzHUwmASqPzYhhF6neMaNdCfXVbk8vFei8qIMY7T4YZh879eXLieGyQ2RAr9bIk0qAyW5WYrX+VF6erTdvBU7vEdYa0bwG2n1wB6ydmTTI5m7lbN9KD3xGWlPAwAjwCQjgOKsPMc6jxCnOBnhAlYGeNvNitA1ifoAAcBIPCEpn7tLngAcwCmhTDXWwGkgkgOOsZ9ABu4sjOuDyibVG9CWAGUkEECkQfebPQQ8gFOgZmiggkgJlAiQUAMmuIICoAro2SI3hYKFgpxAg8cBn+fKFPbcFqVD9LYvB8PnH0bnV6cORp+D6DlMgQ5y/aFnWoXyOp8K3/dmqgpthjmLajKCAfI3i9VbpHdlh+Ef6uCoBkJh6OIYp7ATxyVEo8PZ2TF+yPfAovquA1Q6uD5A60hchuTIYd24LAO+PgvO7GgDOJg6Tl3IHHPdbjAK5B2QAi9N//FNLD7gI/BoyvT7fpICjULE/fL9gBMjemDkgtGMeBJwCh7je/q8wANjs5w+XjbpfPJRguoUCxjBECHBBCHCKc+dk9tvHuKSA00CBu+xHHFDaXDjALx4sAhIKjG9QQOsPQgAsAPbA/tQDp21LCohGp8xv74Aq8rtz368S0yBRgdaJoIMQIIwxAhxSBcgFwM51cIMFwbl9ADQ7wBUcUDAAGO7DOAA54wYKDEe1CjgDBDgWGSDM7Q+Phw3igP0D7ZfGHzgAcYKYNl9bFgPPiAIerxgBRPuzT6gOvp2bHNA6A4jjn9uffikiv7aYeG2pgyNbJUD8rmYAZxuntQJjfx4I9n7TnArvCQAR83TwfTH/Cfo3h3XTsl0qHLVUwG1JABuQgFMAVkNxEwG8liWA61YUAJnZggqWps9LGRi38EBn3JACSwKceA0InHAE9SAsiB+hAKjtvlQAFdGAlM5JEAxbKIAV1hJgxRUwlB2QOeG8R1IhCALvOxygCGDF/KGZAmgKxGogNgkIlRTPKQA8sI+b499rkD8fpz9zAAv9gv4oB4LGVIhNAo5oDbivsN+2D9uaVPjl8Xerwt9VNVCMf/YIWsyJ8BSIzYIPZ+4ArwUFimroqwHg1gAvf3AGvDbUgxgBYnwSYEsM4F44glQIPHBssN/7EgF8taNQ00JIPFC7OocSAKsBixSIOyCphjAdjI9fHX+3mgC+r0yCG/oodUFgYDXQFUuBG2a/qAHMCTFWDR3iOgH0vsR/v6wB5mw2LGd/hQNDo3o3RNh6Fig5wBNl4IwUxFtnf/4aA+rCnxHA5aMPumSCBjZXQ1gAoATYnkr75SzgMR3cSo2BhBOn66Ptd8UqSOgNVqlAQoHqPpjigPD4XpMC8SzgYd2xzTYtHc63O8BtgK9O/YMGF1R1x5pSoFoDyQ7gHU/7LLVGNrnjHkwA5gAh9Qf1HqhsjeCNUDwFhqESAlItAGaFm1wBstC51QGu25IBSLscd0Fif0VjYDwqjWqogfbHsEoCQCAIOrhl4llf7KYJL/1yowPw9QLBCVwJg6w1UrESkFkPhhdXwIIAthQBYusfNgY2m/Jnz5blIR+VWR6UuFX2Iwsm7IHyIPVAH/GADQxPvZA64songesNQ6YAdvrPLrMgDIQyEawKrNdcEVEHyPZbqvllo0Ne/6heMQqqYiG5GCOZwLPB6P/JHyUDVustqGnL4VccAKoCzh7QQ0kZkM36xEdhtcWNT7+qLd7qJbSAP6DZnAlCZyQYIg4Yecx2HgSlBqxgoz+2w2YR8LAmWqYB0uh7dX2e3Opp8WBOmCqZv5EBgAVpb6yD18EKA1gnYLUWG/1cBMoi0Cu+YzXhO0aAgzL2UAAs6YE0+QU2VJS75cAzX0g8mE4rJkTDkSKCBQVW0s6XNA3YtQTwQP7k6eMUWyoDamb64phPVQbAsG7DAbZUbFQ0gwQdzO3LmCw74BDXRUCa1s9XrIt64EvlgAfuPQ4IBG0rLpvsH1bPBcQkEBZatpbn9ntbmgtJ9ltXlADX0nop/nPSQ/qja73TKfxONFpwQ4D4gAdCZU/E6HtCCDAxWyndDU4BSfuLug5dSXf4Xgke/5ac+5AqH2qgwABF/4QQmBZRH4iZIahpDXdYMZSvd+S4Xtbq5P5wREKA17VoAOQKYAksqKn10JV+6bIkgMgENAWU31X3A5LpwEgNbtDmlnRQagjxwv6MpsBY3iyT2B8sGYKy0uPPLTnls6spvAIA22SyKwbxPYwAdZ1xo6RAudQl9Di3cM0bOkCc2KA10AGxf8p3Yg2Cwv7pkm+nYh6YBvwqNVPedbUs7R+kV2y8wW8a8AAw6heGhWHNd77EKAWSiOf9IAvaP0fXkWJk9rNc8C14g5wCfjDgWwoXQWH/MpKvhO17g4IC+e9bMGMHYHfisj4FwqaIDZY6s6/n2m0Pwvpe9g2+kIjYP12AvZiLaeaB+cCE/+180JcmuJovlR2ci4ICgyi/KuyPVAe89hvXxtXEfkS3Pewr2tzWGQkA54AQYAr/h5NoOU0dAEiRYLBMLWZDuRCu4O7TRS6FuUPNRREApvDrM/sbt4kkFBBGP/cAb3ODVLhnjQwhAPAUuEW2C/pL4Y6TlOGuLzolJXdKgAi7mojmJfYXP2vmwy3+pkkqDUGL5eHOyIPWhzU6eC47OU0KiChAovbSSJqDwJ/L1qWDzt8oXgneWwJpMNMgQISiNgXCLXICA7LPewdZ60nb3EDUle2kXAEdxH5fHcnECOVGo4TcYCjFK+FnBcoPlmIAFNLQbrNgRgEpDGJ0G+xZauZJCuiAFOgpvb5ggOxGjxqew97R9n1m1Gt30xqqg3tUB89SNzMhAB4A0vvSdFcxkt+I1tvUh544/FkqPGyxaig1DDYxLawNsNmLTMnT/eLH7e+13TL+PJZFsDIVytQOLuhKuuIAH9Xyb4V5w60qQzkRhNWp0IIU8C+zCgJ4Yqd7Hvx8ANxw325njPQ5KrY9ZOYXLsBnwfmCmNjoRxTwu3HLndvGs+WpOnjAtj3sIQPQNkhOAE+wf/7jAXDjDYvG2EMogKfCclXHckEKcEAbhDuAtTrQYuZ77e/ddt+2MfLUTl9FKiw5gBJge+aLf2zGP/3xFHj7+R1jS93cCrY9wFUCngLRlYCzxRxQNnv+hRR48+2anTFy19jnSqXAid819qkSYL1C7hpbPPV/HLffrtp/SadVJSapakcfa1kH4U3y5V11PAWsPrU9SgQ7PMKMFAqchDtHFQJcIn0PF8Runjd5EOSrpaeLqd5b30QAbe4eR26eji7ivPhdnL7upBoIOWJios8pGgZ2hhTQwa1MgOLuek6SGXKMiE7n6mFn6OwEHbwoJ0hAAqzR4wM0OkMDPUVpt1ozbJF7wz9m/PWZxgpYcwv9blVufUFGOPooX559mLofKYeeIgIOCmo4RyjS/0Q5jAL/q8Nlk1RoPnRKpt1xcg87TlGr81MEDzzyODkdD9VEdfAHmlJ/dzX0E02p/x4Fbm1K/UXz4sdQQNtzhX/df7S6jmcpPpwCWp+u/gAKdHX+EwuJDpr3K+AvjXF/NaT3X5jADxf9H9RAcEpwFwXMrvZ/Z6ff696Dnu5/Zic9Y/sOvGhvP4FAIBAIBAKBQCAQCAQCgUAgEAgEAoFAIBAIBAKBQCAQCAQCgUAgEAgEAoFAIBAIBAKBQCAQCAQCgUAgEAgEAoHwt+EfmvcZdlgNrrcAAAAASUVORK5CYII=;" vertex="1" parent="1">
          <mxGeometry x="384" y="481" width="49" height="49" as="geometry" />
        </mxCell>
        <mxCell id="UT0VLJzFDOpIuryW0pFi-4" value="" style="shape=image;verticalLabelPosition=bottom;labelBackgroundColor=default;verticalAlign=top;aspect=fixed;imageAspect=0;image=data:image/png,iVBORw0KGgoAAAANSUhEUgAAAQAAAAEACAYAAABccqhmAAAkUElEQVQYGe3BCbzmd10Y6uf7+7/nnDnnzL5lkpBABIQshBAIW0KkZRG8olBIrLa1WqRciORjoYio9XNs5TNwbbUFBi5VvFquvZIgm1Drwh42QUgIhC0BEmBmMvt6tvd9/9+bOdOwSNEAyeRdfs+jqqqqqqqqqqqqqqqqqqqqqqqqqqqqqqqqqqqqqqqqqqqqqqqqqqqqqqqqqqqqqqqqqqqqqqqqqqqqqqqqqqqqqqqqqqqqqqqqqqqqqqqqqqqqqqqqqqqqqqqqqqqqqqqqqqqqqqqqqqqqqqqqqsZdqIbbNXNM9FmY4Ngquj0rSkHQtkQQYUW6QzopnJROCsJJmVZEIGlbIphexapjTC3Sm+DKOdXw6qhGSTgpEE4K3xTumvRN6aREOilVIyFUw+GVc2jRIRqagiDQL/zij/N779hgubcZm5WyiVivbdeIWC1iNaalKXLCipiwIrtWRFdYwoLMYzgq4hh5SNvuF7HX6pl9fvbiQ171ETp90h2CbGl7tMtEw9VzqsEXqsGzYw59TGCSaBGUDge/2pjdeqZOczpxGrYKW6XNWIM1WI1ZzGAKU5jCJDooCBQntUi06GEZS1jEEhZwHEdFHJN5lNhH7sEe4nbZ7nJ8/9et3drX9smgFBaDeUzixS9WDZZQ3fte97tOCtpltGTB48j3bRLtVhFbiM0yT5PuK+I+OB3bcBo2+U7ppHRSumvCSeGk8O0SB3A7dmEXvkbeKuyR9snYqzR7XLhzv09vpS1EEj2EFc/9NdW9K1T3jlfO0V1ieg1RrJg5MyzsnpXtGplrZW4mzhN5Ic4X8UBpG8JJ6aR07wgnhRXZitgt3YzPEDfIvEnYp8RR4Yip4/PmZ1IGBWuxiGe/RHXqherUeeVv+aY+3QWm1xZRJjAhOhtke5FsL8Ml0rnCNDooKCgGW4sWLXrkvIjPEh8TeR3tDdpyUEZX0bVOax5LrW+46qWqU6OjuneUDktHi+m1Z+JxuFTbuwjbMIsZYRXCN6XBV9A4aYqYkS4hz5eeRezG9bgO11lfvu5IP1X3ilDds+bmePA69i8SQemwOL9VZ+LhIh4tPARn4wxsxgRatEijIVBQsIz92IlbcSP5EekTStkjkza5/DTefBtzc6p7TqjufnNzfGAXTz6LNRME+u2EUu6Pi2R7EXGRcAHOQKBFizTaAgUFiZ24ETfgRnxGPz9vqlmw3HK8ywdu5xGbmZtT3b1CdfeZm+P+azmyTBOsapjvr5d5Jh4sXEo8ifxhTKKHNN4CHXTxZbxPerf0Key0rnPIfJ9ey9oJbjnG3Jzq7hGqH9yrX25Fm0w3dLOQM/q5XlMul/ksPFZYj0Co/ncSKR3EB/EmmdcpcRALJqJ1vEcJK67+VdUPpqO6+zQl3LCX8zZvI35U8VPkucIGTCFUf59ACBvxZFwi4jPCG6W/cuPhXR64mpSqu0Wovn9/8J/oNCx16fbox2kaTxaeJl2AMzGDQKv6XhQk5vE14UaZ77Dc/qXJZo9OMBX0kme/RPX9aVTfu0ziILNruP0Qa6fX6vWfrMQ/xxV4DM5AB4lUfa/SSVM4DffDDylxtogJk7HLgXZZwRVP4aLH8t73qr43obrrfv93rCiFo0dYNbVKmz9MXC7z6Xgk1qCHVN2dAh0cwUeFt+DDWp/XKQsmJ8m04l/9G9Vd06jumte8nEyWlli1qlE6G7Xto6Wfwy/igeigVd1TWkzgfrgMG4Tj0kGrZ5YdPpJO+LEn8M53qf5hHdVd1+vR6Uzqds/U7/8LmVfgHEyoTrXVuAKPEK4xv/AGnc5OvV5XKam6S0L193vdy5nFESeswo/gOXg0NqGDVN0bAl3sx9+Qf4i/xoIjtzFzGlfPqb67UP3vvf4VvuF40jgHzxKeiouxBi3S6Ep00UExmAIFR3G9zHfI9loTa2+1fJQoVvzir6i+U6P6Tq/dTj/pJxs7HcvtxdLPCv8MD8MkWqOtYAnXYw1mkAZTYgpni7gfsVZ/+Yi22WMiWwU//kTe+S7Vt2tU3+41L0fwvJfy8Seut5CPlP41fgano0UabYE+via8CQ/AFrQGVyKxScSFxHrFAeGAdu2SWObHn8Q7/1r1TaE6aW6OB6/jwBIZIXKDyCfJ+EU8Ao3x0WA3/pz8M+I3cDG6hkcPHxf5KuLdojmg7adNk3z2CHNzKjqqbxfukFvwLBnPw/3RGC8FX5b5RpFJhOHTwcOlORHnyPYNStml+jYd4+6aOSv6yxzv0fdg4V8IT8f90UFrfBTcjr8hP4kLEIbTFPEAmc+WuVbmGxz3eWf0+H/mrPj5OeOsMc5eN0dnnr2z7F9H6T5M+HnhCjwAgTReOuSHpTcIX8CZxFOxDa3hkijYKOIsEav1cp/j63bp9YlFnvoE/sd7jatiXL1ujuYoR7YyM1+sX3qo8AvCP8X90EcaO3lI+oje8ocRCMMt0eIc/DSeY3b+Ys1Co93GfMPv/I5xVYyja+ZYM8/y6cTihO7sg7XxQjwLp6FnXGV8jPiQzuQRo6WHLfgnMl6kzJyrPT5pfbI0wytfaRwV42rfeiYOFtk8kJiT+RRsQGt8dfHnWh8zmlqsl55I+XeU+9u7oZg9ZFw1xsnrXsfTnsa6HrtWMdU8RJYX4knYgDCeAl3yY8Ifm8zPSSd0cB/iKdiG1vALTGGbsM2q3pdNLOx2fJpLH83jH89732tcdIyT+Rus+Oom1uTDtfFs8qnYgEAaT4El4k+Fz+sFWiMqUbABT5F5THf69TYtf8LZ64ybYly89uWsOpvpsymzDyJ+Bk/HFiel8RRYxOdEvM+aDXs1jRGXTtokPF34Zxb6D7Z/if1L7Hi5cVGMg9dutyIipG3kPxd+EtvQGm8N9pFvl+1XHTmQMo2JFqcLzxD+BbZpIwReu904KEbd619hRbuazI34GRFX4Bz0VH3yVk3zFpMTR3Ua/s9fNkZ6uK/wT/BTmtxg5zor/u//aNQV46IcXU8+UeazcT+0qgZfkd4l8zb7jvSUYgy1OEd4jsgnOPPQOmOiGGWvfwWBLZ2OiItkXEWcgw5SVcjPKPFW/f6S9TNkGkOJDs6R8QLKw3XWTAi87uVGWTHKzpvgUMv+/kXSz+ER6KBVBW7Fh62buMl0pzVZeM6LjakWE7hE5s/pHX+YxT5TRlrHKHrtdiuuX2JV3E/rmdJPoKO6U+CDxHsd7vZ0QrWiwdNk7jRpj4X4ite+wornvcSoKUbNH/wupdC2IUxLV0r/BGtVd0ocxPv1Jz6hLTznJTznJaoVa/CT0jOxStsSwe//jlFTjKJul6aZkJ4g/Bjuj1Z1QqBP/CXxSU23q/q7WjwQ/wcer2km9ftGUTFK5uaIYOPGRmfiDBk/j4tU3yoxj3eKchNF9V1dLPM5muZMs7ONUsg0SopR8oA1dLscOrZet/+zeCTWoFWdUDCP63C9/vIxpXDVL6u+Q4s1eJR+75/rLq937Aj//peMkmJU/MF/4niftp0WeYlsr8RmtKo7BQ4S18r4ujJBpuq7arFR5hX6/YtNT69y2n147e8YFcWo6DQcmXeHB5FX4H7oIFUnBI7js5ryXs9/8WFTEzzvxarvKjEh/ZA2r9Brf1h7DI1R0THsdvyWFUtdNq1Za6l3mfQMTCBVd2rwFbxFv3/Qa17O1JTqH5SYwDOl68X6L9M9asfLrbjqVwyzYlR0eywuP17mM7AaofpWXeJz2v47tL1FWtVdFlhD/qRcepzsGRXFMJubo02K0Ha3kJeTl6j+rgY3ke+2dPh2B77UWjzEL7xQ9b3IR5H/WNqqRGiTuTnDrBhm91/Lqik+fnsqE08iLiPWqP6uPj6itH9lYqa18RwmZlXfq1hHPE54si8eY1XDA1YbZsWwuuYajvVYbouH3+cM4ieI89BT/R3xJeLDltfdYnqZqQWunlN9z3o4D0/zgNltem1xuMvcnGFVDKsrriD7lDIj/CguxGqk6lv18T+Fj5s4RjtJO6n6viRW4wI8SZrWFP72gGFVDKv/9l9ZPE7EOplX4Ey0qm/VYi/e48DGz+kV1Q+sj/tIP62fG6xquGyLYVUMo2uuYeEgM7PrZf/xOB8zaFV3KljE28nP2rS3tWstz53juXOq71uLGeE8TVxqvrfO6gnm5gyjYhhd///RXaYtZ0rPwkaE6lv1sVfk2zT9r8pg83HV3SKwAc/EGZrgQesNo45hdPaj6cSU5fZ86THCJFrVnRocwAcVnzI/ueCX/jvxSdXdosUkLsN5em5xYGnZEOoYJq/8LSvalq4HEpcL6xGqv+s24o36ccRUy7U/iU+q7jYFG4nHKW7CZ73qt6x4wa8bFsUwKg0ZD8E/Rqi+VcFh6UbL/etcf3DBfI8r51R3u8AT8VClMYyKYbS4uFXmQ3F/hOpbNfi08FbFvEs28qJfVd0jgnygbB9qeX6LIVQMi9e/gukJJjp0Jh5OXIRJ1d91TPhb8n2mmtZSn9/8TdU9ZlJ4qKZzsYmGVR1e/wrDohgWk8F0cFYnlHiUcAF6qm/VCJ/EB0yUg2Y7af0kc3Oqe0yfeIgoj3ZmJ8wEU4ZGx7CYb92hON6egYfgDPRU32pBepeSH9ZLbj6quse1OBMX+np7BnahNSQ6hsHrXkbrhAlcjvsiVN+qj8+K+Ihjx3d5zI9w6RNVp0TgbK3L8FYs+b2X8ZxfM+iK4TKBy3Am+qo7Bbp4s8ybrJrm0ieqTpkWZ4i8VGRHpGFRDINIZuZDtBtkXohNSNUJgS6+LOJ9tp7+NaumyVSdMi02y3yY0m5w2tEQaRh0DINeQ396VrqI2IYJdFUnNDiAt4m4xddvTXt3E6E6ZRKTxOnauNDtaw+Sxw2BYtD99m8jEGuIx2E1WtUJgS6+Qr5Vv3fQ5CT/YYfqlGsxK10qrZF43ZxBVwy6btAkaa1wCWbQqk4o2ENcR/m8aJZlEqE65VrM4hJyLUHpG3TFoFvVctF+WptkPgirkKoTAp+nfw39Jfqqe01iFc4nN1k8nf6EQVcMuqmWj23eJJxPzCBUJxTsJD5K3kD2nfD8l6ruNYFZ8lyrbtuobQy6YtBFS2m3irwQHdWdGnyc9i+IRSJVg6BDuZBmK8WgKwbZK+cQRGzBBSiqO+0jP8Ti39JHn+f/qupeV3C+iM0ieP0rDLJikGWf0rjDZhEPQEGqTviQiI+KVccJhOpelyjCA7FZmzRhkHUMsjLJkT2N1Zu2kqcRKkkuyPxzvf6nRPCCX1cNjCLzDGGb0yaLA93WACsGWekwu+lM4r5EUQWW8RERHzc1dVA1gKLIONue5TP10iDrGGQR7nAGzlKdULBAeRO+pN86RcJJ4dRKw+s+Ik7HVw2wjsF3Gk5HGm+B47gR14kNB+URXvAr7hFtukOiLyxgActOjVaYwJThlDhd5mkGXMcgumbOiv1IW7BN1cEe8m3k1+WBpHGPaZPMvohdGm/Bx9B3asxIFwkPR2s4bSO2OmFuzoq5OYOmYxBN9K3oF5p2q3Qa0vgKLJNfMFn+TBPz2uTZL3aPCj3cgv/LqfUw4ZdwCVrDJ7GN2KIJji8ZVMUgWphgYYJf/HHSZmwy3gpukd6tl1+3e7lvJCXrzyLiCbgMfUMrN9FudlbDxlk2zhpEHYPo2Cp3CL/3jvW61hh7WfBJTXm7vq6NE+5xV/+6U2rHdndoHLrth0U8CmcjDa0IrHXrxFrrylGkAdQxiPqt/2Uz1hhvgS/iw7ZtuNmBo+mEf/UiI2PHdiIIBU+VLkAHXcNttd7CZuGoAVUMohat0NqC1cZbEO8nrrPrYKvf0m+NnLZttHkfPBFnoWf4rVbaLaIN0RpEHYMowh0CG8lZ4yul20W8z5bVn3ZkkWe/yEjZsR1BxGrhidK5mEXX8FutxCaEAVUMokAgrMcM0vgJLAt/Qd5gz9GeTCOpNERsJa7ARvQMv8QMsYFAGEQdg6ht3SGwRsSU8ZQ4rnirTnxRa3S1vfXEo4QLMYM0Gqa07WqEAVUMtjWYQhovBUeJd8v4jMO5YCr4hX9rpLz6ZQRKnKN4OtYYHYkprDbAikEUCIRZTBk/Bfuka7R2mwl6aeRk0l2ekXmRdCkapNExJWKNCCIMoo6BFO4QmMEk0vgoOIwbtO0HffQrxz3ibJ73a0bGju2+oSnn4fHYgtboSExiGmFAFQMpEIhJNMZLwc14myYOe+w5lDCSlnpFlMeKuByt0dNg0gDrGEThTo3UGC/L+LRO53+i64TeshEUpjrnS4/G2egbPY2IjgFWDKJMMsnsoBgfDa4X8R5nnXXA5GSanOTqXzUyXv0yAhMdSjwFFxtdheyQSIOoYyCF/6VDFuOjhw/K9j1uuzU1HSMnk36/0bb3U5rLcF+0RlMjY8IA66gGReJz+IhVG77q4JeteNErjIwd2wknTOEpOBer0FXdK4qBlEhkD63x0CXfSftJiweYmGZi2sjZdxyxTcTTcBp6RldfZFckkQZRxyCK8L/0ZLZGW6BH7Ma7veqlN/vFf8/Vc0bKq19mxabZDeSlMi7ALFqjqyV6BlgxiBKJ1EffaAscF94s4mZX/za5bCSVoMQZIq7AWqTR1pfZk0mmQdQxiMKdlqS+0dbKuF3kWzW5U9sSHSOp212j6Vws4pGYQhptfRHLBljH4EosYBlhNDXYI7yX/JzFyWU/9mYe8EEjY8d2KwKlPAg/ig0oSKMrsEzOIw2oYhBlkknmMSwZbV9S8k0ijptc5gNPMpJ6/QkRjyB+xElp9C3KPCqTTIOoGGxHsYgwegoO4Hoz3Q97zO4l65f5+TkjY8d239B0LpAeizMRRl9gSZZjsqQsBlExiCKISBHHsGQ0FXxC5J9ZLsvecwZTfSNp1XoinojHojU+lhTHFRQDqWMQpTsdwgLC6DkqfUy/vc5C05ru0i1GUGPx0ANFPBpnozUeAgvSQQOsYxC1rTsk9itx3Ogp+KiID5qZOOa+q6x44tVGxo7tRBAaPFU6HxPoGh/HtLkfaUB1DKJId0jsI44ZLYnjIv5K03zccst1B4ykfr9RyplKPBlnome8HBP2Ig2ojkE00bEi7NNtjxodgR5xI/FRi8f3eugzeN6FRsqO7QhKsxr/WDoXs+gZL8dMT+zTT4OqYxCtXnSH9DNXHPSatx1FGh0LIq+l/YLOBDf9JTte7pQI3/T8X3GPKoXMbbiS3IC+cZJaHLFp4ojPHjaoOgbRdNeKV/0ZYh95AGsNt8CycIvM95id3e3YPNkzktr+euIS4aGYRhofIewT9tq9wN4Fg6pjEHUbK5qWtEfYjXVIwy2kDTJe4Nj8ERSnRuAgPoy/dE/asZ0IxP3xdHItAmm83C5zr16yZtKg6hhEV85Z8ZrthD3EbjzIcEs02CZcIZ1KRfgqFvCX7mltf1ppHoZL0SCNndwt7XHC3JxB1THIwgm3S7sQSMMtMIUQTqWCGUy4p+zY7qQgmgtwObaib/wEdom8nTDIOgZZvyVzp9J8TYQRkk6tRCLd05bnw9TsZbicbI2r9DVtu0uEQVYMsuxzfN9OkbeSrWrQhcnp88lHkmchjae+cJvlm3eKvkFWDLK2x7oz+sTtxG60qsHz6pcR6DShxFPwMITx1GInsdv0eS09g6wYZFFo+6T9uBktQjVYMun3G93uOdLlOBt94yfQ4gsy9ssWxSArBtnVcwjEXnwGrWqw7NhO09A000p5Ms7FNNJ4aqWbsJfgqjmDrBh0pVCaPcQN6KkGz303IraKeDq2omd89UR+iv4eWoOuGHSLwYU798u8iZxHqgbDju1WfOXABvJS6QLMIo2nxHF8zvLpBzVdg64YdPP49FbCPhGfxSJCNRhKUOI+Ip6FNUjjKbAg4tMi9pnaS9M16IpBN4m2UOIo8THMo6gGQ79dI10sPQpTSOOpYJ78G+KoaGkbg64YdC9+MeEOcQQfwDEU1b1nx3Z2bCfQlAfjSdiIML4KjuGDOOKE584ZdMUw6AWLq+a1PkXuxjJCde/q9Tu4BJcbb4FlcreMG3U2L9AxDIphEJicT5EHieuxH0V16u3Y7hua5iHSY3Af461gL/G35CHdvUkaBsWwyCCjK+M67ERR3TsymVxNlCfhMWiNt4KdIj8ksivSsCiGwVW/jBZtl/YD+ApSde+IaCwfexD5aJyN1nhL3Kb4oKKn4HkvNgyKoXEA+1vtJ3eSN+LrKKpT59UvI1BKR4mn4jxMGG8FX8OnbJvaabbTmukYFsXQmMVamocmPopPo1GdOpksLxVt/wz8KM5Ez3hrcKPMj9i1nBZallvDohgWV81hgiykT+AGLKtOjR3bKYWJybX4Eek8zCKNt2XcIHxSm3Rbnv0Sw6IYRk3ZI1wvfBGpOjWaQimnKeVKrEdrvKXwOeF6UfYaQsUwapOMT0nvQqpOjV67XuYl0sWYRmu8pfQu6VMyDaOOYXLVS6147W9TOrfoL39A5pXCRoTqnrFjOxFEeQD5E1iHQBpfLbGfvE6/vUUpXPVSw6YYRrd8iKVjS7gJH8ISiuqe0++vIh+Gx6Egja+CZXyAuMlkp2vTlGHUMYwe+dPs/wppp/Am8uGYVt29dmy3ItCUC3AZtqJvvCUOKPGnInbJ5HOHDaNiGF15JdPrWTp8SCnvx2cwj6K6+x1eChGX4XFojbeCedxEfMjxQ4dNb2BuzjAqhtW/fA5Tq93hkIhr8TU0qrtbsXbqPOnROBtpvDX4qsg/lv1DVs3ws79gWBXD6tprKR2yXSD+UsSncBSh+sHt2E4ETYQST8VFKMZb4ChulN6l7S+IhmuvNayKYXXllazuMFFan/jqTvJt+Aw6qrtH2zb6eV/p8TgbfeOtQ35G5tt8cf52k53WmoYrrzSsimF282EWF3n41pDLf01ehyMI1fdvx3YCpcyIeDIejGmk8RU4JL1ft/tXfmiK48vcfNwwK4bZ3BwlaCOZ3Ee8Fx9Fqn4wqybcYavwdGxB33hLfFjEe0xO7pdSCebmDLNiVJSWpv8+vBlHkKrv30J3A/kY6ULMoDW+EkeIt2tWXad0jIqOYff8X7fi9/4Di9PHdHofkt6Cn8YUUnXXvfpllHCHs/BMaY3xFljGtfigpUPHTG/i6n9rFBSjoi10uu7wBbwJX0YXobrrMlleXi3zYdJjMIE0ngJd3CLiTZqJL5hcTdszKopR8dxfY/UEJRalj+ON2I+i+oft2M6O7TQNExPn4gnYhGJ8FezHNUpzvYVjS3Z9lef+G6OiGCW3HKMUZicP6pQ34CM4gqK6a7r9RsQjRfwI0vgqOIqPKuWPlTxkdoa5/2yUFKNkbs6Ko0utXu6S/gCfVP39dmz3DZ3mAukx0lmqv8V/le1Oy72+tiXCKClGUVPot128R+b/wM0oqu8uihVRfhSPQmt8FXyBfAfer81lpRhFxah5zovJpESSi7TX4s04rPrusm3ww+RjcDZa4+so+TbZvplcFEEmz/1lo6ZjFF31K1bseBLlabey8KfS6eRPoaP6ple/jEDEhPQUnItJdI2nnvB24s1WrbvV7s/yqzuMqmKkXUqzxJr1N4j4Q3wMXRTVSZksLhRte7rwYzgDPeOnoIuPCX9obXO93lFWbzHKilF21RwKRw/06F8v8tX4MnoI427HdkphamotLpfOw2qk8RLo4UvEK7XxCYfbrihcPWeUFePiaOew9C7y9/FlFBWlUJrTlXIl1qE1fgq+RLwO7xH9w8ZEMer+9YusWN0jHcSfyLwGX0LHuOu362Q+Qno4VqE1Xjr4Ct6Ma4mDsrHiOS8x6opx8LyXWhFS2C3zj6W3YReKcbRjOxGU5oHEj2M9ivFSsBNvFvEG3E6mE57/EuOgGBfPfymbp9g0xXTnC/jveAv2OimMm35virwYj0MgjYdw0n68FX9sef7zju/j+D6e/xLjomOc3HTEigcts3fzJ6xf6smYln4cGxBIYyEonQtwGbahZzwEWhwS8T+J39eZv16cw+kzxk3HOJmbs+KaOUpwePbT1iz8R5Gz0j/CBqOuba3Y+zlOO//x5GXoGx+JQ3iP1ssdn/286SSPcOXPGTfFuFrdZ/PRVtvcLGNO5tuxD41RFkFEsfXc88hH4Wyk8VBwAO+U8Zv65WbrD7eOrjWuinF05RyLhS8+gGax69jGz4t8Jfkm7ELHqAo0TSjxVDwExXjoYA/eTPwXR2c+b6rb9dUtrFrg6quNo8a4+ou/4MrL2TDN0WXmY49V/d0oxDZsNDoCh/EJvd6HZJ4tylV4KIrRFij4Et5E/JHO/PUi09ENrD7OC19oXDXG2Z//Of/0kaxfZO1xzOy23N6KELEF69EgDbfAYXxciRtE+Qni6diKvtFV0OLLMv+E+APd+c8oP0TbMtHnl37JOOsYd1fOWTE3x7kdltrPS6/CLjwPP4QJwy8RxFYRz5Q2o2+0LZFfEeWPRLwBuywe44wZrvw5FR3Vt0tk7BX5JyL3yngBHoGO4dZio8xHERdiBq3R1cPHiFfhvSIOylR9u1B9u9e83IoPPY5L37+OchH5L6WfxDq0hk/BF3Gj0JGejCmk0VNwFG8X5Q9lfsJEe1ivWPG8l6i+KVTf6bXbfcPkdGN58SKZzyKegQc4qTU8AntxGOuxAcVoKUh8gXwb8RaTs9dbnu+60/Nfovp2jeo7vfNdPO1HiUK/myZX79JdvIVYENFgE1YZLpNYh7VGS6DBMXyM/BPa/yZmPysXW9EQhef9suo7herv98o55m9n7dkUU9JjZTwXj8UWdJCqe0Ogi334G/KP8NdYsPhRpi7iqjnVdxequ+a122n7NBMTOp0zdHs/K/MK/BAmEKpTKdHFLcQbRef/ld3d9LuU9PyXqv5hHdVd15mgu9y1ZvXXtAuv0e9/UOYzpJ8S1qEgVfekQOIo/gxvlP5GmTkk97dMoFXdNaG66/7gd60oDYcPMT0zqdd/IC4jn4FHYx16SNXdKdAhD8n4sPA2fFT6vE5Z0E4irXjev1HdNaH63mXyGy/gzPuxdITpjav1Fi8nf4S4DOdjHfpoVT+IggZHyZvI98t4t2w+oOke1zbMdvjKMebmVN+bUH3/Xve7lA79Jdoe3eWNOpNPEPGT5MNwH8wg0Kq+FwWJ4/gabiT/TNv9KzGxl4IGLVf9sur7E6of3Kt+y4qSfG6ZB82cLjxJxE/hfGzEJIrqrmixjAPCjSLeqGn+2i+8aLf/8hthYiqdcNWvq34wHdXdp4eHrGaxd7tO86dK8y5t/zI8E5dhIwKh+t9JJLEf15FvUpoPyTyklAW/8+9YvTr1eqq7R6juPnNz3G+WY3306c4ztXadzDOEc3Ep8XjyfEyhj9Z4K2iwTHyRfI+I9xOflu1Oy8cOm5xhchVfv5Xf+M9EqO4eobr7XXMNV1zBH/0e8wcoQbed1JRz8BDZXixcRDwEZyLQokUabYGCgsTX8GncQNwg8kaduNni8pLOJNMb+JfP4dprufJK1d0rVPesuTkevI79i0RQOizPb9F0LhbxKOJC3BdnYDMm0aJFGg2BgoJl7MPXcRs+hY+Qn6TZK1oiuO0jXPTTXHml6p4TqlPnVb/lG0rQ/XSYvPAMymUiL5X5MOJ0zGIWqxC+KQ2H8E2JRRwnj2E35RO4jv4HdW/aZeK8JHzD81+qOjU6qntJj86ZiV14K96hyQ3auFDGZcIlMs/DLDooKCgGW4sWLXrkMeIm/A2u0/qU4jC6RE9zesoeMaE69UJ179gxR85TNqAQyWlHw+1rZ7AGa2W7iTxXxoUizhceKPMMojgpnZROvfBN4aQ+duKL+IzMTxGfFfaTR6Ujbpufd9/VTmppDxIzXDWnOvVCde/7vZdZEUm3gyCDxW2sum2jLFtF2SJsIrfJOBv3wenYhm3kJiJ8u3RSOindNeGkcFL4NpnEPtxO7sZO6WvCbcTt2Ie92txj09GDDq0hg0x6STjp6l9V3btCNXheN0fp05+gbcggCpmcNlnsWT5TxOnSadhKbKHdTKzFGqzGLGYwhSlMYQIddBAoTmqR6KGHLpawhCUcx3EcwzHyiIh9MvdgD3m7frvL8s07TZ/X0lqRSXeC5Uk6PV74QtVgCdVweP0raILlll4SQTqpKZzV8JWJtfL4FpGbRWyWsV7maqwWsVrENDkpTSGEjhNSDyksEcsyF2QewzGlHJMOanOfjH060/vct3vEV3v0W9/QtkQfPRSumlMNvlANt7k5ji+xcZZ1syEXiQwRIYPMcEIEEUGSTgonpZPCHYLMlGlFKSnRZhKpTHL4eDpwnNkp5uZUw6ujGiXppFRVVVVVVVVVVVVVVVVVVVVVVVVVVVVVVVVVVVVVVVVVVVVVVVVVVVVVVVVVVVVVVVVVVVVVVVVVVVVVVVVVVVVVVVVVVVVVVVVVVVVVVVVVVVVVVVVVVVVVVVVVVVVVVVVVVVVVVVVVVVVVVVVVVVX9w/5/V/MbOVFlzAcAAAAASUVORK5CYII=;" vertex="1" parent="1">
          <mxGeometry x="610" y="477.5" width="43" height="43" as="geometry" />
        </mxCell>
        <mxCell id="UT0VLJzFDOpIuryW0pFi-6" value="" style="shape=image;verticalLabelPosition=bottom;labelBackgroundColor=default;verticalAlign=top;aspect=fixed;imageAspect=0;image=data:image/png,iVBORw0KGgoAAAANSUhEUgAAAOEAAADhCAMAAAAJbSJIAAAAYFBMVEVHcEz/wlL/0h7/rAL/////1pL/////4cD/xGz/+/n/0Bz/qQD/ogA6O0T/2CD/3CP/vhH/sgnuTU7+yhkEDU3/5xX/9xH8tiwrMEURKUa6mjD9UE5nU0GVaT7uLFfzf0PsM+hxAAAACnRSTlMA8P//LagRh81XLcoFMAAAEdNJREFUeNrsXYl266oOvXHHAAFcj2mTnv//yycGCezEQxrjpm9Zd63bya3ZaBZI57//Ntpoo4022mijjTbaaKONNtpoo4022mijjTbaaKONNtpoo402Wpqe9/sXT29v+9f/J2j7t/cmF464/c/SU7P7PwD6/NY4YPzpgrjD2rw8/13e5QPYukANO1/+IC/fGmDR00wClPnfArnf8WnmXYBs3v4M+55uhUd6+f4XGPkCasWvLJ97ExqM6lWQ+YPbndfdJfssNJ7nWhdFZokVhda5+T6/fFo8PTLG9z4+i0IXmZRSSZmZj9J8zKQyXxeA08Dv/UrzqBjfehxx6ABLJjPWIfclfBvgMp33fQoX7w9pP7uaZRyAzgCdR3OFPEzgbtEDCXx8PLu6E90Vcm3kcgBbD2YGOwEgOyIg+OuDMTCszljNHFiTsWl8BBM0M9MdJ/pYbHyPGGjxKbfqW4gBz3VH0kXzMGxsBO/iA/5lt5LVSaVF52/tH0NCozWBeQFWMHY7QC+sBmMk8A9hVF8IoNe/n+JDjBIMa4DYPJCEAkB9Hz6LEQwri9Tx15WxibbbGJg78XmMUhMbwTL/aoTTkM4IoX9kYK5jVCxYnN+0N6/kBeETuQgDg6jmDwDxlYc15HI5fI5k5Dh+C2IEUC8loBGpIgRKvwOxCQCLBADBb7BoD59/z8iAlzdBWhJS5DZ+AWITbAxsNkuBD/5qbG/WjrWRg5wzmaUikFSCyNeNbigWFQYgWwPiugHcKwEUMksI0Dr/XKAqvqyH8In0P5UOxhA52bTVrM2Op3QTF5mxpMjpaa2aGmmGTg/QWFSGcbjYrYOQlFCrbBVSBb1yldgmJzOq0nPQG1RNEFeVUUh3s5VI5it6RTJsRWoz2jGo68npO25mLrP1iElURc5X8vUgoxlbEWJw/KkLxXkko2sCBGuzDhP3qIW5ylamIKfvq5iZUTtKh2jzy92Tv8DInvKUHuNZYDCjBpdjViorIDkTJD5fjdda4UfIxF16LRzx9Wa5dfEJxOpqhj8BVFWtGni+gY9jGJlKz8RnNGdaDgOs6s/S02ddTUGEDamLk3/+pMb2BBJRZOJbYl84wkIAqNqyPVhqy4OcgMiYgg05uucPR9iTYf2GZ7WzA+mY6LdwmIUGIK3XLLmdgAgifS7D8215rrMRJjJcQaLA5sXbGT7o7Jmq2giggViPG13gYPz8ofwc3pLInDZJ7YzJCgcXfO4ueHTFZkdU7/lDOSanqImJsn1yFcNaKNWx7S64LasRJsKOHA/ztwTMEu5yEq/fYDgzbEirzz5LDmVTjdiO+uL59lCPBbwFnroljGfEcHGN1ac+Sw7H8whCWV0gPJTViK2hLCqFmAYhHV5A3bYXCE/18PNVcQ3hmFhLnc7W7AQWZxIjZGMIMyaSZRgoHiMLACm9DaFkVxCO+peEYvo86QwHLM3niB5mVyxNOWppTFyTKBF+E5gYjshQJHVHiDPbCbViTqxbE5MGno9GQaac4YxpnqjOPZrbA08O3piWJ1l9moj6MGIaYUsaG6FnENp4+S4LxWbVpEQaXzFenmFmxah9FWRR1ec5U2MxTVadz00NqSFGb0Ztx2N1yqEWVsRXMeXu/YrtSiGSqew9taoarxrDL7jMV9an0saxlWITVTctkiji27SvcO+HyLT1odecWgbdGbYxezmVi7gEI0mm/+4RFhmbSmghAT7Xt5Yabd4FvzedMmf+KGrpg6gdqeHkSVFV1/XttVRTHKjrOWUPir5TZE6Q3c8pvPzo8pC/4D79HJqahX3+LEMTrfVnJ4WzSnOJTI1HqNetdA+QR7josf5eTBXZ1qx+iwS175d5pnSlc6gU7gKdRfYAPGTKu4smRVS63qHoGA9TOMSGT+X3a/IQj7wTVKEeC6FIwEP+EAixVvOrCG86QbzxuDGk+b+I0AWZ44dlneNDeLia64geA6GERKE8F2bZU4dPTEGi3Jbj5f/HQ2gT4bI8OYyj/KvV2VR0jqe5THwMhL74fUSMbJB/6ny0JZq2fQSEs71FKO8Dxqa+dqTP7PF2dS59CeqvIYwKp8fy8AlGJ2oHdpbTHPefQhWxPcxGKBP6w58gtPVQMDrAyVC5UVWtwLxE5zjtqb4V4dMvxqX9A4kWGHkuAFZdVdYz2Fpq26/+34Zw2bjU5RZ8bm7B5MWRCzDyeDidzTWU06ntwZuo/vfzwxS5xY35ISjZ5SmUZaWh47WflcVchGnywxtzfHbtrHScJo6cruT4y176fu3UaabDyGunUKM0Xc0P7yxS1GmiWpsfaDFeGjNh220sHFfD6J2pam1YLwWEUiqmtc6kGu6qBG9+m5iOXjKxYyVYoe2cjZAeLnttCB2igUeTybTqdMbGwkunULcLaT+XMk36Bb4zL5RKU/OmUlSYCGAmy2hqe7KjLaSbhuGOaC4sZkuXbS5+FE4NbUe++zv0dcGjd+bS9STxhY9I8QhY684ME8EziRvtVVTaE0Z2YWuOx9PHofUcO7Wdq0XEQtNy6DXciYdRirw7NsW3QS199oTGtD9khwvmtltpJ0g8Z/bIsMfE9nj+AnIZxwk+O8cX4NAZAj4z/cOpgGkOt11P/RlEbgmLH+QPDV8TAhC5MQicJit0zoMtqAOA+vj4Mpe82hY+NRiJjeUZtdA1cNv/hOuqUkNjwxa/n7jjg4PWChXNQLCi6/garvEZBn4AfX0B1uOH//zjiImTM6Rxx6hvgTd9a0MIE93FoBk7YSIQZBy6O0DJXXRnqnL3FlqPycD6OAJa/OLLynFrZJS5Zkre/Tu54lE7d2fSEl/8LsZzjFDozE498ruZ90XYNH0ZOS0slwImA9Gz00E0Py8/awdQ6t7fAS6KIBg60xFDEzSWxFNoQC7B1vHQ7XwhQtrKKSRRpgITAFqM8efHAx6Jmwtdl6PeyEnAK8H0RDNPlr+69x7N/lHWMage7yLRdXmW4SJkEl8dhB36OgFAVEIuwhytvvl0PoTq+Ys3r+93sZvw96IuIIpckxyZphpmLpOoWEYv6Psb765TuGnm+GjdUTkA6HYBn7HfhARxKUnd5909xbNue+86kl2tIFTN8WqRveEHXKz+fQ8D/Cio2igj9ktqAfId8ZkPlHTPoi3Tl/DSVw8bf7t9lzFnrepJutDvGA0Wtfn+HmDgvwrLwAxzIt/XGHNL4EyDWErxZ7sEAMNBKQudOnh3OAibUOH6SfNxAfLb4KvpDhmVCFG8VZiIEfqpr7j/+73G/kowE25GMXKFVC2mm3UFxeSmcPjPYAKc3+7j97/GFd8of8Bb+C6UD+wKbXIs3PKOF/OeIFoDucHVk5cm5aTkhquoPqqqqmr+AX2Y/zVVXXVK4YGFvmAZyQK2yZkITlwLbp4XCWV4J+YObdyhBcJfPKV7yp3bxCY1tw1qtasoZv0+NdVVX0JoZBSfxKagXg5wZ5KBLQgiz03uEMkpiZeT03C1Fne62yncHezZwxdxLOs6D2u//IuKeHAaN+tZoguKXqyACi6ujFNwBVq6LkW3eK920l4t7gQtNPsUIyQZNROHgu2Bt8NyMES4K4DbY+Kr3FjDDF2j8X4Zugzz6qihjd7M53ZDU48BSbZT56glXuLoCO7npllDfn/RDa+VegNnEziEWKA7cNsdFkdXsWeOlQgRKcmkdwxoR41wY0OLGezn91aJ+61pF6ErVuSCohb/Xb8asnlReDKDiXGHbybjAAC/ZgzzRDfSCE30Egip1k22M6NalHm/Z62xAQFO0MQ5Ld8sI59Kyu1Te3wtkz5PBIOn4k1bojQcTFwWnLNnoxVU+107DiDSxNCxO30MEDW/ChWBDj7JCoVVdftCqsFhhHNfPQOPRoNIWpnRASIZG8sxHyFn0eiF6VvNvfZiz1VvixkBNFWNiIEUa4hFPL4gfrntKwQPts4bG7sEX4/Q/MJ2DMtoVBiIXKz3p6iDbnZoVOSnRO3OsE1EyVEWSWrmX+sBWEZEEJExVnPYHCXEUJAAOjODc6JER0JtesUXidqizB7StMBGHE4phB2x7n2TGYHpc9UixAZjEFUWPxfn1Wh2rDDyyBKwyKDff1LaSZ2EYyPrypJw7soZFwORfvo0wytSJIbijNmKMzu+wNi1od1Zw/cNcnvtF2K4qUF1BcyxjTrJRdFzisMDs4ysh0isG8DZwRQ4rc1JPz3A+rW9O8K2nbiocOdBWnwszN3+eg8hdCeYo6FnA35C9B7BlhjfBeiNqvaZ5MWw6LvLUjz88w1R0T6cG4JJFbQAI09CYPDGgioODK7rsjnkKuZVwpodJxidH5o38rCoeycQUOsvMIRmwrvaJZo9K2Y+uJJFnuvIZYVSuLgy7SUq1cUG1wg//Bn3BiMG5KfsuZSPNcwpWwGv4nce6dMNDGX1m+WIMUx9tlZN5M6uZ/bfsIh4pMVFKeKqn4idJsvC8WEhOI2eNN93AmrqjYVSUeL8465gPBY1r3BHejm+QkvUG/NPN/iSTC+zjSBe5ooh7nkS3aggTpDNIRv9sYJ7I5Qz6Wx6aEa8z9CISA2YG5jO0eKwPucG+dS3pzJMthseWKS8zvuR+2jPKca/F2F0Twirh9KfFNo89Crn+rrGrw5ECTmhBciGr5j4v+MsDBfd0OpeKX3GXF2FgBAyGfdvNPQzmSGIFL7FTIxzwjmtbuh647HozIa/fjT9j70FVk/CHFbmNF78r72zWXIQhAHw1NqqwIBOD77/m66Ef9ASF9vdQ3LsTBmjEEJI8tmbUIY+vycf0TsI/LhTSvI67DtlkQfojzgt5ycfaeOdDEEk6ENt3Zn6Gd7HYOLORCELtj6EO0wZr4B1+TG1qcHC5IfYpmQ0P2Da6L0Kc8CVZTcGxvzp9YUYgQl78eN979S3aTk/rTG7gikfDbS2TdQrLlkoAAmvQ28V1a5hyYzWZJDY3sU96Vuu9Kc0eUa7EZFXKuc7wyQUvop2DOGmCZHsqJehJrtYzxQyd9L7voZvuEaOKWwRfO7cWoAcKFQsTZUa+uw7XMKqdGQQBrwda3d85kLDOnSBkOXVAXQKsq5eynv6uHivEvesliEYmg5ZWMxY5HJwc1Hcsbm10YlNhNIbn+wgqA+nemHSlU5URN6zTP+gIb5HqLEu3t3QvCzph3k0aviy9RJWR5v2hNZRFd2JnIb1UFxssbyr4cL6rLkkONLQrTyr44lm8+yCdWjM7yKC12+jlrI16h1maWRAbRyRSWzxQHdsS9HF4eDXhCCD3Tba2/Hk90zgC7rNHl0AMotyP2RRWjVulO0fDgjmH6Vrbql040Ws1OgIYQbsMuSlT+NrJrAts41vOgcgGKzLdq+t96c7zmIdHYkS9WjdToepcNs/o8vDZdgW4T2HmGnL1Yzvbe3WNyuO4eirs0VFDEsXKD3V9zzUhnl70N7ZLIwCV5PyPPPPRdyARuM5pErdOaqnz56aOuTGr8JBPRMwnt7qT7UuiTJEuGbJ2m9oWLJZ5gp2RKlUzElsBnv0MawPglwSD6+KohgFD5j/AkBgwijxseIKckm/pIBK7XxL7IdUcx3O7a8d6+qZRPfkWHFJuveYQVSFjvsilExSYN4Ruefa+g441hxYu1zDDpxEnsetlVSyEmdDfUEb8pbdO6SurkRSOVL3WqbuUIKXc5rxW3tXZY7PSuXwWeaxyErtYZGvRngO+eNyqyXTAGpXV+Z01URqHlMadzHjscXnM4PXFWWFgW6Ats7J1ka/y+GWw7JPFddQ8Zfd6dx+N8dJcNvDrGtqSeGR13HkvAR4g6gOdANudzkVtl8+w37qVyF2wfDG/C9GeF4ZYVfLc5oeVoapT91Cu28YCHsYRYidj6/nxgdBJQMXB4sLMuxFkWdf2bCevKCx6yHEUamM1nv8MNiqH+4CaUFQoNQ1X9/vjO6m3ld4SP1jxSmJsnfDYWlTMTnHb6IsHyuvabnpt6Im1MjrI/F1/D7G8jneD4yBnVG354n9VhwvvG2kv2MCPyc9Y50vbcQU7J585f2wpMO4wt9x+lPisXu8aRjGbdMDGcdh6H/5usIot22Uf6EbCQkJCQkJCQkJCQkJCQkJCQkJCQkJCQkJCQkJCck/kh/kkwOJR4Mx+AAAAABJRU5ErkJggg==;" vertex="1" parent="1">
          <mxGeometry x="1060" y="751" width="44" height="44" as="geometry" />
        </mxCell>
        <mxCell id="UT0VLJzFDOpIuryW0pFi-7" value="" style="shape=image;verticalLabelPosition=bottom;labelBackgroundColor=default;verticalAlign=top;aspect=fixed;imageAspect=0;image=data:image/png,iVBORw0KGgoAAAANSUhEUgAAAOEAAADhCAMAAAAJbSJIAAAAYFBMVEVHcEz/wlL/0h7/rAL/////1pL/////4cD/xGz/+/n/0Bz/qQD/ogA6O0T/2CD/3CP/vhH/sgnuTU7+yhkEDU3/5xX/9xH8tiwrMEURKUa6mjD9UE5nU0GVaT7uLFfzf0PsM+hxAAAACnRSTlMA8P//LagRh81XLcoFMAAAEdNJREFUeNrsXYl266oOvXHHAAFcj2mTnv//yycGCezEQxrjpm9Zd63bya3ZaBZI57//Ntpoo4022mijjTbaaKONNtpoo4022mijjTbaaKONNtpoo402Wpqe9/sXT29v+9f/J2j7t/cmF464/c/SU7P7PwD6/NY4YPzpgrjD2rw8/13e5QPYukANO1/+IC/fGmDR00wClPnfArnf8WnmXYBs3v4M+55uhUd6+f4XGPkCasWvLJ97ExqM6lWQ+YPbndfdJfssNJ7nWhdFZokVhda5+T6/fFo8PTLG9z4+i0IXmZRSSZmZj9J8zKQyXxeA08Dv/UrzqBjfehxx6ABLJjPWIfclfBvgMp33fQoX7w9pP7uaZRyAzgCdR3OFPEzgbtEDCXx8PLu6E90Vcm3kcgBbD2YGOwEgOyIg+OuDMTCszljNHFiTsWl8BBM0M9MdJ/pYbHyPGGjxKbfqW4gBz3VH0kXzMGxsBO/iA/5lt5LVSaVF52/tH0NCozWBeQFWMHY7QC+sBmMk8A9hVF8IoNe/n+JDjBIMa4DYPJCEAkB9Hz6LEQwri9Tx15WxibbbGJg78XmMUhMbwTL/aoTTkM4IoX9kYK5jVCxYnN+0N6/kBeETuQgDg6jmDwDxlYc15HI5fI5k5Dh+C2IEUC8loBGpIgRKvwOxCQCLBADBb7BoD59/z8iAlzdBWhJS5DZ+AWITbAxsNkuBD/5qbG/WjrWRg5wzmaUikFSCyNeNbigWFQYgWwPiugHcKwEUMksI0Dr/XKAqvqyH8In0P5UOxhA52bTVrM2Op3QTF5mxpMjpaa2aGmmGTg/QWFSGcbjYrYOQlFCrbBVSBb1yldgmJzOq0nPQG1RNEFeVUUh3s5VI5it6RTJsRWoz2jGo68npO25mLrP1iElURc5X8vUgoxlbEWJw/KkLxXkko2sCBGuzDhP3qIW5ylamIKfvq5iZUTtKh2jzy92Tv8DInvKUHuNZYDCjBpdjViorIDkTJD5fjdda4UfIxF16LRzx9Wa5dfEJxOpqhj8BVFWtGni+gY9jGJlKz8RnNGdaDgOs6s/S02ddTUGEDamLk3/+pMb2BBJRZOJbYl84wkIAqNqyPVhqy4OcgMiYgg05uucPR9iTYf2GZ7WzA+mY6LdwmIUGIK3XLLmdgAgifS7D8215rrMRJjJcQaLA5sXbGT7o7Jmq2giggViPG13gYPz8ofwc3pLInDZJ7YzJCgcXfO4ueHTFZkdU7/lDOSanqImJsn1yFcNaKNWx7S64LasRJsKOHA/ztwTMEu5yEq/fYDgzbEirzz5LDmVTjdiO+uL59lCPBbwFnroljGfEcHGN1ac+Sw7H8whCWV0gPJTViK2hLCqFmAYhHV5A3bYXCE/18PNVcQ3hmFhLnc7W7AQWZxIjZGMIMyaSZRgoHiMLACm9DaFkVxCO+peEYvo86QwHLM3niB5mVyxNOWppTFyTKBF+E5gYjshQJHVHiDPbCbViTqxbE5MGno9GQaac4YxpnqjOPZrbA08O3piWJ1l9moj6MGIaYUsaG6FnENp4+S4LxWbVpEQaXzFenmFmxah9FWRR1ec5U2MxTVadz00NqSFGb0Ztx2N1yqEWVsRXMeXu/YrtSiGSqew9taoarxrDL7jMV9an0saxlWITVTctkiji27SvcO+HyLT1odecWgbdGbYxezmVi7gEI0mm/+4RFhmbSmghAT7Xt5Yabd4FvzedMmf+KGrpg6gdqeHkSVFV1/XttVRTHKjrOWUPir5TZE6Q3c8pvPzo8pC/4D79HJqahX3+LEMTrfVnJ4WzSnOJTI1HqNetdA+QR7josf5eTBXZ1qx+iwS175d5pnSlc6gU7gKdRfYAPGTKu4smRVS63qHoGA9TOMSGT+X3a/IQj7wTVKEeC6FIwEP+EAixVvOrCG86QbzxuDGk+b+I0AWZ44dlneNDeLia64geA6GERKE8F2bZU4dPTEGi3Jbj5f/HQ2gT4bI8OYyj/KvV2VR0jqe5THwMhL74fUSMbJB/6ny0JZq2fQSEs71FKO8Dxqa+dqTP7PF2dS59CeqvIYwKp8fy8AlGJ2oHdpbTHPefQhWxPcxGKBP6w58gtPVQMDrAyVC5UVWtwLxE5zjtqb4V4dMvxqX9A4kWGHkuAFZdVdYz2Fpq26/+34Zw2bjU5RZ8bm7B5MWRCzDyeDidzTWU06ntwZuo/vfzwxS5xY35ISjZ5SmUZaWh47WflcVchGnywxtzfHbtrHScJo6cruT4y176fu3UaabDyGunUKM0Xc0P7yxS1GmiWpsfaDFeGjNh220sHFfD6J2pam1YLwWEUiqmtc6kGu6qBG9+m5iOXjKxYyVYoe2cjZAeLnttCB2igUeTybTqdMbGwkunULcLaT+XMk36Bb4zL5RKU/OmUlSYCGAmy2hqe7KjLaSbhuGOaC4sZkuXbS5+FE4NbUe++zv0dcGjd+bS9STxhY9I8QhY684ME8EziRvtVVTaE0Z2YWuOx9PHofUcO7Wdq0XEQtNy6DXciYdRirw7NsW3QS199oTGtD9khwvmtltpJ0g8Z/bIsMfE9nj+AnIZxwk+O8cX4NAZAj4z/cOpgGkOt11P/RlEbgmLH+QPDV8TAhC5MQicJit0zoMtqAOA+vj4Mpe82hY+NRiJjeUZtdA1cNv/hOuqUkNjwxa/n7jjg4PWChXNQLCi6/garvEZBn4AfX0B1uOH//zjiImTM6Rxx6hvgTd9a0MIE93FoBk7YSIQZBy6O0DJXXRnqnL3FlqPycD6OAJa/OLLynFrZJS5Zkre/Tu54lE7d2fSEl/8LsZzjFDozE498ruZ90XYNH0ZOS0slwImA9Gz00E0Py8/awdQ6t7fAS6KIBg60xFDEzSWxFNoQC7B1vHQ7XwhQtrKKSRRpgITAFqM8efHAx6Jmwtdl6PeyEnAK8H0RDNPlr+69x7N/lHWMage7yLRdXmW4SJkEl8dhB36OgFAVEIuwhytvvl0PoTq+Ys3r+93sZvw96IuIIpckxyZphpmLpOoWEYv6Psb765TuGnm+GjdUTkA6HYBn7HfhARxKUnd5909xbNue+86kl2tIFTN8WqRveEHXKz+fQ8D/Cio2igj9ktqAfId8ZkPlHTPoi3Tl/DSVw8bf7t9lzFnrepJutDvGA0Wtfn+HmDgvwrLwAxzIt/XGHNL4EyDWErxZ7sEAMNBKQudOnh3OAibUOH6SfNxAfLb4KvpDhmVCFG8VZiIEfqpr7j/+73G/kowE25GMXKFVC2mm3UFxeSmcPjPYAKc3+7j97/GFd8of8Bb+C6UD+wKbXIs3PKOF/OeIFoDucHVk5cm5aTkhquoPqqqqmr+AX2Y/zVVXXVK4YGFvmAZyQK2yZkITlwLbp4XCWV4J+YObdyhBcJfPKV7yp3bxCY1tw1qtasoZv0+NdVVX0JoZBSfxKagXg5wZ5KBLQgiz03uEMkpiZeT03C1Fne62yncHezZwxdxLOs6D2u//IuKeHAaN+tZoguKXqyACi6ujFNwBVq6LkW3eK920l4t7gQtNPsUIyQZNROHgu2Bt8NyMES4K4DbY+Kr3FjDDF2j8X4Zugzz6qihjd7M53ZDU48BSbZT56glXuLoCO7npllDfn/RDa+VegNnEziEWKA7cNsdFkdXsWeOlQgRKcmkdwxoR41wY0OLGezn91aJ+61pF6ErVuSCohb/Xb8asnlReDKDiXGHbybjAAC/ZgzzRDfSCE30Egip1k22M6NalHm/Z62xAQFO0MQ5Ld8sI59Kyu1Te3wtkz5PBIOn4k1bojQcTFwWnLNnoxVU+107DiDSxNCxO30MEDW/ChWBDj7JCoVVdftCqsFhhHNfPQOPRoNIWpnRASIZG8sxHyFn0eiF6VvNvfZiz1VvixkBNFWNiIEUa4hFPL4gfrntKwQPts4bG7sEX4/Q/MJ2DMtoVBiIXKz3p6iDbnZoVOSnRO3OsE1EyVEWSWrmX+sBWEZEEJExVnPYHCXEUJAAOjODc6JER0JtesUXidqizB7StMBGHE4phB2x7n2TGYHpc9UixAZjEFUWPxfn1Wh2rDDyyBKwyKDff1LaSZ2EYyPrypJw7soZFwORfvo0wytSJIbijNmKMzu+wNi1od1Zw/cNcnvtF2K4qUF1BcyxjTrJRdFzisMDs4ysh0isG8DZwRQ4rc1JPz3A+rW9O8K2nbiocOdBWnwszN3+eg8hdCeYo6FnA35C9B7BlhjfBeiNqvaZ5MWw6LvLUjz88w1R0T6cG4JJFbQAI09CYPDGgioODK7rsjnkKuZVwpodJxidH5o38rCoeycQUOsvMIRmwrvaJZo9K2Y+uJJFnuvIZYVSuLgy7SUq1cUG1wg//Bn3BiMG5KfsuZSPNcwpWwGv4nce6dMNDGX1m+WIMUx9tlZN5M6uZ/bfsIh4pMVFKeKqn4idJsvC8WEhOI2eNN93AmrqjYVSUeL8465gPBY1r3BHejm+QkvUG/NPN/iSTC+zjSBe5ooh7nkS3aggTpDNIRv9sYJ7I5Qz6Wx6aEa8z9CISA2YG5jO0eKwPucG+dS3pzJMthseWKS8zvuR+2jPKca/F2F0Twirh9KfFNo89Crn+rrGrw5ECTmhBciGr5j4v+MsDBfd0OpeKX3GXF2FgBAyGfdvNPQzmSGIFL7FTIxzwjmtbuh647HozIa/fjT9j70FVk/CHFbmNF78r72zWXIQhAHw1NqqwIBOD77/m66Ef9ASF9vdQ3LsTBmjEEJI8tmbUIY+vycf0TsI/LhTSvI67DtlkQfojzgt5ycfaeOdDEEk6ENt3Zn6Gd7HYOLORCELtj6EO0wZr4B1+TG1qcHC5IfYpmQ0P2Da6L0Kc8CVZTcGxvzp9YUYgQl78eN979S3aTk/rTG7gikfDbS2TdQrLlkoAAmvQ28V1a5hyYzWZJDY3sU96Vuu9Kc0eUa7EZFXKuc7wyQUvop2DOGmCZHsqJehJrtYzxQyd9L7voZvuEaOKWwRfO7cWoAcKFQsTZUa+uw7XMKqdGQQBrwda3d85kLDOnSBkOXVAXQKsq5eynv6uHivEvesliEYmg5ZWMxY5HJwc1Hcsbm10YlNhNIbn+wgqA+nemHSlU5URN6zTP+gIb5HqLEu3t3QvCzph3k0aviy9RJWR5v2hNZRFd2JnIb1UFxssbyr4cL6rLkkONLQrTyr44lm8+yCdWjM7yKC12+jlrI16h1maWRAbRyRSWzxQHdsS9HF4eDXhCCD3Tba2/Hk90zgC7rNHl0AMotyP2RRWjVulO0fDgjmH6Vrbql040Ws1OgIYQbsMuSlT+NrJrAts41vOgcgGKzLdq+t96c7zmIdHYkS9WjdToepcNs/o8vDZdgW4T2HmGnL1Yzvbe3WNyuO4eirs0VFDEsXKD3V9zzUhnl70N7ZLIwCV5PyPPPPRdyARuM5pErdOaqnz56aOuTGr8JBPRMwnt7qT7UuiTJEuGbJ2m9oWLJZ5gp2RKlUzElsBnv0MawPglwSD6+KohgFD5j/AkBgwijxseIKckm/pIBK7XxL7IdUcx3O7a8d6+qZRPfkWHFJuveYQVSFjvsilExSYN4Ruefa+g441hxYu1zDDpxEnsetlVSyEmdDfUEb8pbdO6SurkRSOVL3WqbuUIKXc5rxW3tXZY7PSuXwWeaxyErtYZGvRngO+eNyqyXTAGpXV+Z01URqHlMadzHjscXnM4PXFWWFgW6Ats7J1ka/y+GWw7JPFddQ8Zfd6dx+N8dJcNvDrGtqSeGR13HkvAR4g6gOdANudzkVtl8+w37qVyF2wfDG/C9GeF4ZYVfLc5oeVoapT91Cu28YCHsYRYidj6/nxgdBJQMXB4sLMuxFkWdf2bCevKCx6yHEUamM1nv8MNiqH+4CaUFQoNQ1X9/vjO6m3ld4SP1jxSmJsnfDYWlTMTnHb6IsHyuvabnpt6Im1MjrI/F1/D7G8jneD4yBnVG354n9VhwvvG2kv2MCPyc9Y50vbcQU7J585f2wpMO4wt9x+lPisXu8aRjGbdMDGcdh6H/5usIot22Uf6EbCQkJCQkJCQkJCQkJCQkJCQkJCQkJCQkJCQkJCck/kh/kkwOJR4Mx+AAAAABJRU5ErkJggg==;" vertex="1" parent="1">
          <mxGeometry x="820" y="480" width="44" height="44" as="geometry" />
        </mxCell>
        <mxCell id="UT0VLJzFDOpIuryW0pFi-8" value="" style="shape=image;verticalLabelPosition=bottom;labelBackgroundColor=default;verticalAlign=top;aspect=fixed;imageAspect=0;image=data:image/png,iVBORw0KGgoAAAANSUhEUgAAAgAAAAIACAMAAADDpiTIAAADAFBMVEX///8AAAAAAAAAAAAAAAAAAAAAAAAAAAAAAAAAAAAAAAAAAAAAAAAAAAAAAAAAAAAAAAAAAAAAAAAAAAAAAAAAAAAAAAAAAAAAAAAAAAAAAAAAAAAAAAAAAAAAAAAAAAAAAAAAAAAAAAAAAAAAAAAAAAAAAAAAAAAAAAAAAAAAAAAAAAAAAAAAAAAAAAAAAAAAAAAAAAAAAAAAAAAAAAAAAAAAAAAAAAAAAAAAAAAAAAAAAAAAAAAAAAAAAAAAAAAAAAAAAAAAAAAAAAAAAAAAAAAAAAAAAAAAAAAAAAAAAAAAAAAAAAAAAAAAAAAAAAAAAAAAAAAAAAAAAAAAAAAAAAAAAAAAAAAAAAAAAAAAAAAAAAAAAAAAAAAAAAAAAAAAAAAAAAAAAAAAAAAAAAAAAAAAAAAAAAAAAAAAAAAAAAAAAAAAAAAAAAAAAAAAAAAAAAAAAAAAAAAAAAAAAAAAAAAAAAAAAAAAAAAAAAAAAAAAAAAAAAAAAAAAAAAAAAAAAAAAAAAAAAAAAAAAAAAAAAAAAAAAAAAAAAAAAAAAAAAAAAAAAAAAAAAAAAAAAAAAAAAAAAAAAAAAAAAAAAAAAAAAAAAAAAAAAAAAAAAAAAAAAAAAAAAAAAAAAAAAAAAAAAAAAAAAAAAAAAAAAAAAAAAAAAAAAAAAAAAAAAAAAAAAAAAAAAAAAAAAAAAAAAAAAAAAAAAAAAAAAAAAAAAAAAAAAAAAAAAAAAAAAAAAAAAAAAAAAAAAAAAAAAAAAAAAAAAAAAAAAAAAAAAAAAAAAAAAAAAAAAAAAAAAAAAAAAAAAAAAAAAAAAAAAAAAAAAAAAAAAAAAAAAAAAAAAAAAAAAAAAAAAAAAAAAAAAAAAAAAAAAAAAAAAAAAAAAAAAAAAAAAAAAAAAAAAAAAAAAAAAAAAAAAAAAAAAAAAAAAAAAAAAAAAAAAAAAAAAAAAAAAAAAAAAAAAAAAAAAAAAAAAAAAAAAAAAAAAAAAAAAAAAAAAAAAAAAAAAAAAAAAAAALI7fhAAAA/3RSTlMAiND4sOj+Af0DBfxI++AEAvb6DAr3+QYHCAsN8+69HPXvGvEUDyUJDsxFPfLrhbsW1sXafB4+7McYTFgQ1MN3keQXE+kSwfSOSSMva6DmM9MoG3hsXhEwYk3JFW/wcEaH32Pi3TzZoopge8LPsurYMdu+QanhMkIqNO0ZLKpP52fRyHPGHSa4scSVqFsf5ac5QFpQmoY43Eogfk50ucs6gqZD1yubIdWhhDZUv7d5sy1W0q3Ko4BLR1VZUTulP5C0f3KLfWXNkq6svJckLp6JIs6vwI1TKVJfZCedNYx6j2qfnIGU41xhtnZEV4O1mN5tXZa6aGmrdW6kk2Y3cZm5j+/+AAAp8UlEQVR4Xuzd538U5cKH8QsF9iQnEk4SE4qA5IQiCkYgCIKU0IvSmyAIgnTpAQkEpEkRpAgPCNIEpEmRTuiCIF0QpMRgQEpySCQxZlmM+rw7n6OZubfcM7ub7P39C/Li+twzm52dHx6lKIqiKIqiKIqiKIqiKIqiKIqiKIqiKIqiKIqiKIqiKIqiKEoNfJmy+18f4ruU/f/6s2A7XJWP3E3ZOjQROF7LNwNQ1q7bBsCP5W0+GIAS3b4vAHCrvNXnAlDKNJ4PAMA3re77WABK0Yp7+S9ON031qQAUv/Gj+F9d/hPvSwEoSSX5q9p3En0nAOWrWvzdwy67fCUAJTmUnCa81Mo3AlA6fY6WksOH4IwnyJWU+dvRdGt3dx84AZSDHVPQEbagfV4PQBmyPQFdft+Wy9sBKGdGxyPyaa+8fA+ghC+IR+jtBXn4BFA6PN6CPWcaPsyjASghJc9i35zYrDwZgBKYGIQjkutcy4P3AIplbRAOCQsrkwdPAOVQXRw16NiFvBaA0n8Bjqv6xOm8FYAyYTzOuDtwS166B1A2TsMpxRJa5qETQFk1IhknVZwXnVcCUN777DZOC23wuRcEUOvdfF/k77t66vmMiF9q4dP6h7beMe6Do2vWndywev4BnHC97UVcUOhaMQ8GUOSt4puWvh05Fy1KaOs5tQveScIRpTrMwCWW1zd5JoBa0fWOfmDFHqX6vVErr6UjVj/tHK46XsvtARQf9/w7N604Suk28KNTiegrVncNLhH8bsy0ANqsmTkzA2cpyeXS0RE2tScyXt9vdVcAwdHXr1lxnlJ9UFd0FI4dgZxLje67IwC/Dh3m7cEVSsQL29AzYySySv2aanoA0W33bsM1SlCxy+i5/QzSLAt6mxzArI4vpeAiJWxVE/S024i8yeMwNYDW2YczcJUScOY59OxrYUPaE39iZgAxbetYcZliablRv42CqUhLKIOJAVy42QoZyms70LNwxk2kFShgNS+AIhNjU5ChbGmDntVXpiCt8aV7mBZA9+/OIEVZOAA9s3YcRNqT/76BWQG0eX4icpQ7z6Cnyz8XI6335RNmPRHkd/TUROQo6/+NnuLnFiNtwt0TZn0d3Kbox0hSdnSwoqNIwSSkdUvbiUkBBJS+iCRl2pxkdPhtaIG00NKnMCeAwNZrbUhSBu6/hp6PByAtYPhEzAmgVP8YZCkV/ryKngX9kdd5HeYEsGj5SZwV1uu3ytuPtfw/fNvGq/X9dj3XPQ2oXfAAen5/Anl1j2BOAJs72XBcwXqv/7z7wU9Z/JdiqfRrhcwqU9DTfpsNaZdfwJQALHvq4qBCIxP//OEYTlJeuZSBtPXdbaYE4P9/3XCE5d91ki7ewXlK701pSDvSMh0zAgie0RMHrD7xYh9copxtl4i0GcuuYUYAEXOaY1fBffs+wEXKhS0TkNb6wTHMCGDWtcXYU6XcVisy1AaEtJ5HEpEIQObnKZnLBuM6pcwPvyOt4a3rmBFAw56dELIc3fYBEpSibT5GWsVmM3AhAPn3Uw33n4wMJfC9UUjLP2I6ZgQQuK0OIhOC30WKYmn0JdL8zj6P0wHI/3EBUfevIkf5IRx52QUwJYC+/4fApMvrkaTUOYy8qDOYEkC3lejzW/mWFUlKz0+RV++wOYMRvbegr2F4RyuSlPnrkXfwBE55EsdE/H4VXaX+cR5Zytyhj5C2uf0jnJIfh1imt0GP37yMW8hSYuZlI63GrSxzVsMSS6MnNG4Q0pSyJeORtm5ZPGDCPUC1iugJDx2ENCW8ZjzSYgRDIlL3AF0abUdHdPMvkKZ0CPkcaZU4CaacANFD0VE5czLSlJCELUgrsWWLSevh6YXQUeGZeKQp/olhSAsLuQKmnABlQtBRtXI80hTLz2FI87t8Bcw5AeoeQtuEcm8gT6l7CHlJz+KS/NjT/DDaIqq+jzyl6iHk7W4GmHIJsNzLRFNYu/XIUzJPI29mM8wKoOdZtJWZjjxlbwjyRk7FrABq3UBbvePIU1LetCIt8rOHpgWwKB5NFb5HnpJQORlpO39KxqwAIoajKeLzZKQprVvfRtqQIam4Lh9CK7qjaV9jpClTEpciLVruLvIJRIq/j6YzjZGm1N+0FGmxL5/GvAAiEtHS+3WkKcFh55BW+plpmBdA0a/RdOcespSwH9cgLfhBf+TkQ6DFdrR8Ux1ZSuFeM5FmmToCzDsBAo+ipckBpCm3ZiKvwwgw8QTY1xAtKWHIUlZ0R96GjmDmCXAbLetKI0t52B15CzpiagCx76IlMwtJyrxQ5O0Yi7kBlM5EQ+uBSFICJtiQNrz3Q+SRH1130BK9FTnKnDk3kXZi/X3MPQGax6Fh0SjkKKtn3URa1f53MDmAeWipZEWKMivlFtJavnMBkwPwG4qG6DbkJsWb4W0i1w5FWnjPPpgdwJZtaAhKJhcpOje+ubclufAM0oKWtML0AALR4HeGXCRwcNvHV5bjTYp0rIG0Qs81wPwApqOhfxK5h6XTKEh8vzvew2/rLKRZTn+N+QFE7kLDXXKRw4sAbu7eiNdY+jLyxpXHDQG8byOn0AvkHruqA0DyW53wEm+9gbwL43BHAMXQ0P0quUbXpgAAmZuP4hWOLkfe+ZdwSwCr0XCHXKP9Bv7L9uoKvMDVBsgrUBO3BBA7h5zyHya3iNtl4390f2zB0zpH2ZDW+GkregobGUAYGi7cI5cYPiWTvyjwViCe9fyeDKQ9efMeevxj5QMQd0EauUTC3mz+ZtGvRfCk5pXTkNb75RvoKfz+iBoGBrAaDSPJHUZ3uUQOvxUMxnMuVF2FtIKCEVjL6RFMkg5AfLsXdItcYfE3J9GQ1LghnlLj4wlI69ZmF7pqRMBi4wKIvEVOT90nN4i+ehBNax7F4hllvlmCtNAe69FV6RAw27gAfkNDKLlBrTqz0XE0eS2eUK7R70gLiItGV9tvAS4aF8BmzY7JBUKy4tC15P5q3C+w0cfI6zgIXe02AXDeuABS0HAW7xc2/CwCQ68k4G6W2vOQ124Zuvp9CQCHjQtgAzkFJ+P1Cr8zGqEpdYfjZme/RN7lL9C1d5UNAOKDDQvga3Kam47XmzwRMW6vWoJbtX0eeX2roGt350wAgH1GBeB/nZx64PXOD8CulGF3caNrm5B3ZJ0NPcO7pWoc3JIBVM8gp9N4uzqROCDj2Ra4TXxl5M3ok46ehetT+K8GRgUwAw3T8XK/HcYhtu39cZPhTTKR1vrsNfR0nHmb/6KEUQGsRkM63m3bUzhqwQ+4RczebKT1vLhBv42wRP5HEaMCiEfDLbxaQA8rDgu/VRjzlX10CWmDjyeiZ+3DufyvMUYFMAgNDfFm+0NScUKJQWGYrc39uUirmHQdPW2aHuQv/jAqgLa57j/BzXvfxCkTh4Rgrg7/SUda/ubb0NOldWH+aqpRAYxCw1K8V9l9iThp9MgymCmk0lGk+V2cjp5a/+rK32w3KoBsNBTEa7W5/xinxTSOxDz+i2ORN/p59ARnz+fvWhgVwBU03Mdb1b+ZjgvmV4vCLJbtbZAXNQFd806QQ2ujAniBnPI/xEsV73IOlyyudB2THI5G3skz6OuulbRRAawkFynasQcuWvrxEExxrDryVtXFSS9JBJBrBQ6ehcvmpvbGBL/WRN60fjYk+EoAlk6jkLBqUwCG2xaMvEnzs7BPBVBjEVLSCm7DYBV6W5FW+au72KcC2HUISakdj2OoDRnJSOuVFo99KoBHTZFmfWUpBroy6zbSqqclYZ8KoH0hjPB2JQwzZdZJpJUYvgX7VAAb9tgwxLczLBgjouRSpIUV6oADVADvLMIgIzMCMULwnK7uG4FVATzsWQ+DFOxWFHlhzzRHXoOnUQE4xnZ4IQaZN7+4AQ+lX0De7h2oABw2YAAGaTupPpLiJyLvl2aoAJywsDsG6dErHCkPqiJvZElUAE5Z9bUfxuh0thkSHgXjgRFYFQA1JxfCGIWjxuKyDwshb7nzI7AqAEacCsMYE1Zm46KmU21IGzI1FRWA856rEoQxbj27Cpcs/z4VadFfJ6ACcMXuCSUwxu0e83HB2LibSIt9+zQqANcMHhOOMbJHt8dpi4NuIa10aFdUAK7q37ISxsjc9ggnRX4yFGnBzw1BBeC6Oc1bYgyb5ROcUn7lGaRZxuxGBSBjWnYgBul904Ljikyu5AUjsCoAdpWrikGePeGHo/z2tUXei6tRAcg6XbA2BnlpQxgOulYReQsuogKQd6LgCQzSIqEYDslXAnk7RqICMMKB7lUwSED/Wjhg0h8YMQJrVQEY48b9UhgktmE0dvWbhLyLu+6jAjDI3d/SMEjci7MQY8kqG9KGGTjEowLgXolTGGR2p9YIVRuTibSWURdQARgoq25fDFIsoSUCzculGDEC+wYqAENZV/yMQS5+Vw1dzfatQlpQg1aoAAxmC7qMQRJu7EZHjWKPjRiBXYIKwHgvrMQgaV1qoqlWkyVmjcCqAOS9VReDpJ6dgIZyT8Qhb2F5VADmONLegjGs4+uQQ+C0I8i70AsVgFk2tfHDIIfz8TeWxa3MHYFVAchbV6UQBvkjrTB/Ua8j8qbXRAVgpuND82OQf433539s3o28gXOtKgBzTexaGoMM2VXuf8pqjbwn991DBWCylf+siEHqlCoPAPB9I4wZgVUBmO5yXEkMsjdfBACMeiHToBFYFYD5OmxtiEGujC8F0HJnNtIi2uxCBeAWVZ6KxiBdfz4DU0tdQlrokvWoANxkS++eGCS9xtk20+YaOgKrAjDfGweHYJDH7ULSDR6BVQGYL+nSdgySuNjwEVgVgPkOzl+O92j6BSoAN4ufUQdv0fcQKgC3u3olErPIj8CqAMz3IPldvEGVdumoADzh/qcj8bzWEQ9QAXhG1oJbeFrgxQ2oADzFWnYmnjV4dCIqAM+xxfTDkyomjUEF4FGLjiJDfgRWBeBhdSbjKX7rpqMC8LhxWRY8Y3R7VABe4J8tA/CEqAmoALzCxs3BuN/JM6gAvETj8qG426q6qAC8xtezmiBBcgRWBeB53UZGIEFyBFYF4HkNXqiO+1Q+chcVgHfZ1rAg7tIr7QAqAG8z+f1eSJAcgVUBeN6Yar1xhybDt6AC8EZ9DlbGfMFFOqAC8E6JFQZhNr/nVqIC8FZrUiZhsgbHUQF4rw2Lv8NUP+1ABeDN7rSbhol+KYEKwLtdm3MJ08SVRAXg7ZJfXYVJIj95qALwfumDbyMgOQKrAvB+D8vUQ0ByBFYF4P1shxdiuOiSCagAcosBAzBY7NvDyT0BKAu7IyA7Auv9ASirvvZDQHIE1vsDUGpODkBAcgTW+wNQRpwJwyCdRpD7AlCeqxKEIV5cRW4MQNk9oQS5dwRWPgBl8JhwpH0zktwagNK/ZSUkfdHKqgJwhiVyyO7/XJ3Qre2u899Vqjrpx3s1O7eMxFPmNG+JlItj75Pb5McjyrVJHrbi6as7zwMh4wH4FuAYkP/jp+PHXr04HLebdiZmBq4bdugqdqkAypfunbTq+lSYibZsaMszDVJbLbvULBa3qho1bDauatnpI8RUAP6lR/40/XsYgn1TiIJNs69NvIv7nM5f+yiuCd9UBREVQJf0lS9+B7E44Rx144a1GnUCdzkRcaIGrghqVwV9KoDgSyfeyuA2zkuGi4dt3e/jHgndu8fivEItlqBHfQqwNP3oqaJtMnBVZp1GBU4PwT1uLBzuygjs5+hQJ4B/8/u7GIKcW1QN8x+MO9z9PDbIsBFYdQIU69Z5w1GMMPrd6kssuMG9EqdwTr9eaFInQJGa5aZgmBPs3J+J+bLqdluEE84vQpM6AeLGb5qCkbb8kv8C5rOu/1l+BFYFcOWX9/titN8argjBdA+DmkqOwKoAwr56OQATpHTvkYL59qTimImaI7AqgOv7amVgjhnPnPfHdCF1cUTvPTfISQVwb1AlTGOL3NAM0x1pb3FxBFYFUP6jInswU/NbH2K6TW38XBqBVQGUenoIJrs0fD2mW1elkAsjsCqA0Q2OYr4OSYGY7fjQ/E6PwKoA9q9ZijuUXFYMs03sWtrJEVgVwJLOt3CPNpPrY7aVoRWdGoFVAYyKTcFdegwNxmyn4ko6MQKrAmi+KRn3af5MGGbrUKmhwyOwKoCo+gm404V3CmO2nU9Fk1OaxgisCqBh9lDca2I8ptvyUU/+rkq5dP5OBWCJPoe7Vf0N00Ue7OPICKwKoP1o3C90LKZLSthufwRWBTD2czwgbWcIpjs4f7m9EVgVQJFq2TinxMDDW7Lim81t80qxoq98v2LxrPbHFwwqhJPO7cN88TPqiEdg1SNhRL6G40oHFdp2J3PBAoDdAPcrAGyCcisO9Ii5ZMNxL+1tjOmuPoi8AABhH3YjJxVA6304KmjToOQfCUTTtR6sJvLNwvNx2IaQB5juQf535wH4fdYeDSqA9zfjmDoRYfUR48IFbn780Vwcs7RtM8x3/1PLTOBBABrUPcD+ijgiqEfzo8uu4oCdpZeOn4FjukThBlkLbsHxALSoAGJwRIFpK3bhqKyJo+ZH44i0N3AHa9mZJ2uhRQUw/yz2DWuW3QenvHvtxfw4YMh7uIMtpi6aVADbsStowOe7cdbdi43fxQHlcQ+bCkDT6L3Y023jwvu4YNf8dhbsGlgKD1IBtMSegmkNcNEXG0OxJ2MrnqMCCFmIGIGld0rkNaMS9rQphseoAF5fhVjlBteR0KNEH8RIvI7HqADOIhbRbjNSdu0viBgV8BQVQMh3iNWJRVLi3kKI/dwQD1EBRGUjtHkZ0qJjEMsojIeoAGIQ6jYMeYw7hdg4PEQF8BNCAUkYoc0QhF4vh0eoAKZ0RaT3/2GIO1UQutkfj1AB7ERoPAbpNhChl/AIFcAWhOpjlACEXsYjVAC9EKlxHaNMb4xIdTxCBfAUIuswTnNEvg/BE1QAFxFpgHEGV0HAOhYPUAGEX0KgegIGOo7IRjxABfAGIp9gpHaIHMA0luDYsjEHX9k3b8moDaOjGgaSV+RHWggiuzHS/oKP0VfNlNcd/rBm2fapNx8wGY7TEGgPAYUKxxx6Z+GxVBUAfDIYga6jMZCtDwKjumCokND8+X8sU6YJbdrwV5nAABoFfG0LHXTQ1wP4ApECGGo8AicxjqVbgx+nX0YsEzjQZ2ynC1m+HEA+RNZjqK6H0bd2PgYpO+bIJxCDIxZzvHr8qeY2nw1gxHYE2r+LkQ4i0AlDNNxa/wTdccJJ6r9xtvtwHx2MKIGIlVwmvO4F/xM4bdm3U5Km+uYJ8C0iBclVSt3w+wHXpDJxxPc7fTCAroicJxeZMiiiQDYus8L0o7t87hJQDZEp5Bp+kz58Khk5o0609fe1AIYgkliGXGJs67FpSEvbtG6hjwVwrBACydvJFfyPfLIGQ7w2bEawb62GDUPkaXKD1YVqJ2MQK9uTr/vQCcC3iJTpgPdbMu01DHT05d2+FEBXRFKT8XqJAy5hqFUtP7H4TgA3EbpYFu9WbmZpGwaz9f49RF0CACCtoQVvFr18BCb4zT/EVwJoh9jHr+HFuvxWA1Mk+Yf4SAAdGyJ2Zjheq+HnR8G0AnwjAFtjxG6u6oyXKvPT72BiAT4RAEMQI2XHPLxS8eArmCjpoMUnAmiJPRkx3Sx4n8AnT2Cqim/7RAC7YrDHurJOa7zOuSRMtizAFwKgM/btPX4kDO+yLRyzWf91wRcCuI0DkmsXS8GbjB6Ao7olr01tv+mdsyFPf/LDnvt1Lx+MwUG3toX4wF5AtzbLcMA5lgV3suIlyltv45CqTz//xWfAJpZAH4AX4MVHV1ak4oC4t5/J+wGkl8IxPejy8PADvEL7iThgYMdjZ9lDDl2h+P7U3hnYFbGwf96fjFkUjYOWbPz3gtV4gbiJ2Ndl3oLaY9Bxp2GnonEW7LHu88/7AdwvjsNO9u/y5ea1eFjwHezqs2ntYISuTxp+Gnu2vJX3A+B0Q5zwWuvO1R/VwJOiliJGy/fXt8euD6q99SRibCyb9ydjrhXBOSc4+9zA51pk4RlDliDGu8e/xCEri6zqhlBKpA8shiSUxEm2K/3rBW15OBUPKNwgE7F6n6XioPvvbEDswsE8fwJwpy0uuA3vTTv7+6NI3KtJc4QCmh7GcbaOW/aJc9nhA8ORByJxTXpEuRdnz/xxqwW3CQxAqMSmTThl3dVuiMyqlvcDePjrXVw2dESplqFbkhf64xZXlyBSvWZTnBSakR+R+3k/ABLCwpBxq1VoP8uw2ynFMJvfDET8flmP07alI5LUO+9Px5K/BbLSgF/emLTy+AFM1GI2Ij0X4oKAj4Yg0GSJD8zH7ziIPDLWhL//1asZ8eUxiV8iIu9+iks+7CPetvSBAHizNcawHX2qQUqjzUMsmODWGQQWnbfhkjt9gtBn7e0LAdytVgnDpO5t/dEf6/bVx2gNEAiqdgwXVRmMQHuLDwTAmBJ9MNLjjg2Pv3F7jh8GirqGQHQVXDanD/oKD/SFANj1Qx2MZV3zzOCQ1/ZjmD+t6Kt0GNc9fFKYlk8EwIHrczDcrS/rv3Q0AmO8ikDZVCSsDERf1/I+EQD3R/fABOdezRiRYkHe87PNOgAg6yL60oJ9IwBsK74uhAmSZz59v384sraadwBAjQnoC/KRAKDmxpKYovCC5EGvICWwiXkHANwrgb7KPhMATWq/bsEUmfOOT85GwjMJ6Hs1FUnTC6FrQnOfCYA127u3xiSx/iujcFkcAvuRdeMlUb2+EwAsOTS5BOawdfuxUnFc9Cv6+lxH2lT0DfKlAEgfV82KSVK+TTleGFd06Yu+Uci7i753gn0pANjsv3cYJnn8ytAUXPCyzeTndt6JRVdqnG8FAE0W15qCSeKe7lMUp4WiLzwOIfn/Bp71tQDIOj621ev5Mceiws7XtRh9/dORxx30NfO5AIBt2zsNuIsprhx6HudEH0RfPowg+pP8fTEAWLOwwr6BmCH+XiZOOYXA6xhheCi6uhTxyQAgvfGCTv3WYbzUf/4RZtjG5WsYYiK6Mnr4aADA+kWdP28/LT9GyzcsGscVQd/gaxjiafS95bsBAG9sei9s/IKPMFbMZ1E4bCX64jGGH/oK+nQAwN2JA4cNjZoUgIGKvRyCg8oMRt8MjPEj+lJ8PQCAOWfiSizu16UQRpl/y4JjFtvQ94IbJs7nqgAAuNp30dpCT/WoEYwh/ObjGGEo4zHGe+jLVAH8153MFSf/8fyLM8KQN/B7HFISgfcwxh/o876XheTHk+7e5WK5z/5YeyAbKbYmZ6vggEcINCqAIa6gzzp7uArgb651g6LzIv/TLwXX7ekZkYB9wgdLb+EGV1EBaLg3GIq8sLhgh5u4aFkkDvDH066oewA99y/XqmYdsXC5Hy65UAH7xuJpRVUAIsmzBvSs+eXaQFzwD+wqnoCnNVGXAHsOHIBy1cqOw0ln9zZBjHg8rrw6ARxxfXXc2SVDcM4E7PkIj/tWBeCgqu/MbdW0JU44EYAYx/G47SoAx23bEx9fG8e9jhjt8LhJKgBnWBud2n8CR61ZhNgBPG6iCsA5toavNKuCgz5BrAQeV04F4LTd5+Jjcch39RHKxOO6qQBc0CjfVhxh64vQRjyusgrAFVNa34/AAfUR+ozcSQUARXvWlr/H/pjcSgVAbIHV2DV7FiIDybVUABwcPwy7TkvUrgLwcokhD7GnKSJbycVUAMT2DEOMXhYElpCbqQDYMh8xHg9FoB25mgqAuJ4gcaP/FopoMsb7XRuBGNeLoe+jXugbOQs3eBioApDRe1ISQjEIzEOgwYe4QaC6BMj5HLE5Lv8sYCK5gApgnB9CNxGoi0AjFUBucHAsQl8icDccfZtVALlCb4R+ReRF9H2gAsgVfpG5yXoTfXNVALlCDEJPufzbwOIqgFxhjwWRkYg8g75thVUAuUHWS4gEufyGmNRoFUCuUBCRzq6vxdTGF+VHxvXK6CuSgBkGI5KFSGw/K7ouqgCc9t0v6KtrTgAdfkdgGSJ3P0Pfx8vUJcBZ9RG4iSm6IFILoWLo6xOoAnDWCgQeFcMEtVYhsgGhr9G3qpwKwFk1EUj+FBMUR2gvQg8RqKACcNZriBTGBLUQao7QNwisUgE4614lBNZhgtMSFyU4Ngx9v4erAJzVEIE5zTFea4S+knlHT10VgLP2IxKO4aI6I3QMsfMI9FUBGDmPAfMWYrQBVkR6pSJ2JExU1xwVgLH9TMNggWkIzUGMu/9AwKoC0CDxUo6kURhr01CEbHLLoaM3qACcVBKhI25+qLaZ1Nv8IVQF4KSpCJ34ESP1i0KoxHfYMzkGgTotVQDOuRqEUMUKGKfsdsRWZ2FXVURqqG8DnZO6HaGM8NZbMIj/k7cRW4p9K9+0oW9UZBPkvCI4hXrPynMBUB2xxEUZBzDG3lqI8Qz27bqEyMhSSXKV2tLRU2JtHhyOLB+EWN85/hgioD5i1J4m/6q+i739kdHuDLoG38uDAaSOQYwXHhdHHvML2BCjFI44VBGR2MtIqH8Ifc+SBwOgFPb8Nu0K0lqMTEOM0Mc44sF7CD0rUYBlyC10le6XJwPo0Bh7ujbaixxLvu1W7FmxAYd8aUHo9TO4qlwL9K1/kCcDYCh23W70QyASwnb9gX0xOGb9UYQS1pTFNXe/RSCdvBlAq3XYF/7yFVyWHRSNfesu46ACFoRm/6s3rhhVAoHQHnk0ANtRHLA36lwULolO8nconko4qspDxE4um4fz+i3JRmD4nTwaAJ+fwAGZL51rEoHT/I8mlbThgBrP47CpFsSyBx3DSZa3FqYi8ja5JoCKzn0N8/CCBUdk7/7HJ8Vxil9cuVcTcMgvOG7yu9hT87UwnNHlyHKEniyDkfqR0zG5AMTrO6n+6Oq/HMdc6l1gxOVyOGr0VzHvn8MxWy/jhKAw7PlywjYnQm3x9cuIlX+IkbaR01NGrYZFo6HFBnQtuzwFx9yEZ/u+0O0ednVYfqg5tXBQwGKcMeYIdvVl4u0lOGROvUqIsfmK+U9HJxh1Arzn7Ns1DjTHcXuGNAhe2a5aGfR1qJA46Av/5jhuWVec0qEy9o375OJU7PKLLzm4kt1Az2Os18ipEM7Lh4bLFcjp+woInHwZZwWOKfLP2NtW/qJw1BuHusdcsuGc5QOzcE7vlTYcUOiD2/OzEIiM27kU+9Z2wVgjZ5DDz0EGBbCnMTn9EIFAmTpLcEkTS+kXJ+y40uZ2gXvtt8/JXm/DBaXfGYOz/siHY7qFDXvzAFqKdE/+5qYVBzSpOgVjjZlCDv0WGRTA8rfIacQsRGJmZeMx70/AaWWe24ajAqrk86+4KTUdAABLkUm13/o5/SYOOloHg4Umk8PxWgYFsLUlOb3xOUK/+uMp00fjgrljM3CKpdy/b04tumXApHd6huzBGS3P3MVY/r+S05urDQpgbWdySi+M2LmX8IwT7e/gikcW3CPs6csYrOw1cuq8zqC9gDiXNtdq7sAjFvW/g0v+8TruUecyRgtBQ1sMCuB2aed/dwvWXsvwgIbbL+CiMztxhxc3YrimaPjTqABsLcipKvYkj5qB21WsvAtX3RtQEPPFXcN4/0LDPKMC4N/k9Fkx7HmwdDluFv6nTHRJA0piti4bbBjvS3IaLPtdgHjh1vYqdt0YuxW3iul4GRlzOptdQMzNa5jgEDldwLAA8qPhJ+y7+8ZM3OjJL6YhZ4bJBVTsdAIT1HpMTp8aF8B+XP2uyRoz2YK7RJZNBK8uoGX/Kpjh32joJR2AuKUIHDLu2wjcwvLjjavIm9G2IGapUbE/psiHhnbGBZB6l5yWNsQhz8XUwQ0mfFk6CyPMKdYFc9y+OQVzhKPhjnEBcEfzdMcxfS7eDMZs09c0wSBJB89jguDXSiZjjuIzyclvhWFnCZyPJKd6h3FUy2fnYKbS3wVgpBZfp2KwhhmnMEvTXeQ0cbyBJ8CraBiGw7btiSqBaSy7/gzAUDuKxmCsCvVOYZpSaKiNgQFYCpFTuy447NqZErf9MMeMK82TMNjlNU2NbKrkpz/HYp4jaDiEgZcAJsfKf+3efHwUxgv8rCWmiNl+BWPkPzx/AyZaPMhGDn5VjxkZwPoO5FTnKM5ZdWc0xtoeFZmMSfwyS91Gnl/3c6cxVf8F5FThe4wMYNWb5GSZ3wcnbX3UPxXDbB53BTPVeHGHdALL9q3HZJ91JadjrxoaQLmfk8kp6gxOaxN6/iRGqPjen10xW4cBe6cgYdK6K5jtvaloWNzX0ADQ/EX3kLm4wD+y/dybyGnSoEX0PdwheHrGUFxTdVJEWcx3qC45FSp0x9gAdjVFw5gPcEnwpSfKZOCqoD0PuzzAbfxK745OwFkf7XvpA9zBL/sxOU2KQzoA+w+GMjMGV5XpPPblcy6k80LPS2vv4WZF9ye2ysZxJaed+/Qh7tF5LRoe+RkcAE/8Tk5BpS4gIfx81/ClmTgqvET4qZQHeEbxcf0mzU7FLkvFTt32jkzGbSqfJSe/ZpuNDmDSWDT0WIGkotWK3bz3dDxCEU9vKN7zl814WLkWrycc26BbbEDlCtarGVdxq4P10BD5LUYHEDsnk5wiih7DCMWrtd4+fdOYqk3vBNoO3k3Fr8gbIT2iV3wS9NWfoQv2fbkB7xH21Q9rBtg2Hhxz+LvEFEvZvZ1+3fX54P5PpHy6Ju4B7vdLABo6bDQ8AD7tieCToKH8CqaTKxTmIUIe+gzY5Eyq8QF8OBwNlVLv4n6K+Fe4u5qbsBcwuwQaLq7Dc5SxtdGyARMCuPshWrpH4jFKlg0NLU0JgNloSXwZT1HmzUJLY6spAZyagpZF1fAMpXwqWkK/wJQA2IUmiz8eoRSZgJbzB00K4OxEtBxNxROUjqfRUmg9JgVg24emVotxP8Xv+Uy01B1uVgCcG4aWPcv9cTtlxTjtLvJjWgDWvmg6sRd3Uyp0R9ORLeYFQO1oNNVfhHspNYpZ0fQFMvIh1mI7mqrfT8KNlMKFktC0tbWpewEHBqHpZCk/3EiZkYSm0NKYGoA1woKmI+/jPsr8d9E2JdLcABhyGW0jq+IuyvMTrWiqGofJAdC0JNpOX8M9lLFZKWh74b7pASS8jY7KS3AHJep4ItriVmJ6AMzZibbMmOWYT2mYfRBtJS4jKx/2vfeRFW0lJ/bAZEqXc1fQ8VVtt4xGfVAWHbeGLcFcytqrV9AxsDFuCYAbjdGRNuQaZlI6XjuDjkr3rLjlEgDhLeaiJ+oMplFGbUpAh6VgJu4KgO7r9WObOd6KOZSaN5LR02MF7guAB8HoqpOUhAmUsOcOoWvG1HR3LoeW+AJdR4oswnjKhaBD6Kq+MB13ngDEfhOPLsuBxlkYS9nbPwFdlnl9cW8ALB+Whr4aPfpgIKXol1UR2NIGdwfAK5cy0Ndka3AWRlGaFl+CwOF6uD8A+i1EpLbtFIZQptR/GZFV79g8EQB1DiPU95sLSFP8b3bbg8iyQVl4JACa7EYofGWnu0hRLB8HdEJoZ/dUPBSAJaMgYpUs/ziGyxS/6Qe3INbnYAKeCgD/XXUQIyLxxQu4RAnbfLEvYsQUGY7nAsD/54LYE/Tezx/gNKVU1bSD2LNudBKeDABLvd3YN+R47z44QSkfWWyhFbuqBMfjvgDEnwXELNWjb6zBIUrRusVXpuCAI+0e4PEA6Lc6A0dYNs2OnRGPkFKk5MygyGwc8vrRdLwgAF75Pg0H+fVK+OWZr+6iQQkMq3Ij5Zc0HNVvuQ2vCIDla+JxguXNMzsD+hXr93jLtzuy8HGFizzulRJfMnBU1PLBqTihUOtV/98uHbtEAQVwHP8+qLsujq44KPS6BjmLaiqpwaChMsKGqKjpwKGlSUQiiYMuJAmH0rIhiNyClqIhiZYbqiGC4MCW8kJILARBTtTjUMXdQfR8790Df5+/4QOBBCB34jq1SZbZ3paozbnMS8IJQGziYAV/5F1PiZACQEfiKZ5IfPRolcAC0JT5hBcy8OY7BBeAWPPvCu7JcOE1IQaAe2cu45hEphMQaAD2dr36i0MSPzU5RrgBIPPxeBVXpKVhBIIOAIOlIZyQtubhKsEHIHZ+voB1cunx7a8QfgDgwOcXT7BKmvIPS7hnsCN28uJ9rJFIa2kSHwy2RFvac1ghibM//uOHwaLT3Xcm2CKJP0vfKOOLwarG7n2dc9ROelPjfXhksC23K79MTeTKQOcIfhkceB8ZLE6xKRJt7ylfreCbwY0juehY/ywbI13Zf/ki9WBwJ1n9sphqZF1yKJVdmeqjXgyOJW9dWPr158M4a8iew60391/bWaSuDF5E0727ZxrSzx8VHoyyrXX8PLaj/+1QW/butwUsERERERERERERERERERERERERERFZBUUzcDnQDVVHAAAAAElFTkSuQmCC;" vertex="1" parent="1">
          <mxGeometry x="1040" y="479" width="40" height="40" as="geometry" />
        </mxCell>
        <mxCell id="UT0VLJzFDOpIuryW0pFi-9" value="" style="shape=image;verticalLabelPosition=bottom;labelBackgroundColor=default;verticalAlign=top;aspect=fixed;imageAspect=0;image=data:image/webp,UklGRkgiAABXRUJQVlA4IDwiAAAQ7gCdASqEA1gCPkkkkUYioiGhIphYEFAJCWdu4XSOj/AzzMe8Is5ou8sJmv+Incf4/5K/lo5X7NvFfjP+xfMFdO5C8pXyz9G/4v9s/zHu1/4n7Ke+D9bewP+qn7I9gDzZ/7Xz4/ZJ5b+oif972iP3Myjv6p2Ff67xT8pfu72x+NnDXan/LPwt+9/w3ty7X+AR+V/0j/W7/n2vmIwYuDnjrTtH+t2yQNG1D+rtTT5H99WRMY4fI/vqyJjHD5H99WRMY4fI/vqyJjHD5H99WRMY4fI/vqyJjHD5JYVf2pp8j++rImMcPkf31ZExjh8j++rImMcPkf31ZExjh8j++rImMcPkf31ZExjh8j++rImMcPkf31ZExjh8j++rImMcPkf31ZExjh8j++rImMcPkf31ZExjh8j++rImMcPkf31ZExjh8j++rImMcPkf31ZExjh8j++rImMcPkf31ZExjh8j++rImMcP3PZiK+rImMcPkf31ZExjh8j++rImMcPkexmSCHKdrsxxo2YPblJ6XyUx6TCuCU0Po4iuX8KqYxw+R/fVkTGOHyP76siYxw+R/fixp4KD8lWkaEDJm4Be9781xGQvhuE1ld45v1r7BDGfWRMY4fYUJCR9ZExjh8j++rIr9XZNI9oJG5QkEt67+sJaCGJLFM2DZveMhvDRkyzmAlbI4u1JRCZVDqafI/vtK3xUK6siYxw+R/fVkTriF/gV0ms8eYBkGKB9RECyOaqYliN1DlEL+jMYJefG4GxisbStpljEsHWaGOHyP7/GfWRMY4fI/vqyJjHD5JNGCDjruVIjyaSjusgzXMaQdfr7jEmyHxFzlVjdFkuqXhxUn61GQBQIOK+rImMhQGMcPkf31ZExjh8j++WuBg8kRI6gjV1f6PzVAeEbQMSioJVzeRW54pW2d0pGqtp8REv8eRYTC9hE8v+qy6McPkf31ZExjiOtjh8j++rImMbafHokkvyv9DJlTiG51jIHIDplQ3lZNHnk9MG28EtlLU/5MFKFRB+1/Ut66GHS+9jrCGKWMgwxbgk14tqsD7PyEj6yJjHD5H99WRMY2jIJDDI2AMdTEk4o+kFj+nxlbUXF8QiSM63UeTyzQl8skkPNs+mPrbjJRrdu1EL6D7g2afI/vqyJjHD5H99WRMeH4xaHJ4of3kqIZ8RhgX/jwP9qbB9C+SlslPvYuaXhP3GIxAEEhI+siYxw+SWFX9qafI/vqyJjLs98Mz4E/PJX12l09WisO1zvxSJlKvq/3BvBJFSp5SXKbTGOHyP76siYxw+R/fVkTGOHyP4+A+VALjf5XYrct0jmTVuxHl+PImV7h40pNdZExjh8j++rImMcPkf31ZExjh8j+/GOnSzOfRPIgDjzIOnWs3j6yXG1D+rtTT5H99WRMY4fI/vqyJtEtCFtZoSRcb++rImMcPkf31ZExjh8j++rImPxnDD5H99WRMY4fI/vzY2afI/vqyJjHD5H+TB9MPkf31ZExjh8j++rImMcPkf31ZExTm0ddgoFS2EHESLlQNW90bndgjA+siYxw+R/fVkTGOHyWYmnxEU73fdMvV5Nw4Bf8JqYvJgNKTeYhbOIqfozf5ZWlL5KLngAzoz9NZw3kGxOVEFVVNQnRx+fhV+M571nMsQWtyq4NbeyRq0FSPrImMcPklhV/amnySwq/tQeW+76EGo2QvNLhqknFfWpDVCoGThkYT4ka5jQ2xBxH20ywXEQIxjrYReHbi22VS1htgH99Xr/Hoj6a1P50V2rMjRn8qBnkKxS2Lui0p4TeR0+iAlgqDEhROENoTaYxw+R/fVkTGOHyP7/FA50fAPQplIS9E9AcnO0TgGJ1MD2g+QCeUnAWXgt92L9sXsoo2KFtKX8LyAEXhg5eaMV4/ThRylLXTIF5wDB3gAmRU9sd6ALtyCvKXEbs2nqn/Dq1SO1MyJjHD5H99WRMY4fI/vqyJuHIQ2THSt3sBDR6nliXq6gtfy/xJeNSpeOnRWCfC2q5Y6PxKDXuS/TTHKFDDD/AU0zPcFtYfGlMIoiKsKF2MlIktEwGFW1TJZ4Ex8byoIX95+5JxKFE8v5UEDw2FtlFgk4hv6wManBNpjHD5H99WWq6u1QWvQllH4zp7hYLy4dqgTQYLdb9f3YHJNDO9gHJPrWFfaDaXR26b2FP2u2OG53vkhg7858cXZYYd1i5BnQX6Qx4sXMEBZT02mVkTSp3ksj+/NjZp+GE/rDbYiGloSXV0is3KgVsjoW8TZt8vEyIPw7UQvsI9CJ/V2pp8j++rImMcPkTdY0G1dqafI/vqyJjHD5H99WRMY4fI/vqyJjHcO1D+rtTT5H99WRMY7h2of1drk9vqyJjHD5H99WRMY4fI/vqyJjHD5H99WS42of1dqafI/vqyJjHD5H99WRMY4fI/vqye9CbTGOHyP76siYxw+R/fVkTGOHyP76siYxw+R/fVkTGOHyP76siYxw+R/fVkTGOHyP76siYxw+R/fVkTGOHyP76siYxw+SAE2bU0+R/fVkTGOHyP76siYxw+R/f4z6yJjDwAD+9mmDX//61l+Tz9lLlj///6If8Hr4PWAfR+/kTXzoAI3cxcpEtNAAAAAAAAAAAAAAAAAALkavpT8SUlQgIQhLdDzgfSD1AZ/mCPjIVGeVD6GeRKg/s6IvxCmCuj9UJKjbugAKfb2uY5q3Hzvhvz33NV4Ad4iXAfgGa3E6qifoVhXR+6nOQK/M5eMWpQyrksaRK2wtGQ/H/yrG170o6XEa0bqIG/Ep5wepKnip4LNEWIm9Qmqkm7X/6LZoxuOIac1Sm652Pdc3sWnSi9Y966BYR+vrXUYqnL791ab8Vtmd0Cc0W8nNXFLHONHH/O/c8gyRK5F6oq0hB5+Eh3h+8DC88aqVaNPKYu8VaNu2qKtLIqX+RRbPL07PeigJNSXWnhqyNzpxBRPgERDHdad0ssE4qcZskVEso+LI4v1bFRAaWIAKN8+fSbuPVjhTHNqVBN13Rr9LJ9UkzdQZTlBRRdKjcudP+cMIvjsWYhYSXyHDxCZ/Sv/q7y9OCjodZxirLIl8a+nv+rBhQycldLfv8DxfTTWIGDT+p5uQSA1g3IRE2q2Yihe5JRq6PbAnl/q7AS3u28FwxWaGRR82AMk0fljaDUfLPABeGItU5Tiuikf1JMthbKafvSlpt9SkoLpI5H+/fjYUQyrAUpBX67kFg2yPnr8APFyWgQTe15dUAmC2jMU10bvwGDShfnEDfPXc09hKSH/MXiNvYoIkNsJwSp92a1OEu+kF20wtOXNHZEZguIpQMD/yKpqFatAqHoyUcVCe6IIfrKUJozxx+pl1tKO8gMzHLP15cYE82qZhA9rhFGKUyB3PPOvWsyEUIgXs/vuN0fW5KyKmFamlmYtry290L5L03DoyKXuhKGwtUv8ex/4AjNNmxwjdqT0FHB5mpxMnonQGke7UcYah7GEqX4ZSSPE4cvTW9s2tp6FYxzEMfuIobPcQQMFHKFxg8oOfIIqet0O+xk6gocFqxdnkqySTH1/w5+2ufFYaoXlIDexrjV278+RdxK6EJX47bbEOfIAATG3tMVtkhVU1Z2rzXJ7JMH4vI7EIvkmpZQmFo9HeL3dabgkHxs7z+4Fh2ugkomqeGqfa7SOzi0diqzMb3AWzvgE7o4I/LYkeJDYBvKv/FsCtYxLq0DsDFy46AFsBqjSA4H8LRf/eif4g++Tt9ntIWPWey0jh/DY7ri3kvcb9ait//9dXSmBsl/gkxp7yni7LH+S5Swlf1lb398LTwcmR2aocITar1C9+bD8s1glK3gXfsnwMXJsAGrMNlV5LnLBTaO895h2THXZH/YpD6wrqNpuaqQJwOtjdwGaoZwMtffswHuCx3dHoSkMUVjMxTy526YoJmetaVa/i+pGvK+qJ5QRsDQdnOu1LDJuQVF59fAKfVdTrDhOH0WJS28eYTjTXVkd5uSV5EkYnLQxojCMj1kMLzrNfSHX+hINQ6CtzN+hcn8TQfv8Td/yPl8tehtUUAUVZcrgWsyuxDC6h6EXe8DlwVBp1gYr2AKK3havhprgCqxG7P9pselhFDJCYzFkWixXEdjtXoa9vkBpGoa58wCG+2ONbe1l/FZSnZeTkEmhcIkKY2KIO17pxpajb2j7k6RNmoATlM6a4T6kGfnSKzTf8ZQJNPze5+Qwk4tXZbNUlzyYHJ+zph4kL2gm895UixqYL7h0k57blUPLU145ZUWv5Iua7aJzpztHie1SmtuRtKIhOeOTk8kloO3ZGGB0iNRRsfs9nJJSOK9w2lZE4j1F99Y9s+cUqXJq/8zZSYn99thGA9HqwUqXH751JgoU+f9UrD8q88X+2pzpewbT3HZBb7BamxwvN1rE6d1wfBvEN5mzLamRv90sj5CC2NK0r1hA6xNZ/1Bovvc8xgPJQ5MMAAYREyR7AEZ4jnnrJXQq+PgwqY0GasdA1xLdkgtxtk4l8RaYfPfpVk/+yhEvth4czhnvEOl/HC6O0vMSXmNB+PL10zwSgf7x1uthpfRTzJQHPhfjEo1lxcy851htBqeUjXEzdw7vPDNnO+w+txHW8g0XuhVz5Yzrx7VxeCzes4chUPwr912WH+QAwZ+iiNYdPwmJl+P9RmE4aP/oOkOkh/4yXzmgSojjoGn2X1i77rZveaw5dTJ78X4atMPQxSWPEPzYc0vcNxtWp7zi4TGwVVQMxISi8Jj6O6MFubkQNYu+2A/XJBhQaabx0ROCpF2sRxVPM/oLoD2pc/oP3oiI9Y9gLqF0ipIfJ669krO0Pvb424S0j3AUf4nvdGnax9bctMlSknK09rKflQYCmIiug59cordCxNm50lOepsSp8UEUR13kSVLxpznQyxrFU2euabufyRECGNDDtcfki7jmyA7j5bYoqN+TEOhjgAHW6Kya7wHpwzfi2T4SmzOHDMfiqtynMw3DA1IQs2ZMZyL8STJumiM3PDqePm715dEtwyQtYP8DBmVK1yTVRqNw4/yDa8uaIaMCAYeoESwcN1ep5F/NPR6mtt4EYeFmlCK2/xVO1b6tqDacyG50t4Tz8Kue9nDAmQjkWdNJqQYfdo6K1NzF6o3LGKPmI0mcbGwbLFrZri2SqLN2u3TH0nui8wXd4EQos+AWVQRjnlePeOLN05aF90LQZcfSKnjmnzn7iIee9UoITZw+GyiqEMqy3mO5E7D3WrzAVWJUjof94T14BS5w9HhWsI1u/YRBwWmIRZh+ekAgbbyOtJSmpo4URnqwonRKP2Axsa39iHGOak1QLhgPdrBarpamkUayA6BhO/9bWbkJ+EZFptW+23wU0/CdWJ7mppeXTTWQ1aOf5XXCV2PCIQbhgbjkiucX+q1dBRVzJZG3GvtSmSxVZVf+MVexIEnYvvKl9E8jRYch8BceGJMfyZKougZ0h7glqp+69jd0YF4Po3J1DI7ahncUjga7I7JhGbDZc/qUADxYJDbrlfgAtTEr3tiUBAKzlBUEa1WCYe6YtVjeRl68JsTsrYAmd5BdafXLCQ8hyDN0NzwxYxhZEFobOb1gCJymD507NmGEGOlIBKR88ZToMJk1+Qt+/Ksywhof2rdZ/DIAigAu95mwXTvBAamM/UX+cwqQ0bWN/8HtZoA3ZFFrwLt9tQbvdMz8OD3hsBmpuRcZbsqc4oFGTNTUalTlyf/N7xxkY+3yep8SsdCZ6BM3Mv5Fxne5f5qN7tRFO65DBKvxUtQvFH36G4tzCXdBhTS5JQbV5oOJJ3sBu8WezGOfIeUma4xQ/SSHO435c8XYEKbMiZPsFWBJq0WCS+Ov7FNsNib91hU1ucmEpfQ9eOLBptMblxqBeCXv7YPzSiGnjLowHm7kLKKbp/MOP1VpxDXlQb05jXp3112AC5R0r8gt48aJQmZXt5UI82wAReWBaLWIUPSRkPehnkPB7FjUBjU2lHmI1UiC1GWGK8lSBI65Psz7clRreFzdhm+VSp53250PqvBe1sfDTGf7IgqwmbqQW/DoNZ61mFSWSBdbYnd6n2aDacAc1Yo36GdMtbzD+qa9tfjKojjuDySe4+kSjkvOVnx7h60M6o50wRhvVYbIUCWLg5rnigK4LUAI+iHMLCQ6hyj2nUxZt7K8slJNZ6ZfEAbtABfOsH8qqBkAWIVaDObtqTDNfRXDyAABEoZO+lS30w99EFn+Zva0A6yl7c9wSJqu0SDVQYM6oerFDREYY2rNvY881dBn5EmLvRLPnwMlQgCXXQkzyOK1+1cvLTrKNZmo+TkODARGKR0ctxL1bbKMJNZtNTGXzNCUQTgpZ30IjYIJ4phJA5w9grMF36/PP+TXry5z+jEbr74SWGX9BCDog1kE2L5AymuRWlicxsy17wOvjccooPgqKjJ/AocviaOw1y8fUZ/P0ManmKY1G1vln4y+HFrIKNdFafNU88W09pRRwlMaMYY6SHEqSwyqYCqDK4O3gAZeW/m+18wArjej7TlD0Rk1eDdBbUgLbvtZ+5VN60MINKiM8DsNZokN6Y6yJPIOn6L2v9XTlDn9BxZqAJj5b5F+zf7hrwtL7JNRXhEDpGBHDESUU+NXx1CgEjEvS9lvlrqzB67Zwl6KVL58JHPmCFv/e3qtpoyN56WcB++10gXXeh0x+a2SLmE65l8PBZKVV+UZAAsHjxMfSU761AIAABuQPGTvv/726pVUf5TaBliGEO8DgmiddLouZHnnzMfqbOsuiY3c7iAkNawnCRTgT8+6cdDXzehpuIyGGbaJBoyJRS8GyIGuDUi5DIJO5p0/VynIoFSg7DUSHJ5QPK38ZNpfqPAWCLfj9zQR0r8AOuasLuAl5dETemNDAb6kKM6XxvKaEhxE9Kzb7AAMivwAAAAB4A91Rcx0k/e6D3IZRZ31NAA35Gu8cnYYhjZ5BXGbIcq0thjGpfoDHyzARRO1JcBCIq+SAWrpH8ABUSJG6xzxjEa3SWw9ZxyMNx9ZNFZQb2hg1P4FPepWQ+CiBKhThYYf0bTpng44HIS1Byy/JcHCvHIZ6B7qi/tNF+RfPiETBgMBKdLpFMe5jrZjxsgiAaAVfkGepJGO87UbVL5aw5aIARNyBma21da14+DFQqLDAQgPFglJMxr8ngwkzySI5pIm8PJIjzlto6qB/mn+UeP6+wSghStuNWSvSUIibssHyFxF+1HcMXNUKGIIrex2tj6H7PiUIHAEE4mJI+sKAEdUQ1c4O+CT7v09e29ma2W867F5WaLeYy63S2Ayi/p6LjtfEZYBw0mNhBA7VfDH9R+D+rMo9wfLuvuNmcgIxfheMTQSOPsT61DuAqW0WRgL34mjJvtz8t0Z5V0OQAzAaMSEX0KKTt9HwmupApyDgheLDd7Ca5FfBnpse1QINNr+sRkZXSTvXDlzX8ibxWD8l9kjitfLK73PbO2e7UBAyRrXCS3Zg+TrVyY/03ASPsnKtTgRmqt2u3gXukjMZvUq+JeM/XgQDnomP+1nlV0vaqKYAMocdtdcCV2aDTPdhla2CqZE2VKIMLfWbX2MAdh3lxy5aH4gsqe8FLKu8wTKsEuzKjVY7x7rkqtEv8G6HezWpcj2Dq5fRyU14wrOC9MhcdzoZi8yWlBrasql5pQwPgS153ngXo581f6JVAgWZMgr2Px78xb398t0U9neoEPPqKQ9qhH5UMuZwrHuVblzNHtQSSkjkD74U+dYl5+JRiZ50khuZJYgh+GOTv3sIAPaNxlZzGpr597WZc2hsBVXIEitvyhh2YeeE280XrqPQ8fmT3VSZL65sHnhD5Bccc8HhSnXtfUvLIgk4ns7GiCxy0dGr2oN2THQE1s3UT7UZErdxU3emKYoNlcvAp0ko/Yw/y6y2+OU+Vta0RAlFK53a4UHencS1uvBXdbHYzOd3LBegelCHRh4wlaHrfdMEQdMj1io1kFTzukACoV56yS/GFMlNtqJuIhVCON0bIz7EVeOZ7c2ohbFbAbdQod42fg7A/2pnplDGcVL5Pg726RJDbeU0AGEHPtvxx0cmY1W6W52YvtJGOnHTUj1FiyYZxzhEDahelKQcj8tuecTUbHlR8uLLwPVfaSLgLJhp9ziZLNi75JF/2kgeRdbeNewwJOGTFYmzF5q1VGv+JDgSJBwOitDfuVPzYW5OvLb1he9i9/9qyKWknNgTPlRDw/jtU6IkYvA0jb/HXeR5Z49nZAcHNGFOk3p/yBlubaGRxoQpB8msZEqEbjX6OI4koT29bxxu+v4WWjEeOb8GKO56KD23RD3+raLeebLY7SFCVvPCU7wboMrP4Q7fHXXiIxJ8xSqgtvMEyqIkiKGWDV592T9ehkxFhTS6kJ50IoIywO85siATzeEnuYTh2x1CxEHTjvUrb8y1f8CVWVeQPzASmRmMGvAHw9m0E+BTpIeWImB4WrzThwdM+wjXYP6zMDMU5ZFBOuXcykmBpwkZoaC0H1JwHn8QPjbcN35BU9+FXM7lV9cJIOlGVNifbqCBHgFO3u+c11/WnTX5y8koF6aMIfeYp5qa6GosVYZPes0vD4u5pzXsiKRKJuDx2Aqf0ttY9Yu3FUxTq0dc0S22GP9SRR8q/Ik3cNKnGyB+TslPIsnsK5nm9xINj4vMyX3CSXAdvQMegkctIbBB1a1tbBks35kD72rb5C4aYBEo2Qu9iOMZSRkRV/+RUKmFcytSqKvoKC31dIWMnBj+O77oFYxXP3vONr+LNHa9E01yHR/gSUFqubPdiD5yDhS0rNRtTqpSo9fYb1dKvwRk2ZeqmgHU0pFHsnzYYFvU7e4FABTY5AZV4IlEv38F79Tuu+DcrXUZBpuR6zaok/kbsMixb49xeOJJrM8sX5Qp3sJPgQt+JupZGcMZHPpuSAC2kFfiCR+SI+SuO8Hns4PFPN0/TGZMshUoyRoSEscFocCXitb6G/nF/r+1y4I3ZXHto1WRSStuglhDWhvuxhqSXdSDVoWxNwYpgOBcrxiTqZ519Wdl7Y6BMgi508X9zyz3gyelfUSKSzgzpacBWrQuU6XWvZL+VFVXQTFryy13Edt9kFYsRpCdJzHDUBEBmVjlMiI6ebyshlzdcD7ER4isv9fiSyMzqqpC06h/+rXX+LNrPTdrVdbflSqc1Iif5exg8Y55Sp+rOmPDsdBK5Lc4hTrsqp9Q+K1As3nt3aQLgkI3YOZBNpRAQXOwsGcBxtIPlIqqn0mVcwTO8ZuqRMCb0i1VuMQTFOy4/jOtWZMnc1Au46dC9roUep0HCSI6f7B0ehB+HLx/9P2z5qjK3vcJxS6fgqVnaYn3lJI/gyeQOPoUWyR8q+FUQA1+wSAW70zYmsuG8ltAGilNOyOkwtWifHoNUC7wmzeN4mfNBAgy6po6CEIWfnXsgLqSZSuZiZaRXAUNgCl86pcfLNyyUXjfs+WwbU8cSvFA+DVhh2SXzUJNkjplpWN2aDx9motNhg6X5lYImssyjtTsKZA/oAnWeK6Ewprv17ECBp0gOWfaHYO3N32MLyDT/7deVwmTS0pVEsfDZbLKe1nZ6bglU4fgSV932zXHycmT4NVQSXb3TPFIP5pJZz2x1KXbdwzPoqid3M/TiQdc69YbJ0WwBqqFDqiq89JW5ZGfMo8pZw7wVQqrftQ3VxctM0u1kAIBPXUDQ16E4K0fhK/+Lga/Mb8iPQI2Suzgt6IiH5CPSoBAmuTaQT4QMDjQ+bCq9Tl6/IDgJmvod2/aiIihqC2mKaD7pkxVCNd71bFQypYLmA/oHmxvAwBarppYxD69Hla6DccTijQKPp/JLRynqa5PGq59TtgZBgKSBgb8WykkqJB1Ys4jAgpTMSaFgAj6Zi1Aqr3sNHf28abk/T9QJdFyFda5litHRILrzfcgWTC0sXd77U9OKU0SsaFO5c2pir5THTfnjF2Ax8PkEZ99WBJxPmd35425L5uAyfjqnQGEtY5taafdyCdlyL0e9kGh6ZQ0FsUejUjTnsu0sobxh0LjGovVA3oIm4+mvTawTnwHooYHFTqYoiBZqYEab/ZpczQqbmfkw0MVk6aISDxkICa9mAZYKBLQhdJU7hu7ahZOFOuRQ3g0OxkMfdUBPKatjVS3sUW2oJn9TCLZVCQ+slXpO3SdVjflQqh+t6H0vrRKp1Uv3HP73BsHJCeX0KiHVR0lpvo67M3wwc2hpCIUvVwCi1IFYQNY2KHR2t8EUrkPBQ1uuhlnQCCwcAw7fGYwgZkICrbKfu68+ttjx5PA5kFJlO2WkWZ5NsG5fDLdq66xH1aAkBWQpzBMg3vp90wGlqmgasv4uxqUsz+Fk8qLyo8/i0VbDI2lzPsQMsHtWwBXkHlaL5m8ej1CyHVGQUtm8dUb/h6t0fSm8MriFNSKuWTLNo5oNPFhJLcYLjkPR/6dtq0/xiKVZyhp/Q1n5ziOYSZn1rCyUFY0wH4jdGN0tIcwJHgeIehGKDG1ZnL1JVwdQVVrs0nqj+JYCppc97z8PxlEtA3XtMXpsPuxwq5v1ugEU0N0g4YFTQCWX5EeDHr6OO7soUm6XdPjhpuEkmtRJdAPEz3yblipP6m0JnmbSMkPGUeFT/W2scT3k9rfa3lh+9rWd0dkog3JI8EFELqosoQq+iE/qZshPwhjCKu0XxM62YY7+X1QxS0k3g3/m4Z9X444Z4xD36cnsx/OK+1gSVzdhfr0yyBNLBMZlKTbQvL8ir92Flig7jC487nJQPywBmZ4BLlQmPD/JdxbFHlHtzHt/df3yHnfRtYA9Jh7L73OgMzi9skCgEnLkJTEAFbZbUOl/IK/TaNUD3UVLcD/NUMDQtyvHe170Ynfi+dvk69OwgWvyfV2SIfADRMcTo/WUyyVFH2UemiPb5wLZsYkDDxP3i4T+hlgjptwzjSIRdi5E5DGZc/C7aZltlWPfqrA1NYfU3aVS/FUJb9OZvsFXWF9qg7pdsMRqh3lux0v3fwcCUD9HnfEwuJp6UffGp9v14E4CX0HH4TtXsHlKfCSKAzhfuVadu9WzNe9xFHHE/po097iF0/OtQZ2b3kY8ne6Zag3fBmD2iHy0KnDk91EQlYhfkI3QcU02D75ZLf01EDpAGvIp66hx8ul+ZvdtVeI88u+s1zRUVTow+4+RH1Osq2uDUFhnxRbcH7hJO89PFe6Tixb8stsk5w44uJBGHtTWYObTDAhJY1hZKF7efr3X4R0X5OfwN0PWTc8EiZaPMbr+A1OvzeY0nmG2FO7t/E8RL1IMnYcZP/EmJpkKI+zVHXHVI5N2r9sv8OW8VKYMfiZGxlbYZAo5Jl8MVW9QowqD00/Dz+F/4m3v4t+PNBECMQhtkomDa3CLZeg/a4mmUwO5W1so+LAay5fmuxL5TXY8hUZcfMbAKajH6Jkey8Bi+8c7FlnjGJwZTNIkHrNnz6neyvgyA8QJ/x7REwLDuFhbQDBW7mIPuq97AfXeRRtRh2/KHRs/i6NSRF9Uhv6P8GchsDfeNKvw6y2vE+CyFo0BCw6khsMHVZrc4NfhLZwNpGXdKhqapIP2VELHolpMiOwt+1lsJJ4VfgAAAAqEK92E28VHiliAPTp5qSpEfrF19aP+v7RZ+pL/IVb6oJnUCLAA9WikalfmTUYxkZek57/u1qo+IcgXfV4AAAAAAAUq1KamNIWs3qfDmnC8UliNpAAytifWWSeoALYkCvwAAACScmjX4ACmcmjad0eAAAAAAAFL1pX4AAAByodfgAA;" vertex="1" parent="1">
          <mxGeometry x="860" y="770.83" width="50" height="33.34" as="geometry" />
        </mxCell>
      </root>
    </mxGraphModel>
  </diagram>
</mxfile>
